  0
SECTION
  2
HEADER
  9
$ACADVER
  1
AC1009
  9
$EXTMAX
 10
51.4488983154297
 20
201.259506225586
 30
0.0
  9
$EXTMIN
 10
14.4126996994019
 20
16.6033000946045
 30
0.0
  9
$INSUNITS
 70
     4
  9
$LUNITS
 70
     2
  9
$LUPREC
 70
     4
  9
$MEASUREMENT
 70
     1
  0
ENDSEC
  0
SECTION
  2
TABLES
  0
TABLE
  2
LAYER
 70
     1
  0
LAYER
  2
0
 70
     0
 62
     7
  6
Continuous
  0
LAYER
  2
Default
 70
     0
 62
    70
  6
Continuous
  0
ENDTAB
  0
TABLE
  2
APPID
 70
     1
  0
APPID
  2
ACAD
 70
     0
  0
ENDTAB
  0
ENDSEC
  0
SECTION
  2
ENTITIES
  0
POINT
  8
Default
 10
44.6651
 20
18.4566
 30
-2.35
  0
POINT
  8
Default
 10
45.6342
 20
20.8045
 30
-2.35
  0
POINT
  8
Default
 10
46.6033
 20
23.1523
 30
-2.35
  0
POINT
  8
Default
 10
47.5724
 20
25.5002
 30
-2.35
  0
POINT
  8
Default
 10
48.5415
 20
27.848
 30
-2.35
  0
POINT
  8
Default
 10
49.5106
 20
30.1959
 30
-2.35
  0
POINT
  8
Default
 10
50.4797
 20
32.5437
 30
-2.35
  0
POINT
  8
Default
 10
51.4489
 20
34.8916
 30
-2.35
  0
POINT
  8
Default
 10
35.0139
 20
41.6754
 30
-2.35
  0
POINT
  8
Default
 10
32.666
 20
42.6445
 30
-2.35
  0
POINT
  8
Default
 10
31.6969
 20
40.2966
 30
-2.35
  0
POINT
  8
Default
 10
34.0448
 20
39.3275
 30
-2.35
  0
POINT
  8
Default
 10
33.0757
 20
36.9797
 30
-2.35
  0
POINT
  8
Default
 10
32.1065
 20
34.6318
 30
-2.35
  0
POINT
  8
Default
 10
29.7587
 20
35.6009
 30
-2.35
  0
POINT
  8
Default
 10
30.7278
 20
37.9488
 30
-2.35
  0
POINT
  8
Default
 10
28.7896
 20
33.2531
 30
-2.35
  0
POINT
  8
Default
 10
31.1374
 20
32.284
 30
-2.35
  0
POINT
  8
Default
 10
30.1683
 20
29.9361
 30
-2.35
  0
POINT
  8
Default
 10
29.1992
 20
27.5883
 30
-2.35
  0
POINT
  8
Default
 10
26.8513
 20
28.5574
 30
-2.35
  0
POINT
  8
Default
 10
27.8205
 20
30.9052
 30
-2.35
  0
POINT
  8
Default
 10
25.8822
 20
26.2095
 30
-2.35
  0
POINT
  8
Default
 10
28.2301
 20
25.2404
 30
-2.35
  0
POINT
  8
Default
 10
26.152
 20
18.5415
 30
-2.35
  0
POINT
  8
Default
 10
28.4998
 20
17.5724
 30
-2.35
  0
POINT
  8
Default
 10
30.8477
 20
16.6033
 30
-2.35
  0
POINT
  8
Default
 10
23.8041
 20
19.5106
 30
-2.35
  0
POINT
  8
Default
 10
21.4563
 20
20.4797
 30
-2.35
  0
POINT
  8
Default
 10
19.1084
 20
21.4489
 30
-2.35
  0
POINT
  8
Default
 10
16.7606
 20
22.418
 30
-2.35
  0
POINT
  8
Default
 10
14.4127
 20
23.3871
 30
-2.35
  0
POINT
  8
Default
 10
24.2437
 20
48.8688
 30
-2.35
  0
POINT
  8
Default
 10
26.5916
 20
47.8997
 30
-2.35
  0
POINT
  8
Default
 10
27.5607
 20
50.2475
 30
-2.35
  0
POINT
  8
Default
 10
25.2128
 20
51.2167
 30
-2.35
  0
POINT
  8
Default
 10
26.182
 20
53.5645
 30
-2.35
  0
POINT
  8
Default
 10
27.1511
 20
55.9124
 30
-2.35
  0
POINT
  8
Default
 10
28.1202
 20
58.2602
 30
-2.35
  0
POINT
  8
Default
 10
29.0893
 20
60.6081
 30
-2.35
  0
POINT
  8
Default
 10
31.4372
 20
59.639
 30
-2.35
  0
POINT
  8
Default
 10
32.4063
 20
61.9868
 30
-2.35
  0
POINT
  8
Default
 10
33.3754
 20
64.3347
 30
-2.35
  0
POINT
  8
Default
 10
31.0275
 20
65.3038
 30
-2.35
  0
POINT
  8
Default
 10
30.0584
 20
62.9559
 30
-2.35
  0
POINT
  8
Default
 10
30.468
 20
57.2911
 30
-2.35
  0
POINT
  8
Default
 10
29.4989
 20
54.9432
 30
-2.35
  0
POINT
  8
Default
 10
28.5298
 20
52.5954
 30
-2.35
  0
POINT
  8
Default
 10
24.9531
 20
70.559
 30
-2.35
  0
POINT
  8
Default
 10
25.9222
 20
72.9068
 30
-2.35
  0
POINT
  8
Default
 10
23.5743
 20
73.8759
 30
-2.35
  0
POINT
  8
Default
 10
22.6052
 20
71.5281
 30
-2.35
  0
POINT
  8
Default
 10
24.5435
 20
76.2238
 30
-2.35
  0
POINT
  8
Default
 10
26.8913
 20
75.2547
 30
-2.35
  0
POINT
  8
Default
 10
27.8604
 20
77.6025
 30
-2.35
  0
POINT
  8
Default
 10
25.5126
 20
78.5716
 30
-2.35
  0
POINT
  8
Default
 10
26.4817
 20
80.9195
 30
-2.35
  0
POINT
  8
Default
 10
28.8295
 20
79.9504
 30
-2.35
  0
POINT
  8
Default
 10
29.7987
 20
82.2982
 30
-2.35
  0
POINT
  8
Default
 10
27.4508
 20
83.2674
 30
-2.35
  0
POINT
  8
Default
 10
28.4199
 20
85.6152
 30
-2.35
  0
POINT
  8
Default
 10
29.389
 20
87.9631
 30
-2.35
  0
POINT
  8
Default
 10
31.7369
 20
86.9939
 30
-2.35
  0
POINT
  8
Default
 10
30.7678
 20
84.6461
 30
-2.35
  0
POINT
  8
Default
 10
23.3146
 20
93.2183
 30
-2.35
  0
POINT
  8
Default
 10
24.2837
 20
95.5661
 30
-2.35
  0
POINT
  8
Default
 10
21.9358
 20
96.5352
 30
-2.35
  0
POINT
  8
Default
 10
20.9667
 20
94.1874
 30
-2.35
  0
POINT
  8
Default
 10
22.905
 20
98.8831
 30
-2.35
  0
POINT
  8
Default
 10
23.8741
 20
101.2309
 30
-2.35
  0
POINT
  8
Default
 10
24.8432
 20
103.5788
 30
-2.35
  0
POINT
  8
Default
 10
27.191
 20
102.6097
 30
-2.35
  0
POINT
  8
Default
 10
28.1602
 20
104.9575
 30
-2.35
  0
POINT
  8
Default
 10
29.1293
 20
107.3054
 30
-2.35
  0
POINT
  8
Default
 10
26.7814
 20
108.2745
 30
-2.35
  0
POINT
  8
Default
 10
25.8123
 20
105.9266
 30
-2.35
  0
POINT
  8
Default
 10
27.7505
 20
110.6224
 30
-2.35
  0
POINT
  8
Default
 10
30.0984
 20
109.6532
 30
-2.35
  0
POINT
  8
Default
 10
26.2219
 20
100.2618
 30
-2.35
  0
POINT
  8
Default
 10
25.2528
 20
97.914
 30
-2.35
  0
POINT
  8
Default
 10
21.6761
 20
115.8775
 30
-2.35
  0
POINT
  8
Default
 10
22.6452
 20
118.2254
 30
-2.35
  0
POINT
  8
Default
 10
20.2973
 20
119.1945
 30
-2.35
  0
POINT
  8
Default
 10
19.3282
 20
116.8467
 30
-2.35
  0
POINT
  8
Default
 10
21.2665
 20
121.5424
 30
-2.35
  0
POINT
  8
Default
 10
23.6143
 20
120.5733
 30
-2.35
  0
POINT
  8
Default
 10
24.5834
 20
122.9211
 30
-2.35
  0
POINT
  8
Default
 10
25.5525
 20
125.269
 30
-2.35
  0
POINT
  8
Default
 10
26.5216
 20
127.6168
 30
-2.35
  0
POINT
  8
Default
 10
24.1738
 20
128.5859
 30
-2.35
  0
POINT
  8
Default
 10
23.2047
 20
126.2381
 30
-2.35
  0
POINT
  8
Default
 10
22.2356
 20
123.8902
 30
-2.35
  0
POINT
  8
Default
 10
25.1429
 20
130.9338
 30
-2.35
  0
POINT
  8
Default
 10
26.112
 20
133.2816
 30
-2.35
  0
POINT
  8
Default
 10
28.4599
 20
132.3125
 30
-2.35
  0
POINT
  8
Default
 10
27.4908
 20
129.9647
 30
-2.35
  0
POINT
  8
Default
 10
20.0376
 20
138.5368
 30
-2.35
  0
POINT
  8
Default
 10
17.6897
 20
139.5059
 30
-2.35
  0
POINT
  8
Default
 10
18.6588
 20
141.8538
 30
-2.35
  0
POINT
  8
Default
 10
21.0067
 20
140.8847
 30
-2.35
  0
POINT
  8
Default
 10
21.9758
 20
143.2325
 30
-2.35
  0
POINT
  8
Default
 10
22.9449
 20
145.5804
 30
-2.35
  0
POINT
  8
Default
 10
23.914
 20
147.9283
 30
-2.35
  0
POINT
  8
Default
 10
21.5662
 20
148.8974
 30
-2.35
  0
POINT
  8
Default
 10
22.5353
 20
151.2452
 30
-2.35
  0
POINT
  8
Default
 10
24.8831
 20
150.2761
 30
-2.35
  0
POINT
  8
Default
 10
25.8523
 20
152.624
 30
-2.35
  0
POINT
  8
Default
 10
23.5044
 20
153.5931
 30
-2.35
  0
POINT
  8
Default
 10
24.4735
 20
155.9409
 30
-2.35
  0
POINT
  8
Default
 10
26.8214
 20
154.9718
 30
-2.35
  0
POINT
  8
Default
 10
20.5971
 20
146.5495
 30
-2.35
  0
POINT
  8
Default
 10
19.628
 20
144.2017
 30
-2.35
  0
POINT
  8
Default
 10
18.3991
 20
161.1961
 30
-2.35
  0
POINT
  8
Default
 10
19.3682
 20
163.544
 30
-2.35
  0
POINT
  8
Default
 10
17.0203
 20
164.5131
 30
-2.35
  0
POINT
  8
Default
 10
17.9894
 20
166.8609
 30
-2.35
  0
POINT
  8
Default
 10
18.9586
 20
169.2088
 30
-2.35
  0
POINT
  8
Default
 10
19.9277
 20
171.5567
 30
-2.35
  0
POINT
  8
Default
 10
22.2755
 20
170.5875
 30
-2.35
  0
POINT
  8
Default
 10
21.3064
 20
168.2397
 30
-2.35
  0
POINT
  8
Default
 10
20.3373
 20
165.8918
 30
-2.35
  0
POINT
  8
Default
 10
16.0512
 20
162.1652
 30
-2.35
  0
POINT
  8
Default
 10
20.8968
 20
173.9045
 30
-2.35
  0
POINT
  8
Default
 10
23.2446
 20
172.9354
 30
-2.35
  0
POINT
  8
Default
 10
24.2138
 20
175.2832
 30
-2.35
  0
POINT
  8
Default
 10
25.1829
 20
177.6311
 30
-2.35
  0
POINT
  8
Default
 10
22.835
 20
178.6002
 30
-2.35
  0
POINT
  8
Default
 10
21.8659
 20
176.2524
 30
-2.35
  0
POINT
  8
Default
 10
16.7606
 20
183.8554
 30
-2.35
  0
POINT
  8
Default
 10
17.7297
 20
186.2033
 30
-2.35
  0
POINT
  8
Default
 10
18.6988
 20
188.5511
 30
-2.35
  0
POINT
  8
Default
 10
19.6679
 20
190.899
 30
-2.35
  0
POINT
  8
Default
 10
20.637
 20
193.2468
 30
-2.35
  0
POINT
  8
Default
 10
18.2892
 20
194.2159
 30
-2.35
  0
POINT
  8
Default
 10
19.2583
 20
196.5638
 30
-2.35
  0
POINT
  8
Default
 10
20.2274
 20
198.9116
 30
-2.35
  0
POINT
  8
Default
 10
22.5753
 20
197.9425
 30
-2.35
  0
POINT
  8
Default
 10
21.6061
 20
195.5947
 30
-2.35
  0
POINT
  8
Default
 10
23.5444
 20
200.2904
 30
-2.35
  0
POINT
  8
Default
 10
21.1965
 20
201.2595
 30
-2.35
  0
POINT
  8
Default
 10
17.3201
 20
191.8681
 30
-2.35
  0
POINT
  8
Default
 10
16.3509
 20
189.5202
 30
-2.35
  0
POINT
  8
Default
 10
15.3818
 20
187.1724
 30
-2.35
  0
POINT
  8
Default
 10
14.4127
 20
184.8245
 30
-2.35
  0
ENDSEC
  0
EOF
