  0
SECTION
  2
HEADER
  9
$ACADVER
  1
AC1009
  9
$EXTMAX
 10
53.1250190734863
 20
202.125015258789
 30
0.0
  9
$EXTMIN
 10
13.8749599456787
 20
13.8749599456787
 30
0.0
  9
$INSUNITS
 70
     4
  9
$LUNITS
 70
     2
  9
$LUPREC
 70
     4
  9
$MEASUREMENT
 70
     1
  0
ENDSEC
  0
SECTION
  2
TABLES
  0
TABLE
  2
LAYER
 70
     1
  0
LAYER
  2
0
 70
     0
 62
     7
  6
Continuous
  0
LAYER
  2
Default
 70
     0
 62
    70
  6
Continuous
  0
ENDTAB
  0
TABLE
  2
APPID
 70
     1
  0
APPID
  2
ACAD
 70
     0
  0
ENDTAB
  0
ENDSEC
  0
SECTION
  2
ENTITIES
  0
POLYLINE
  8
Default
 66
     1
 10
0.0
 20
0.0
 30
1.0
 70
     8
  0
VERTEX
  8
Default
 10
16.125
 20
15.0
 30
1.0
 42
0.0
  0
VERTEX
  8
Default
 10
16.125
 20
15.0
 30
0.0
 42
-0.577347095803
  0
VERTEX
  8
Default
 10
14.4375
 20
14.0257
 30
-0.1333
 42
-0.5773566159891
  0
VERTEX
  8
Default
 10
14.4375
 20
15.9743
 30
-0.2667
 42
-0.577347095803
  0
VERTEX
  8
Default
 10
16.125
 20
15.0
 30
-0.4
 42
-0.577347095803
  0
VERTEX
  8
Default
 10
14.4375
 20
14.0257
 30
-0.5333
 42
-0.5773566159891
  0
VERTEX
  8
Default
 10
14.4375
 20
15.9743
 30
-0.6667
 42
-0.577347095803
  0
VERTEX
  8
Default
 10
16.125
 20
15.0
 30
-0.8
 42
-0.577347095803
  0
VERTEX
  8
Default
 10
14.4375
 20
14.0257
 30
-0.9333
 42
-0.5773566159891
  0
VERTEX
  8
Default
 10
14.4375
 20
15.9743
 30
-1.0667
 42
-0.577347095803
  0
VERTEX
  8
Default
 10
16.125
 20
15.0
 30
-1.2
 42
-0.577347095803
  0
VERTEX
  8
Default
 10
14.4375
 20
14.0257
 30
-1.3333
 42
-0.5773566159891
  0
VERTEX
  8
Default
 10
14.4375
 20
15.9743
 30
-1.4667
 42
-0.577347095803
  0
VERTEX
  8
Default
 10
16.125
 20
15.0
 30
-1.6
 42
-0.577347095803
  0
VERTEX
  8
Default
 10
14.4375
 20
14.0257
 30
-1.7333
 42
-0.5773566159891
  0
VERTEX
  8
Default
 10
14.4375
 20
15.9743
 30
-1.8667
 42
-0.577347095803
  0
VERTEX
  8
Default
 10
16.125
 20
15.0
 30
-2.0
 42
-0.577347095803
  0
VERTEX
  8
Default
 10
14.4375
 20
14.0257
 30
-2.1333
 42
-0.5773566159891
  0
VERTEX
  8
Default
 10
14.4375
 20
15.9743
 30
-2.2667
 42
-0.3394516045718
  0
VERTEX
  8
Default
 10
15.7955
 20
15.7955
 30
-2.35
 42
-0.5773446562747
  0
VERTEX
  8
Default
 10
15.2912
 20
13.9133
 30
-2.35
 42
-0.5773614951013
  0
VERTEX
  8
Default
 10
13.9133
 20
15.2912
 30
-2.35
 42
-0.5773446562747
  0
VERTEX
  8
Default
 10
15.7955
 20
15.7955
 30
-2.35
 42
0.0
  0
SEQEND
  0
POLYLINE
  8
Default
 66
     1
 10
0.0
 20
0.0
 30
1.0
 70
     8
  0
VERTEX
  8
Default
 10
53.125
 20
15.0
 30
1.0
 42
0.0
  0
VERTEX
  8
Default
 10
53.125
 20
15.0
 30
0.0
 42
-0.577347095803
  0
VERTEX
  8
Default
 10
51.4375
 20
14.0257
 30
-0.1333
 42
-0.5773566159891
  0
VERTEX
  8
Default
 10
51.4375
 20
15.9743
 30
-0.2667
 42
-0.577347095803
  0
VERTEX
  8
Default
 10
53.125
 20
15.0
 30
-0.4
 42
-0.577347095803
  0
VERTEX
  8
Default
 10
51.4375
 20
14.0257
 30
-0.5333
 42
-0.5773566159891
  0
VERTEX
  8
Default
 10
51.4375
 20
15.9743
 30
-0.6667
 42
-0.577347095803
  0
VERTEX
  8
Default
 10
53.125
 20
15.0
 30
-0.8
 42
-0.577347095803
  0
VERTEX
  8
Default
 10
51.4375
 20
14.0257
 30
-0.9333
 42
-0.5773566159891
  0
VERTEX
  8
Default
 10
51.4375
 20
15.9743
 30
-1.0667
 42
-0.577347095803
  0
VERTEX
  8
Default
 10
53.125
 20
15.0
 30
-1.2
 42
-0.577347095803
  0
VERTEX
  8
Default
 10
51.4375
 20
14.0257
 30
-1.3333
 42
-0.5773566159891
  0
VERTEX
  8
Default
 10
51.4375
 20
15.9743
 30
-1.4667
 42
-0.577347095803
  0
VERTEX
  8
Default
 10
53.125
 20
15.0
 30
-1.6
 42
-0.577347095803
  0
VERTEX
  8
Default
 10
51.4375
 20
14.0257
 30
-1.7333
 42
-0.5773566159891
  0
VERTEX
  8
Default
 10
51.4375
 20
15.9743
 30
-1.8667
 42
-0.577347095803
  0
VERTEX
  8
Default
 10
53.125
 20
15.0
 30
-2.0
 42
-0.577347095803
  0
VERTEX
  8
Default
 10
51.4375
 20
14.0257
 30
-2.1333
 42
-0.5773566159891
  0
VERTEX
  8
Default
 10
51.4375
 20
15.9743
 30
-2.2667
 42
-0.3394516045718
  0
VERTEX
  8
Default
 10
52.7955
 20
15.7955
 30
-2.35
 42
-0.5773446562747
  0
VERTEX
  8
Default
 10
52.2912
 20
13.9133
 30
-2.35
 42
-0.5773614951013
  0
VERTEX
  8
Default
 10
50.9133
 20
15.2912
 30
-2.35
 42
-0.5773446562747
  0
VERTEX
  8
Default
 10
52.7955
 20
15.7955
 30
-2.35
 42
0.0
  0
SEQEND
  0
POLYLINE
  8
Default
 66
     1
 10
0.0
 20
0.0
 30
1.0
 70
     8
  0
VERTEX
  8
Default
 10
53.125
 20
201.0
 30
1.0
 42
0.0
  0
VERTEX
  8
Default
 10
53.125
 20
201.0
 30
0.0
 42
-0.577347095803
  0
VERTEX
  8
Default
 10
51.4375
 20
200.0257
 30
-0.1333
 42
-0.5773566159891
  0
VERTEX
  8
Default
 10
51.4375
 20
201.9743
 30
-0.2667
 42
-0.577347095803
  0
VERTEX
  8
Default
 10
53.125
 20
201.0
 30
-0.4
 42
-0.577347095803
  0
VERTEX
  8
Default
 10
51.4375
 20
200.0257
 30
-0.5333
 42
-0.5773566159891
  0
VERTEX
  8
Default
 10
51.4375
 20
201.9743
 30
-0.6667
 42
-0.577347095803
  0
VERTEX
  8
Default
 10
53.125
 20
201.0
 30
-0.8
 42
-0.577347095803
  0
VERTEX
  8
Default
 10
51.4375
 20
200.0257
 30
-0.9333
 42
-0.5773566159891
  0
VERTEX
  8
Default
 10
51.4375
 20
201.9743
 30
-1.0667
 42
-0.577347095803
  0
VERTEX
  8
Default
 10
53.125
 20
201.0
 30
-1.2
 42
-0.577347095803
  0
VERTEX
  8
Default
 10
51.4375
 20
200.0257
 30
-1.3333
 42
-0.5773566159891
  0
VERTEX
  8
Default
 10
51.4375
 20
201.9743
 30
-1.4667
 42
-0.577347095803
  0
VERTEX
  8
Default
 10
53.125
 20
201.0
 30
-1.6
 42
-0.577347095803
  0
VERTEX
  8
Default
 10
51.4375
 20
200.0257
 30
-1.7333
 42
-0.5773566159891
  0
VERTEX
  8
Default
 10
51.4375
 20
201.9743
 30
-1.8667
 42
-0.577347095803
  0
VERTEX
  8
Default
 10
53.125
 20
201.0
 30
-2.0
 42
-0.577347095803
  0
VERTEX
  8
Default
 10
51.4375
 20
200.0257
 30
-2.1333
 42
-0.5773566159891
  0
VERTEX
  8
Default
 10
51.4375
 20
201.9743
 30
-2.2667
 42
-0.3394516045718
  0
VERTEX
  8
Default
 10
52.7955
 20
201.7955
 30
-2.35
 42
-0.5773446562747
  0
VERTEX
  8
Default
 10
52.2912
 20
199.9133
 30
-2.35
 42
-0.5773614951013
  0
VERTEX
  8
Default
 10
50.9133
 20
201.2912
 30
-2.35
 42
-0.5773446562747
  0
VERTEX
  8
Default
 10
52.7955
 20
201.7955
 30
-2.35
 42
0.0
  0
SEQEND
  0
POLYLINE
  8
Default
 66
     1
 10
0.0
 20
0.0
 30
1.0
 70
     8
  0
VERTEX
  8
Default
 10
16.125
 20
201.0
 30
1.0
 42
0.0
  0
VERTEX
  8
Default
 10
16.125
 20
201.0
 30
0.0
 42
-0.577347095803
  0
VERTEX
  8
Default
 10
14.4375
 20
200.0257
 30
-0.1333
 42
-0.5773566159891
  0
VERTEX
  8
Default
 10
14.4375
 20
201.9743
 30
-0.2667
 42
-0.577347095803
  0
VERTEX
  8
Default
 10
16.125
 20
201.0
 30
-0.4
 42
-0.577347095803
  0
VERTEX
  8
Default
 10
14.4375
 20
200.0257
 30
-0.5333
 42
-0.5773566159891
  0
VERTEX
  8
Default
 10
14.4375
 20
201.9743
 30
-0.6667
 42
-0.577347095803
  0
VERTEX
  8
Default
 10
16.125
 20
201.0
 30
-0.8
 42
-0.577347095803
  0
VERTEX
  8
Default
 10
14.4375
 20
200.0257
 30
-0.9333
 42
-0.5773566159891
  0
VERTEX
  8
Default
 10
14.4375
 20
201.9743
 30
-1.0667
 42
-0.577347095803
  0
VERTEX
  8
Default
 10
16.125
 20
201.0
 30
-1.2
 42
-0.577347095803
  0
VERTEX
  8
Default
 10
14.4375
 20
200.0257
 30
-1.3333
 42
-0.5773566159891
  0
VERTEX
  8
Default
 10
14.4375
 20
201.9743
 30
-1.4667
 42
-0.577347095803
  0
VERTEX
  8
Default
 10
16.125
 20
201.0
 30
-1.6
 42
-0.577347095803
  0
VERTEX
  8
Default
 10
14.4375
 20
200.0257
 30
-1.7333
 42
-0.5773566159891
  0
VERTEX
  8
Default
 10
14.4375
 20
201.9743
 30
-1.8667
 42
-0.577347095803
  0
VERTEX
  8
Default
 10
16.125
 20
201.0
 30
-2.0
 42
-0.577347095803
  0
VERTEX
  8
Default
 10
14.4375
 20
200.0257
 30
-2.1333
 42
-0.5773566159891
  0
VERTEX
  8
Default
 10
14.4375
 20
201.9743
 30
-2.2667
 42
-0.3394516045718
  0
VERTEX
  8
Default
 10
15.7955
 20
201.7955
 30
-2.35
 42
-0.5773446562747
  0
VERTEX
  8
Default
 10
15.2912
 20
199.9133
 30
-2.35
 42
-0.5773614951013
  0
VERTEX
  8
Default
 10
13.9133
 20
201.2912
 30
-2.35
 42
-0.5773446562747
  0
VERTEX
  8
Default
 10
15.7955
 20
201.7955
 30
-2.35
 42
0.0
  0
SEQEND
  0
ENDSEC
  0
EOF
