  0
SECTION
  2
HEADER
  9
$ACADVER
  1
AC1009
  9
$EXTMAX
 10
49.101001739502
 20
199.321304321289
 30
0.0
  9
$EXTMIN
 10
19.1084003448486
 20
19.4256992340088
 30
0.0
  9
$INSUNITS
 70
     4
  9
$LUNITS
 70
     2
  9
$LUPREC
 70
     4
  9
$MEASUREMENT
 70
     1
  0
ENDSEC
  0
SECTION
  2
TABLES
  0
TABLE
  2
LAYER
 70
     1
  0
LAYER
  2
0
 70
     0
 62
     7
  6
Continuous
  0
LAYER
  2
Default
 70
     0
 62
    70
  6
Continuous
  0
ENDTAB
  0
TABLE
  2
APPID
 70
     1
  0
APPID
  2
ACAD
 70
     0
  0
ENDTAB
  0
ENDSEC
  0
SECTION
  2
ENTITIES
  0
POINT
  8
Default
 10
25.8922
 20
199.3213
 30
-2.35
  0
POINT
  8
Default
 10
24.9231
 20
196.9734
 30
-2.35
  0
POINT
  8
Default
 10
23.954
 20
194.6256
 30
-2.35
  0
POINT
  8
Default
 10
22.9849
 20
192.2777
 30
-2.35
  0
POINT
  8
Default
 10
22.0158
 20
189.9299
 30
-2.35
  0
POINT
  8
Default
 10
21.0467
 20
187.582
 30
-2.35
  0
POINT
  8
Default
 10
20.0775
 20
185.2341
 30
-2.35
  0
POINT
  8
Default
 10
19.1084
 20
182.8863
 30
-2.35
  0
POINT
  8
Default
 10
27.5307
 20
176.662
 30
-2.35
  0
POINT
  8
Default
 10
26.5616
 20
174.3141
 30
-2.35
  0
POINT
  8
Default
 10
25.5925
 20
171.9663
 30
-2.35
  0
POINT
  8
Default
 10
24.6234
 20
169.6184
 30
-2.35
  0
POINT
  8
Default
 10
23.6543
 20
167.2706
 30
-2.35
  0
POINT
  8
Default
 10
22.6852
 20
164.9227
 30
-2.35
  0
POINT
  8
Default
 10
21.716
 20
162.5749
 30
-2.35
  0
POINT
  8
Default
 10
20.7469
 20
160.227
 30
-2.35
  0
POINT
  8
Default
 10
29.1692
 20
154.0027
 30
-2.35
  0
POINT
  8
Default
 10
28.2001
 20
151.6548
 30
-2.35
  0
POINT
  8
Default
 10
27.231
 20
149.307
 30
-2.35
  0
POINT
  8
Default
 10
26.2619
 20
146.9591
 30
-2.35
  0
POINT
  8
Default
 10
25.2928
 20
144.6113
 30
-2.35
  0
POINT
  8
Default
 10
24.3237
 20
142.2634
 30
-2.35
  0
POINT
  8
Default
 10
23.3545
 20
139.9156
 30
-2.35
  0
POINT
  8
Default
 10
22.3854
 20
137.5677
 30
-2.35
  0
POINT
  8
Default
 10
30.8077
 20
131.3434
 30
-2.35
  0
POINT
  8
Default
 10
29.8386
 20
128.9956
 30
-2.35
  0
POINT
  8
Default
 10
28.8695
 20
126.6477
 30
-2.35
  0
POINT
  8
Default
 10
27.9004
 20
124.2998
 30
-2.35
  0
POINT
  8
Default
 10
26.9313
 20
121.952
 30
-2.35
  0
POINT
  8
Default
 10
25.9622
 20
119.6041
 30
-2.35
  0
POINT
  8
Default
 10
24.993
 20
117.2563
 30
-2.35
  0
POINT
  8
Default
 10
24.0239
 20
114.9084
 30
-2.35
  0
POINT
  8
Default
 10
32.4462
 20
108.6841
 30
-2.35
  0
POINT
  8
Default
 10
31.4771
 20
106.3363
 30
-2.35
  0
POINT
  8
Default
 10
30.508
 20
103.9884
 30
-2.35
  0
POINT
  8
Default
 10
29.5389
 20
101.6406
 30
-2.35
  0
POINT
  8
Default
 10
28.5698
 20
99.2927
 30
-2.35
  0
POINT
  8
Default
 10
27.6007
 20
96.9449
 30
-2.35
  0
POINT
  8
Default
 10
26.6315
 20
94.597
 30
-2.35
  0
POINT
  8
Default
 10
25.6624
 20
92.2491
 30
-2.35
  0
POINT
  8
Default
 10
34.0847
 20
86.0248
 30
-2.35
  0
POINT
  8
Default
 10
33.1156
 20
83.677
 30
-2.35
  0
POINT
  8
Default
 10
32.1465
 20
81.3291
 30
-2.35
  0
POINT
  8
Default
 10
31.1774
 20
78.9813
 30
-2.35
  0
POINT
  8
Default
 10
30.2083
 20
76.6334
 30
-2.35
  0
POINT
  8
Default
 10
29.2392
 20
74.2856
 30
-2.35
  0
POINT
  8
Default
 10
28.2701
 20
71.9377
 30
-2.35
  0
POINT
  8
Default
 10
27.3009
 20
69.5899
 30
-2.35
  0
POINT
  8
Default
 10
35.7232
 20
63.3655
 30
-2.35
  0
POINT
  8
Default
 10
34.7541
 20
61.0177
 30
-2.35
  0
POINT
  8
Default
 10
33.785
 20
58.6698
 30
-2.35
  0
POINT
  8
Default
 10
32.8159
 20
56.322
 30
-2.35
  0
POINT
  8
Default
 10
31.8468
 20
53.9741
 30
-2.35
  0
POINT
  8
Default
 10
30.8777
 20
51.6263
 30
-2.35
  0
POINT
  8
Default
 10
29.9086
 20
49.2784
 30
-2.35
  0
POINT
  8
Default
 10
28.9394
 20
46.9306
 30
-2.35
  0
POINT
  8
Default
 10
37.3617
 20
40.7063
 30
-2.35
  0
POINT
  8
Default
 10
36.3926
 20
38.3584
 30
-2.35
  0
POINT
  8
Default
 10
35.4235
 20
36.0106
 30
-2.35
  0
POINT
  8
Default
 10
34.4544
 20
33.6627
 30
-2.35
  0
POINT
  8
Default
 10
33.4853
 20
31.3148
 30
-2.35
  0
POINT
  8
Default
 10
32.5162
 20
28.967
 30
-2.35
  0
POINT
  8
Default
 10
31.5471
 20
26.6191
 30
-2.35
  0
POINT
  8
Default
 10
30.5779
 20
24.2713
 30
-2.35
  0
POINT
  8
Default
 10
42.3172
 20
19.4257
 30
-2.35
  0
POINT
  8
Default
 10
43.2863
 20
21.7736
 30
-2.35
  0
POINT
  8
Default
 10
44.2554
 20
24.1214
 30
-2.35
  0
POINT
  8
Default
 10
45.2246
 20
26.4693
 30
-2.35
  0
POINT
  8
Default
 10
46.1937
 20
28.8171
 30
-2.35
  0
POINT
  8
Default
 10
47.1628
 20
31.165
 30
-2.35
  0
POINT
  8
Default
 10
48.1319
 20
33.5128
 30
-2.35
  0
POINT
  8
Default
 10
49.101
 20
35.8607
 30
-2.35
  0
POINT
  8
Default
 10
40.6787
 20
42.085
 30
-2.35
  0
POINT
  8
Default
 10
41.6478
 20
44.4329
 30
-2.35
  0
POINT
  8
Default
 10
42.6169
 20
46.7807
 30
-2.35
  0
POINT
  8
Default
 10
43.5861
 20
49.1286
 30
-2.35
  0
POINT
  8
Default
 10
44.5552
 20
51.4764
 30
-2.35
  0
POINT
  8
Default
 10
45.5243
 20
53.8243
 30
-2.35
  0
POINT
  8
Default
 10
46.4934
 20
56.1721
 30
-2.35
  0
POINT
  8
Default
 10
47.4625
 20
58.52
 30
-2.35
  0
POINT
  8
Default
 10
39.0402
 20
64.7443
 30
-2.35
  0
POINT
  8
Default
 10
40.0093
 20
67.0921
 30
-2.35
  0
POINT
  8
Default
 10
40.9784
 20
69.44
 30
-2.35
  0
POINT
  8
Default
 10
41.9475
 20
71.7878
 30
-2.35
  0
POINT
  8
Default
 10
42.9167
 20
74.1357
 30
-2.35
  0
POINT
  8
Default
 10
43.8858
 20
76.4836
 30
-2.35
  0
POINT
  8
Default
 10
44.8549
 20
78.8314
 30
-2.35
  0
POINT
  8
Default
 10
45.824
 20
81.1793
 30
-2.35
  0
POINT
  8
Default
 10
37.4017
 20
87.4036
 30
-2.35
  0
POINT
  8
Default
 10
38.3708
 20
89.7514
 30
-2.35
  0
POINT
  8
Default
 10
39.3399
 20
92.0993
 30
-2.35
  0
POINT
  8
Default
 10
40.309
 20
94.4471
 30
-2.35
  0
POINT
  8
Default
 10
41.2782
 20
96.795
 30
-2.35
  0
POINT
  8
Default
 10
42.2473
 20
99.1428
 30
-2.35
  0
POINT
  8
Default
 10
43.2164
 20
101.4907
 30
-2.35
  0
POINT
  8
Default
 10
44.1855
 20
103.8386
 30
-2.35
  0
POINT
  8
Default
 10
35.7632
 20
110.0629
 30
-2.35
  0
POINT
  8
Default
 10
36.7323
 20
112.4107
 30
-2.35
  0
POINT
  8
Default
 10
37.7014
 20
114.7586
 30
-2.35
  0
POINT
  8
Default
 10
38.6705
 20
117.1064
 30
-2.35
  0
POINT
  8
Default
 10
39.6397
 20
119.4543
 30
-2.35
  0
POINT
  8
Default
 10
40.6088
 20
121.8021
 30
-2.35
  0
POINT
  8
Default
 10
41.5779
 20
124.15
 30
-2.35
  0
POINT
  8
Default
 10
42.547
 20
126.4978
 30
-2.35
  0
POINT
  8
Default
 10
34.1247
 20
132.7221
 30
-2.35
  0
POINT
  8
Default
 10
35.0938
 20
135.07
 30
-2.35
  0
POINT
  8
Default
 10
36.0629
 20
137.4179
 30
-2.35
  0
POINT
  8
Default
 10
37.032
 20
139.7657
 30
-2.35
  0
POINT
  8
Default
 10
38.0012
 20
142.1136
 30
-2.35
  0
POINT
  8
Default
 10
38.9703
 20
144.4614
 30
-2.35
  0
POINT
  8
Default
 10
39.9394
 20
146.8093
 30
-2.35
  0
POINT
  8
Default
 10
40.9085
 20
149.1571
 30
-2.35
  0
POINT
  8
Default
 10
32.4862
 20
155.3814
 30
-2.35
  0
POINT
  8
Default
 10
33.4553
 20
157.7293
 30
-2.35
  0
POINT
  8
Default
 10
34.4244
 20
160.0771
 30
-2.35
  0
POINT
  8
Default
 10
35.3935
 20
162.425
 30
-2.35
  0
POINT
  8
Default
 10
36.3627
 20
164.7729
 30
-2.35
  0
POINT
  8
Default
 10
37.3318
 20
167.1207
 30
-2.35
  0
POINT
  8
Default
 10
38.3009
 20
169.4686
 30
-2.35
  0
POINT
  8
Default
 10
39.27
 20
171.8164
 30
-2.35
  0
POINT
  8
Default
 10
30.8477
 20
178.0407
 30
-2.35
  0
POINT
  8
Default
 10
31.8168
 20
180.3886
 30
-2.35
  0
POINT
  8
Default
 10
32.7859
 20
182.7364
 30
-2.35
  0
POINT
  8
Default
 10
33.755
 20
185.0843
 30
-2.35
  0
POINT
  8
Default
 10
34.7242
 20
187.4321
 30
-2.35
  0
POINT
  8
Default
 10
35.6933
 20
189.78
 30
-2.35
  0
POINT
  8
Default
 10
36.6624
 20
192.1278
 30
-2.35
  0
POINT
  8
Default
 10
37.6315
 20
194.4757
 30
-2.35
  0
ENDSEC
  0
EOF
