  0
SECTION
  2
HEADER
  9
$ACADVER
  1
AC1009
  9
$EXTMAX
 10
171.459899902344
 20
94.8250579833984
 30
0.0
  9
$EXTMIN
 10
4.4549059867859
 20
3.385057926178
 30
0.0
  9
$INSUNITS
 70
     4
  9
$LUNITS
 70
     2
  9
$LUPREC
 70
     4
  9
$MEASUREMENT
 70
     1
  0
ENDSEC
  0
SECTION
  2
TABLES
  0
TABLE
  2
LAYER
 70
     1
  0
LAYER
  2
0
 70
     0
 62
     7
  6
Continuous
  0
LAYER
  2
Default
 70
     0
 62
    70
  6
Continuous
  0
ENDTAB
  0
TABLE
  2
APPID
 70
     1
  0
APPID
  2
ACAD
 70
     0
  0
ENDTAB
  0
ENDSEC
  0
SECTION
  2
ENTITIES
  0
POINT
  8
Default
 10
4.454906
 20
3.385058
 30
0.0
  0
POINT
  8
Default
 10
6.994906
 20
3.385058
 30
0.0
  0
POINT
  8
Default
 10
6.994906
 20
5.925058
 30
0.0
  0
POINT
  8
Default
 10
6.994906
 20
8.465058
 30
0.0
  0
POINT
  8
Default
 10
4.454906
 20
8.465058
 30
0.0
  0
POINT
  8
Default
 10
4.454906
 20
5.925058
 30
0.0
  0
POINT
  8
Default
 10
9.534906
 20
5.925058
 30
0.0
  0
POINT
  8
Default
 10
9.534906
 20
8.465058
 30
0.0
  0
POINT
  8
Default
 10
12.074906
 20
8.465058
 30
0.0
  0
POINT
  8
Default
 10
12.074906
 20
5.925058
 30
0.0
  0
POINT
  8
Default
 10
14.614906
 20
5.925058
 30
0.0
  0
POINT
  8
Default
 10
14.614906
 20
8.465058
 30
0.0
  0
POINT
  8
Default
 10
17.154906
 20
8.465058
 30
0.0
  0
POINT
  8
Default
 10
17.154906
 20
5.925058
 30
0.0
  0
POINT
  8
Default
 10
17.154906
 20
3.385058
 30
0.0
  0
POINT
  8
Default
 10
14.614906
 20
3.385058
 30
0.0
  0
POINT
  8
Default
 10
12.074906
 20
3.385058
 30
0.0
  0
POINT
  8
Default
 10
9.534906
 20
3.385058
 30
0.0
  0
POINT
  8
Default
 10
19.694906
 20
3.385058
 30
0.0
  0
POINT
  8
Default
 10
22.234906
 20
3.385058
 30
0.0
  0
POINT
  8
Default
 10
22.234906
 20
5.925058
 30
0.0
  0
POINT
  8
Default
 10
22.234906
 20
8.465058
 30
0.0
  0
POINT
  8
Default
 10
19.694906
 20
8.465058
 30
0.0
  0
POINT
  8
Default
 10
19.694906
 20
5.925058
 30
0.0
  0
POINT
  8
Default
 10
24.774906
 20
13.545058
 30
0.0
  0
POINT
  8
Default
 10
24.774906
 20
16.085058
 30
0.0
  0
POINT
  8
Default
 10
24.774906
 20
18.625058
 30
0.0
  0
POINT
  8
Default
 10
27.314906
 20
18.625058
 30
0.0
  0
POINT
  8
Default
 10
27.314906
 20
16.085058
 30
0.0
  0
POINT
  8
Default
 10
27.314906
 20
13.545058
 30
0.0
  0
POINT
  8
Default
 10
29.854906
 20
13.545058
 30
0.0
  0
POINT
  8
Default
 10
32.394906
 20
13.545058
 30
0.0
  0
POINT
  8
Default
 10
32.394906
 20
16.085058
 30
0.0
  0
POINT
  8
Default
 10
29.854906
 20
16.085058
 30
0.0
  0
POINT
  8
Default
 10
29.854906
 20
18.625058
 30
0.0
  0
POINT
  8
Default
 10
32.394906
 20
18.625058
 30
0.0
  0
POINT
  8
Default
 10
34.934906
 20
18.625058
 30
0.0
  0
POINT
  8
Default
 10
34.934906
 20
16.085058
 30
0.0
  0
POINT
  8
Default
 10
34.934906
 20
13.545058
 30
0.0
  0
POINT
  8
Default
 10
37.474906
 20
13.545058
 30
0.0
  0
POINT
  8
Default
 10
40.014906
 20
13.545058
 30
0.0
  0
POINT
  8
Default
 10
40.014906
 20
16.085058
 30
0.0
  0
POINT
  8
Default
 10
37.474906
 20
16.085058
 30
0.0
  0
POINT
  8
Default
 10
37.474906
 20
18.625058
 30
0.0
  0
POINT
  8
Default
 10
40.014906
 20
18.625058
 30
0.0
  0
POINT
  8
Default
 10
42.554906
 20
18.625058
 30
0.0
  0
POINT
  8
Default
 10
42.554906
 20
16.085058
 30
0.0
  0
POINT
  8
Default
 10
42.554906
 20
13.545058
 30
0.0
  0
POINT
  8
Default
 10
45.094906
 20
23.705058
 30
0.0
  0
POINT
  8
Default
 10
45.094906
 20
26.245058
 30
0.0
  0
POINT
  8
Default
 10
45.094906
 20
28.785058
 30
0.0
  0
POINT
  8
Default
 10
47.634906
 20
28.785058
 30
0.0
  0
POINT
  8
Default
 10
50.174906
 20
28.785058
 30
0.0
  0
POINT
  8
Default
 10
52.714906
 20
28.785058
 30
0.0
  0
POINT
  8
Default
 10
55.254906
 20
28.785058
 30
0.0
  0
POINT
  8
Default
 10
57.794906
 20
28.785058
 30
0.0
  0
POINT
  8
Default
 10
60.334906
 20
28.785058
 30
0.0
  0
POINT
  8
Default
 10
62.874906
 20
28.785058
 30
0.0
  0
POINT
  8
Default
 10
62.874906
 20
26.245058
 30
0.0
  0
POINT
  8
Default
 10
62.874906
 20
23.705058
 30
0.0
  0
POINT
  8
Default
 10
60.334906
 20
23.705058
 30
0.0
  0
POINT
  8
Default
 10
60.334906
 20
26.245058
 30
0.0
  0
POINT
  8
Default
 10
57.794906
 20
26.245058
 30
0.0
  0
POINT
  8
Default
 10
57.794906
 20
23.705058
 30
0.0
  0
POINT
  8
Default
 10
55.254906
 20
23.705058
 30
0.0
  0
POINT
  8
Default
 10
52.714906
 20
23.705058
 30
0.0
  0
POINT
  8
Default
 10
50.174906
 20
23.705058
 30
0.0
  0
POINT
  8
Default
 10
50.174906
 20
26.245058
 30
0.0
  0
POINT
  8
Default
 10
52.714906
 20
26.245058
 30
0.0
  0
POINT
  8
Default
 10
55.254906
 20
26.245058
 30
0.0
  0
POINT
  8
Default
 10
47.634906
 20
26.245058
 30
0.0
  0
POINT
  8
Default
 10
47.634906
 20
23.705058
 30
0.0
  0
POINT
  8
Default
 10
42.554906
 20
31.325058
 30
0.0
  0
POINT
  8
Default
 10
40.014906
 20
31.325058
 30
0.0
  0
POINT
  8
Default
 10
37.474906
 20
31.325058
 30
0.0
  0
POINT
  8
Default
 10
34.934906
 20
31.325058
 30
0.0
  0
POINT
  8
Default
 10
32.394906
 20
31.325058
 30
0.0
  0
POINT
  8
Default
 10
29.854906
 20
31.325058
 30
0.0
  0
POINT
  8
Default
 10
27.314906
 20
31.325058
 30
0.0
  0
POINT
  8
Default
 10
24.774906
 20
31.325058
 30
0.0
  0
POINT
  8
Default
 10
22.234906
 20
21.165058
 30
0.0
  0
POINT
  8
Default
 10
19.694906
 20
21.165058
 30
0.0
  0
POINT
  8
Default
 10
17.154906
 20
21.165058
 30
0.0
  0
POINT
  8
Default
 10
14.614906
 20
21.165058
 30
0.0
  0
POINT
  8
Default
 10
12.074906
 20
21.165058
 30
0.0
  0
POINT
  8
Default
 10
9.534906
 20
21.165058
 30
0.0
  0
POINT
  8
Default
 10
6.994906
 20
21.165058
 30
0.0
  0
POINT
  8
Default
 10
4.454906
 20
21.165058
 30
0.0
  0
POINT
  8
Default
 10
45.094906
 20
41.485058
 30
0.0
  0
POINT
  8
Default
 10
47.634906
 20
41.485058
 30
0.0
  0
POINT
  8
Default
 10
50.174906
 20
41.485058
 30
0.0
  0
POINT
  8
Default
 10
52.714906
 20
41.485058
 30
0.0
  0
POINT
  8
Default
 10
55.254906
 20
41.485058
 30
0.0
  0
POINT
  8
Default
 10
57.794906
 20
41.485058
 30
0.0
  0
POINT
  8
Default
 10
60.334906
 20
41.485058
 30
0.0
  0
POINT
  8
Default
 10
62.874906
 20
41.485058
 30
0.0
  0
POINT
  8
Default
 10
65.414906
 20
38.945058
 30
0.0
  0
POINT
  8
Default
 10
67.954906
 20
38.945058
 30
0.0
  0
POINT
  8
Default
 10
67.954906
 20
36.405058
 30
0.0
  0
POINT
  8
Default
 10
65.414906
 20
36.405058
 30
0.0
  0
POINT
  8
Default
 10
65.414906
 20
33.865058
 30
0.0
  0
POINT
  8
Default
 10
67.954906
 20
33.865058
 30
0.0
  0
POINT
  8
Default
 10
70.494906
 20
33.865058
 30
0.0
  0
POINT
  8
Default
 10
70.494906
 20
36.405058
 30
0.0
  0
POINT
  8
Default
 10
70.494906
 20
38.945058
 30
0.0
  0
POINT
  8
Default
 10
73.034906
 20
38.945058
 30
0.0
  0
POINT
  8
Default
 10
73.034906
 20
36.405058
 30
0.0
  0
POINT
  8
Default
 10
75.574906
 20
36.405058
 30
0.0
  0
POINT
  8
Default
 10
75.574906
 20
38.945058
 30
0.0
  0
POINT
  8
Default
 10
78.114906
 20
38.945058
 30
0.0
  0
POINT
  8
Default
 10
80.654906
 20
38.945058
 30
0.0
  0
POINT
  8
Default
 10
80.654906
 20
36.405058
 30
0.0
  0
POINT
  8
Default
 10
78.114906
 20
36.405058
 30
0.0
  0
POINT
  8
Default
 10
78.114906
 20
33.865058
 30
0.0
  0
POINT
  8
Default
 10
80.654906
 20
33.865058
 30
0.0
  0
POINT
  8
Default
 10
83.194906
 20
33.865058
 30
0.0
  0
POINT
  8
Default
 10
83.194906
 20
36.405058
 30
0.0
  0
POINT
  8
Default
 10
83.194906
 20
38.945058
 30
0.0
  0
POINT
  8
Default
 10
85.734906
 20
44.025058
 30
0.0
  0
POINT
  8
Default
 10
85.734906
 20
46.565058
 30
0.0
  0
POINT
  8
Default
 10
85.734906
 20
49.105058
 30
0.0
  0
POINT
  8
Default
 10
88.274906
 20
49.105058
 30
0.0
  0
POINT
  8
Default
 10
90.814906
 20
49.105058
 30
0.0
  0
POINT
  8
Default
 10
93.354906
 20
49.105058
 30
0.0
  0
POINT
  8
Default
 10
95.894906
 20
49.105058
 30
0.0
  0
POINT
  8
Default
 10
98.434906
 20
49.105058
 30
0.0
  0
POINT
  8
Default
 10
100.974906
 20
49.105058
 30
0.0
  0
POINT
  8
Default
 10
103.514906
 20
49.105058
 30
0.0
  0
POINT
  8
Default
 10
103.514906
 20
46.565058
 30
0.0
  0
POINT
  8
Default
 10
100.974906
 20
46.565058
 30
0.0
  0
POINT
  8
Default
 10
100.974906
 20
44.025058
 30
0.0
  0
POINT
  8
Default
 10
103.514906
 20
44.025058
 30
0.0
  0
POINT
  8
Default
 10
98.434906
 20
44.025058
 30
0.0
  0
POINT
  8
Default
 10
98.434906
 20
46.565058
 30
0.0
  0
POINT
  8
Default
 10
95.894906
 20
46.565058
 30
0.0
  0
POINT
  8
Default
 10
95.894906
 20
44.025058
 30
0.0
  0
POINT
  8
Default
 10
93.354906
 20
44.025058
 30
0.0
  0
POINT
  8
Default
 10
90.814906
 20
44.025058
 30
0.0
  0
POINT
  8
Default
 10
90.814906
 20
46.565058
 30
0.0
  0
POINT
  8
Default
 10
93.354906
 20
46.565058
 30
0.0
  0
POINT
  8
Default
 10
88.274906
 20
46.565058
 30
0.0
  0
POINT
  8
Default
 10
88.274906
 20
44.025058
 30
0.0
  0
POINT
  8
Default
 10
83.194906
 20
51.645058
 30
0.0
  0
POINT
  8
Default
 10
80.654906
 20
51.645058
 30
0.0
  0
POINT
  8
Default
 10
78.114906
 20
51.645058
 30
0.0
  0
POINT
  8
Default
 10
75.574906
 20
51.645058
 30
0.0
  0
POINT
  8
Default
 10
73.034906
 20
51.645058
 30
0.0
  0
POINT
  8
Default
 10
70.494906
 20
51.645058
 30
0.0
  0
POINT
  8
Default
 10
67.954906
 20
51.645058
 30
0.0
  0
POINT
  8
Default
 10
65.414906
 20
51.645058
 30
0.0
  0
POINT
  8
Default
 10
73.034906
 20
33.865058
 30
0.0
  0
POINT
  8
Default
 10
75.574906
 20
33.865058
 30
0.0
  0
POINT
  8
Default
 10
85.734906
 20
61.805058
 30
0.0
  0
POINT
  8
Default
 10
88.274906
 20
61.805058
 30
0.0
  0
POINT
  8
Default
 10
90.814906
 20
61.805058
 30
0.0
  0
POINT
  8
Default
 10
93.354906
 20
61.805058
 30
0.0
  0
POINT
  8
Default
 10
95.894906
 20
61.805058
 30
0.0
  0
POINT
  8
Default
 10
98.434906
 20
61.805058
 30
0.0
  0
POINT
  8
Default
 10
100.974906
 20
61.805058
 30
0.0
  0
POINT
  8
Default
 10
103.514906
 20
61.805058
 30
0.0
  0
POINT
  8
Default
 10
106.054906
 20
59.265058
 30
0.0
  0
POINT
  8
Default
 10
106.054906
 20
56.725058
 30
0.0
  0
POINT
  8
Default
 10
106.054906
 20
54.185058
 30
0.0
  0
POINT
  8
Default
 10
108.594906
 20
54.185058
 30
0.0
  0
POINT
  8
Default
 10
111.134906
 20
54.185058
 30
0.0
  0
POINT
  8
Default
 10
113.674906
 20
54.185058
 30
0.0
  0
POINT
  8
Default
 10
113.674906
 20
56.725058
 30
0.0
  0
POINT
  8
Default
 10
111.134906
 20
56.725058
 30
0.0
  0
POINT
  8
Default
 10
108.594906
 20
56.725058
 30
0.0
  0
POINT
  8
Default
 10
108.594906
 20
59.265058
 30
0.0
  0
POINT
  8
Default
 10
111.134906
 20
59.265058
 30
0.0
  0
POINT
  8
Default
 10
113.674906
 20
59.265058
 30
0.0
  0
POINT
  8
Default
 10
116.214906
 20
59.265058
 30
0.0
  0
POINT
  8
Default
 10
118.754906
 20
59.265058
 30
0.0
  0
POINT
  8
Default
 10
118.754906
 20
56.725058
 30
0.0
  0
POINT
  8
Default
 10
116.214906
 20
56.725058
 30
0.0
  0
POINT
  8
Default
 10
116.214906
 20
54.185058
 30
0.0
  0
POINT
  8
Default
 10
118.754906
 20
54.185058
 30
0.0
  0
POINT
  8
Default
 10
121.294906
 20
54.185058
 30
0.0
  0
POINT
  8
Default
 10
123.834906
 20
54.185058
 30
0.0
  0
POINT
  8
Default
 10
123.834906
 20
56.725058
 30
0.0
  0
POINT
  8
Default
 10
121.294906
 20
56.725058
 30
0.0
  0
POINT
  8
Default
 10
121.294906
 20
59.265058
 30
0.0
  0
POINT
  8
Default
 10
123.834906
 20
59.265058
 30
0.0
  0
POINT
  8
Default
 10
126.374906
 20
64.345058
 30
0.0
  0
POINT
  8
Default
 10
126.374906
 20
66.885058
 30
0.0
  0
POINT
  8
Default
 10
126.374906
 20
69.425058
 30
0.0
  0
POINT
  8
Default
 10
128.914906
 20
69.425058
 30
0.0
  0
POINT
  8
Default
 10
131.454906
 20
69.425058
 30
0.0
  0
POINT
  8
Default
 10
131.454906
 20
66.885058
 30
0.0
  0
POINT
  8
Default
 10
128.914906
 20
66.885058
 30
0.0
  0
POINT
  8
Default
 10
128.914906
 20
64.345058
 30
0.0
  0
POINT
  8
Default
 10
131.454906
 20
64.345058
 30
0.0
  0
POINT
  8
Default
 10
133.994906
 20
64.345058
 30
0.0
  0
POINT
  8
Default
 10
136.534906
 20
64.345058
 30
0.0
  0
POINT
  8
Default
 10
139.074906
 20
64.345058
 30
0.0
  0
POINT
  8
Default
 10
139.074906
 20
66.885058
 30
0.0
  0
POINT
  8
Default
 10
136.534906
 20
66.885058
 30
0.0
  0
POINT
  8
Default
 10
133.994906
 20
66.885058
 30
0.0
  0
POINT
  8
Default
 10
133.994906
 20
69.425058
 30
0.0
  0
POINT
  8
Default
 10
136.534906
 20
69.425058
 30
0.0
  0
POINT
  8
Default
 10
139.074906
 20
69.425058
 30
0.0
  0
POINT
  8
Default
 10
141.614906
 20
69.425058
 30
0.0
  0
POINT
  8
Default
 10
144.154906
 20
69.425058
 30
0.0
  0
POINT
  8
Default
 10
144.154906
 20
66.885058
 30
0.0
  0
POINT
  8
Default
 10
141.614906
 20
66.885058
 30
0.0
  0
POINT
  8
Default
 10
141.614906
 20
64.345058
 30
0.0
  0
POINT
  8
Default
 10
144.154906
 20
64.345058
 30
0.0
  0
POINT
  8
Default
 10
146.694906
 20
74.505058
 30
0.0
  0
POINT
  8
Default
 10
149.234906
 20
74.505058
 30
0.0
  0
POINT
  8
Default
 10
151.774906
 20
74.505058
 30
0.0
  0
POINT
  8
Default
 10
151.774906
 20
77.045058
 30
0.0
  0
POINT
  8
Default
 10
149.234906
 20
77.045058
 30
0.0
  0
POINT
  8
Default
 10
146.694906
 20
77.045058
 30
0.0
  0
POINT
  8
Default
 10
146.694906
 20
79.585058
 30
0.0
  0
POINT
  8
Default
 10
149.234906
 20
79.585058
 30
0.0
  0
POINT
  8
Default
 10
151.774906
 20
79.585058
 30
0.0
  0
POINT
  8
Default
 10
154.314906
 20
79.585058
 30
0.0
  0
POINT
  8
Default
 10
156.854906
 20
79.585058
 30
0.0
  0
POINT
  8
Default
 10
156.854906
 20
77.045058
 30
0.0
  0
POINT
  8
Default
 10
154.314906
 20
77.045058
 30
0.0
  0
POINT
  8
Default
 10
154.314906
 20
74.505058
 30
0.0
  0
POINT
  8
Default
 10
156.854906
 20
74.505058
 30
0.0
  0
POINT
  8
Default
 10
159.394906
 20
74.505058
 30
0.0
  0
POINT
  8
Default
 10
161.934906
 20
74.505058
 30
0.0
  0
POINT
  8
Default
 10
164.474906
 20
74.505058
 30
0.0
  0
POINT
  8
Default
 10
164.474906
 20
77.045058
 30
0.0
  0
POINT
  8
Default
 10
161.934906
 20
77.045058
 30
0.0
  0
POINT
  8
Default
 10
159.394906
 20
77.045058
 30
0.0
  0
POINT
  8
Default
 10
159.394906
 20
79.585058
 30
0.0
  0
POINT
  8
Default
 10
161.934906
 20
79.585058
 30
0.0
  0
POINT
  8
Default
 10
164.474906
 20
79.585058
 30
0.0
  0
POINT
  8
Default
 10
171.459906
 20
80.220058
 30
0.0
  0
POINT
  8
Default
 10
171.459906
 20
82.760058
 30
0.0
  0
POINT
  8
Default
 10
171.459906
 20
77.680058
 30
0.0
  0
POINT
  8
Default
 10
171.459906
 20
75.140058
 30
0.0
  0
POINT
  8
Default
 10
171.459906
 20
72.600058
 30
0.0
  0
POINT
  8
Default
 10
171.459906
 20
70.060058
 30
0.0
  0
POINT
  8
Default
 10
171.459906
 20
67.520058
 30
0.0
  0
POINT
  8
Default
 10
171.459906
 20
64.980058
 30
0.0
  0
POINT
  8
Default
 10
164.474906
 20
92.285058
 30
0.0
  0
POINT
  8
Default
 10
161.934906
 20
92.285058
 30
0.0
  0
POINT
  8
Default
 10
159.394906
 20
92.285058
 30
0.0
  0
POINT
  8
Default
 10
159.394906
 20
94.825058
 30
0.0
  0
POINT
  8
Default
 10
161.934906
 20
94.825058
 30
0.0
  0
POINT
  8
Default
 10
164.474906
 20
94.825058
 30
0.0
  0
POINT
  8
Default
 10
156.854906
 20
94.825058
 30
0.0
  0
POINT
  8
Default
 10
154.314906
 20
94.825058
 30
0.0
  0
POINT
  8
Default
 10
154.314906
 20
92.285058
 30
0.0
  0
POINT
  8
Default
 10
156.854906
 20
92.285058
 30
0.0
  0
POINT
  8
Default
 10
151.774906
 20
92.285058
 30
0.0
  0
POINT
  8
Default
 10
149.234906
 20
92.285058
 30
0.0
  0
POINT
  8
Default
 10
146.694906
 20
92.285058
 30
0.0
  0
POINT
  8
Default
 10
146.694906
 20
94.825058
 30
0.0
  0
POINT
  8
Default
 10
149.234906
 20
94.825058
 30
0.0
  0
POINT
  8
Default
 10
151.774906
 20
94.825058
 30
0.0
  0
POINT
  8
Default
 10
144.154906
 20
82.125058
 30
0.0
  0
POINT
  8
Default
 10
141.614906
 20
82.125058
 30
0.0
  0
POINT
  8
Default
 10
139.074906
 20
82.125058
 30
0.0
  0
POINT
  8
Default
 10
136.534906
 20
82.125058
 30
0.0
  0
POINT
  8
Default
 10
133.994906
 20
82.125058
 30
0.0
  0
POINT
  8
Default
 10
131.454906
 20
82.125058
 30
0.0
  0
POINT
  8
Default
 10
128.914906
 20
82.125058
 30
0.0
  0
POINT
  8
Default
 10
126.374906
 20
82.125058
 30
0.0
  0
POINT
  8
Default
 10
123.834906
 20
71.965058
 30
0.0
  0
POINT
  8
Default
 10
121.294906
 20
71.965058
 30
0.0
  0
POINT
  8
Default
 10
118.754906
 20
71.965058
 30
0.0
  0
POINT
  8
Default
 10
116.214906
 20
71.965058
 30
0.0
  0
POINT
  8
Default
 10
113.674906
 20
71.965058
 30
0.0
  0
POINT
  8
Default
 10
111.134906
 20
71.965058
 30
0.0
  0
POINT
  8
Default
 10
108.594906
 20
71.965058
 30
0.0
  0
POINT
  8
Default
 10
106.054906
 20
71.965058
 30
0.0
  0
ENDSEC
  0
EOF
