  0
SECTION
  2
HEADER
  9
$ACADVER
  1
AC1009
  9
$EXTMAX
 10
171.460006713867
 20
94.8249969482422
 30
0.0
  9
$EXTMIN
 10
4.4549999237061
 20
3.3849999904633
 30
0.0
  9
$INSUNITS
 70
     4
  9
$LUNITS
 70
     2
  9
$LUPREC
 70
     4
  9
$MEASUREMENT
 70
     1
  0
ENDSEC
  0
SECTION
  2
TABLES
  0
TABLE
  2
LAYER
 70
     1
  0
LAYER
  2
0
 70
     0
 62
     7
  6
Continuous
  0
LAYER
  2
Default
 70
     0
 62
    70
  6
Continuous
  0
ENDTAB
  0
TABLE
  2
APPID
 70
     1
  0
APPID
  2
ACAD
 70
     0
  0
ENDTAB
  0
ENDSEC
  0
SECTION
  2
ENTITIES
  0
POINT
  8
Default
 10
4.455
 20
3.385
 30
0.0
  0
POINT
  8
Default
 10
4.455
 20
5.925
 30
0.0
  0
POINT
  8
Default
 10
4.455
 20
8.465
 30
0.0
  0
POINT
  8
Default
 10
6.995
 20
8.465
 30
0.0
  0
POINT
  8
Default
 10
9.535
 20
8.465
 30
0.0
  0
POINT
  8
Default
 10
9.535
 20
5.925
 30
0.0
  0
POINT
  8
Default
 10
6.995
 20
5.925
 30
0.0
  0
POINT
  8
Default
 10
6.995
 20
3.385
 30
0.0
  0
POINT
  8
Default
 10
9.535
 20
3.385
 30
0.0
  0
POINT
  8
Default
 10
12.075
 20
3.385
 30
0.0
  0
POINT
  8
Default
 10
14.615
 20
3.385
 30
0.0
  0
POINT
  8
Default
 10
17.155
 20
3.385
 30
0.0
  0
POINT
  8
Default
 10
19.695
 20
3.385
 30
0.0
  0
POINT
  8
Default
 10
19.695
 20
5.925
 30
0.0
  0
POINT
  8
Default
 10
17.155
 20
5.925
 30
0.0
  0
POINT
  8
Default
 10
14.615
 20
5.925
 30
0.0
  0
POINT
  8
Default
 10
12.075
 20
5.925
 30
0.0
  0
POINT
  8
Default
 10
12.075
 20
8.465
 30
0.0
  0
POINT
  8
Default
 10
14.615
 20
8.465
 30
0.0
  0
POINT
  8
Default
 10
17.155
 20
8.465
 30
0.0
  0
POINT
  8
Default
 10
19.695
 20
8.465
 30
0.0
  0
POINT
  8
Default
 10
22.235
 20
8.465
 30
0.0
  0
POINT
  8
Default
 10
22.235
 20
5.925
 30
0.0
  0
POINT
  8
Default
 10
22.235
 20
3.385
 30
0.0
  0
POINT
  8
Default
 10
24.775
 20
13.545
 30
0.0
  0
POINT
  8
Default
 10
27.315
 20
13.545
 30
0.0
  0
POINT
  8
Default
 10
27.315
 20
16.085
 30
0.0
  0
POINT
  8
Default
 10
24.775
 20
16.085
 30
0.0
  0
POINT
  8
Default
 10
24.775
 20
18.625
 30
0.0
  0
POINT
  8
Default
 10
27.315
 20
18.625
 30
0.0
  0
POINT
  8
Default
 10
29.855
 20
18.625
 30
0.0
  0
POINT
  8
Default
 10
32.395
 20
18.625
 30
0.0
  0
POINT
  8
Default
 10
32.395
 20
16.085
 30
0.0
  0
POINT
  8
Default
 10
29.855
 20
16.085
 30
0.0
  0
POINT
  8
Default
 10
29.855
 20
13.545
 30
0.0
  0
POINT
  8
Default
 10
32.395
 20
13.545
 30
0.0
  0
POINT
  8
Default
 10
34.935
 20
13.545
 30
0.0
  0
POINT
  8
Default
 10
37.475
 20
13.545
 30
0.0
  0
POINT
  8
Default
 10
37.475
 20
16.085
 30
0.0
  0
POINT
  8
Default
 10
34.935
 20
16.085
 30
0.0
  0
POINT
  8
Default
 10
34.935
 20
18.625
 30
0.0
  0
POINT
  8
Default
 10
37.475
 20
18.625
 30
0.0
  0
POINT
  8
Default
 10
40.015
 20
18.625
 30
0.0
  0
POINT
  8
Default
 10
40.015
 20
16.085
 30
0.0
  0
POINT
  8
Default
 10
40.015
 20
13.545
 30
0.0
  0
POINT
  8
Default
 10
42.555
 20
13.545
 30
0.0
  0
POINT
  8
Default
 10
42.555
 20
16.085
 30
0.0
  0
POINT
  8
Default
 10
42.555
 20
18.625
 30
0.0
  0
POINT
  8
Default
 10
45.095
 20
23.705
 30
0.0
  0
POINT
  8
Default
 10
45.095
 20
26.245
 30
0.0
  0
POINT
  8
Default
 10
45.095
 20
28.785
 30
0.0
  0
POINT
  8
Default
 10
47.635
 20
28.785
 30
0.0
  0
POINT
  8
Default
 10
50.175
 20
28.785
 30
0.0
  0
POINT
  8
Default
 10
52.715
 20
28.785
 30
0.0
  0
POINT
  8
Default
 10
55.255
 20
28.785
 30
0.0
  0
POINT
  8
Default
 10
57.795
 20
28.785
 30
0.0
  0
POINT
  8
Default
 10
60.335
 20
28.785
 30
0.0
  0
POINT
  8
Default
 10
62.875
 20
28.785
 30
0.0
  0
POINT
  8
Default
 10
62.875
 20
26.245
 30
0.0
  0
POINT
  8
Default
 10
62.875
 20
23.705
 30
0.0
  0
POINT
  8
Default
 10
60.335
 20
23.705
 30
0.0
  0
POINT
  8
Default
 10
57.795
 20
23.705
 30
0.0
  0
POINT
  8
Default
 10
57.795
 20
26.245
 30
0.0
  0
POINT
  8
Default
 10
60.335
 20
26.245
 30
0.0
  0
POINT
  8
Default
 10
55.255
 20
26.245
 30
0.0
  0
POINT
  8
Default
 10
55.255
 20
23.705
 30
0.0
  0
POINT
  8
Default
 10
52.715
 20
23.705
 30
0.0
  0
POINT
  8
Default
 10
52.715
 20
26.245
 30
0.0
  0
POINT
  8
Default
 10
50.175
 20
26.245
 30
0.0
  0
POINT
  8
Default
 10
50.175
 20
23.705
 30
0.0
  0
POINT
  8
Default
 10
47.635
 20
23.705
 30
0.0
  0
POINT
  8
Default
 10
47.635
 20
26.245
 30
0.0
  0
POINT
  8
Default
 10
42.555
 20
31.325
 30
0.0
  0
POINT
  8
Default
 10
40.015
 20
31.325
 30
0.0
  0
POINT
  8
Default
 10
37.475
 20
31.325
 30
0.0
  0
POINT
  8
Default
 10
34.935
 20
31.325
 30
0.0
  0
POINT
  8
Default
 10
32.395
 20
31.325
 30
0.0
  0
POINT
  8
Default
 10
29.855
 20
31.325
 30
0.0
  0
POINT
  8
Default
 10
27.315
 20
31.325
 30
0.0
  0
POINT
  8
Default
 10
24.775
 20
31.325
 30
0.0
  0
POINT
  8
Default
 10
22.235
 20
21.165
 30
0.0
  0
POINT
  8
Default
 10
19.695
 20
21.165
 30
0.0
  0
POINT
  8
Default
 10
17.155
 20
21.165
 30
0.0
  0
POINT
  8
Default
 10
14.615
 20
21.165
 30
0.0
  0
POINT
  8
Default
 10
12.075
 20
21.165
 30
0.0
  0
POINT
  8
Default
 10
9.535
 20
21.165
 30
0.0
  0
POINT
  8
Default
 10
6.995
 20
21.165
 30
0.0
  0
POINT
  8
Default
 10
4.455
 20
21.165
 30
0.0
  0
POINT
  8
Default
 10
45.095
 20
41.485
 30
0.0
  0
POINT
  8
Default
 10
47.635
 20
41.485
 30
0.0
  0
POINT
  8
Default
 10
50.175
 20
41.485
 30
0.0
  0
POINT
  8
Default
 10
52.715
 20
41.485
 30
0.0
  0
POINT
  8
Default
 10
55.255
 20
41.485
 30
0.0
  0
POINT
  8
Default
 10
57.795
 20
41.485
 30
0.0
  0
POINT
  8
Default
 10
60.335
 20
41.485
 30
0.0
  0
POINT
  8
Default
 10
62.875
 20
41.485
 30
0.0
  0
POINT
  8
Default
 10
65.415
 20
38.945
 30
0.0
  0
POINT
  8
Default
 10
65.415
 20
36.405
 30
0.0
  0
POINT
  8
Default
 10
67.955
 20
36.405
 30
0.0
  0
POINT
  8
Default
 10
67.955
 20
38.945
 30
0.0
  0
POINT
  8
Default
 10
70.495
 20
38.945
 30
0.0
  0
POINT
  8
Default
 10
73.035
 20
38.945
 30
0.0
  0
POINT
  8
Default
 10
73.035
 20
36.405
 30
0.0
  0
POINT
  8
Default
 10
70.495
 20
36.405
 30
0.0
  0
POINT
  8
Default
 10
70.495
 20
33.865
 30
0.0
  0
POINT
  8
Default
 10
73.035
 20
33.865
 30
0.0
  0
POINT
  8
Default
 10
75.575
 20
33.865
 30
0.0
  0
POINT
  8
Default
 10
78.115
 20
33.865
 30
0.0
  0
POINT
  8
Default
 10
78.115
 20
36.405
 30
0.0
  0
POINT
  8
Default
 10
78.115
 20
38.945
 30
0.0
  0
POINT
  8
Default
 10
80.655
 20
38.945
 30
0.0
  0
POINT
  8
Default
 10
80.655
 20
36.405
 30
0.0
  0
POINT
  8
Default
 10
83.195
 20
36.405
 30
0.0
  0
POINT
  8
Default
 10
83.195
 20
38.945
 30
0.0
  0
POINT
  8
Default
 10
83.195
 20
33.865
 30
0.0
  0
POINT
  8
Default
 10
80.655
 20
33.865
 30
0.0
  0
POINT
  8
Default
 10
75.575
 20
36.405
 30
0.0
  0
POINT
  8
Default
 10
75.575
 20
38.945
 30
0.0
  0
POINT
  8
Default
 10
67.955
 20
33.865
 30
0.0
  0
POINT
  8
Default
 10
65.415
 20
33.865
 30
0.0
  0
POINT
  8
Default
 10
65.415
 20
51.645
 30
0.0
  0
POINT
  8
Default
 10
67.955
 20
51.645
 30
0.0
  0
POINT
  8
Default
 10
70.495
 20
51.645
 30
0.0
  0
POINT
  8
Default
 10
73.035
 20
51.645
 30
0.0
  0
POINT
  8
Default
 10
75.575
 20
51.645
 30
0.0
  0
POINT
  8
Default
 10
78.115
 20
51.645
 30
0.0
  0
POINT
  8
Default
 10
80.655
 20
51.645
 30
0.0
  0
POINT
  8
Default
 10
83.195
 20
51.645
 30
0.0
  0
POINT
  8
Default
 10
85.735
 20
49.105
 30
0.0
  0
POINT
  8
Default
 10
88.275
 20
49.105
 30
0.0
  0
POINT
  8
Default
 10
90.815
 20
49.105
 30
0.0
  0
POINT
  8
Default
 10
93.355
 20
49.105
 30
0.0
  0
POINT
  8
Default
 10
95.895
 20
49.105
 30
0.0
  0
POINT
  8
Default
 10
98.435
 20
49.105
 30
0.0
  0
POINT
  8
Default
 10
100.975
 20
49.105
 30
0.0
  0
POINT
  8
Default
 10
103.515
 20
49.105
 30
0.0
  0
POINT
  8
Default
 10
103.515
 20
46.565
 30
0.0
  0
POINT
  8
Default
 10
103.515
 20
44.025
 30
0.0
  0
POINT
  8
Default
 10
100.975
 20
44.025
 30
0.0
  0
POINT
  8
Default
 10
100.975
 20
46.565
 30
0.0
  0
POINT
  8
Default
 10
98.435
 20
46.565
 30
0.0
  0
POINT
  8
Default
 10
95.895
 20
46.565
 30
0.0
  0
POINT
  8
Default
 10
95.895
 20
44.025
 30
0.0
  0
POINT
  8
Default
 10
98.435
 20
44.025
 30
0.0
  0
POINT
  8
Default
 10
93.355
 20
44.025
 30
0.0
  0
POINT
  8
Default
 10
93.355
 20
46.565
 30
0.0
  0
POINT
  8
Default
 10
90.815
 20
46.565
 30
0.0
  0
POINT
  8
Default
 10
90.815
 20
44.025
 30
0.0
  0
POINT
  8
Default
 10
88.275
 20
44.025
 30
0.0
  0
POINT
  8
Default
 10
88.275
 20
46.565
 30
0.0
  0
POINT
  8
Default
 10
85.735
 20
46.565
 30
0.0
  0
POINT
  8
Default
 10
85.735
 20
44.025
 30
0.0
  0
POINT
  8
Default
 10
85.735
 20
61.805
 30
0.0
  0
POINT
  8
Default
 10
88.275
 20
61.805
 30
0.0
  0
POINT
  8
Default
 10
90.815
 20
61.805
 30
0.0
  0
POINT
  8
Default
 10
93.355
 20
61.805
 30
0.0
  0
POINT
  8
Default
 10
95.895
 20
61.805
 30
0.0
  0
POINT
  8
Default
 10
98.435
 20
61.805
 30
0.0
  0
POINT
  8
Default
 10
100.975
 20
61.805
 30
0.0
  0
POINT
  8
Default
 10
103.515
 20
61.805
 30
0.0
  0
POINT
  8
Default
 10
106.055
 20
59.265
 30
0.0
  0
POINT
  8
Default
 10
108.595
 20
59.265
 30
0.0
  0
POINT
  8
Default
 10
108.595
 20
56.725
 30
0.0
  0
POINT
  8
Default
 10
106.055
 20
56.725
 30
0.0
  0
POINT
  8
Default
 10
106.055
 20
54.185
 30
0.0
  0
POINT
  8
Default
 10
108.595
 20
54.185
 30
0.0
  0
POINT
  8
Default
 10
111.135
 20
54.185
 30
0.0
  0
POINT
  8
Default
 10
113.675
 20
54.185
 30
0.0
  0
POINT
  8
Default
 10
113.675
 20
56.725
 30
0.0
  0
POINT
  8
Default
 10
111.135
 20
56.725
 30
0.0
  0
POINT
  8
Default
 10
111.135
 20
59.265
 30
0.0
  0
POINT
  8
Default
 10
113.675
 20
59.265
 30
0.0
  0
POINT
  8
Default
 10
116.215
 20
59.265
 30
0.0
  0
POINT
  8
Default
 10
118.755
 20
59.265
 30
0.0
  0
POINT
  8
Default
 10
121.295
 20
59.265
 30
0.0
  0
POINT
  8
Default
 10
121.295
 20
56.725
 30
0.0
  0
POINT
  8
Default
 10
118.755
 20
56.725
 30
0.0
  0
POINT
  8
Default
 10
116.215
 20
56.725
 30
0.0
  0
POINT
  8
Default
 10
116.215
 20
54.185
 30
0.0
  0
POINT
  8
Default
 10
118.755
 20
54.185
 30
0.0
  0
POINT
  8
Default
 10
121.295
 20
54.185
 30
0.0
  0
POINT
  8
Default
 10
123.835
 20
54.185
 30
0.0
  0
POINT
  8
Default
 10
123.835
 20
56.725
 30
0.0
  0
POINT
  8
Default
 10
123.835
 20
59.265
 30
0.0
  0
POINT
  8
Default
 10
126.375
 20
64.345
 30
0.0
  0
POINT
  8
Default
 10
126.375
 20
66.885
 30
0.0
  0
POINT
  8
Default
 10
126.375
 20
69.425
 30
0.0
  0
POINT
  8
Default
 10
128.915
 20
69.425
 30
0.0
  0
POINT
  8
Default
 10
131.455
 20
69.425
 30
0.0
  0
POINT
  8
Default
 10
133.995
 20
69.425
 30
0.0
  0
POINT
  8
Default
 10
133.995
 20
66.885
 30
0.0
  0
POINT
  8
Default
 10
131.455
 20
66.885
 30
0.0
  0
POINT
  8
Default
 10
128.915
 20
66.885
 30
0.0
  0
POINT
  8
Default
 10
128.915
 20
64.345
 30
0.0
  0
POINT
  8
Default
 10
131.455
 20
64.345
 30
0.0
  0
POINT
  8
Default
 10
133.995
 20
64.345
 30
0.0
  0
POINT
  8
Default
 10
136.535
 20
64.345
 30
0.0
  0
POINT
  8
Default
 10
136.535
 20
66.885
 30
0.0
  0
POINT
  8
Default
 10
139.075
 20
66.885
 30
0.0
  0
POINT
  8
Default
 10
139.075
 20
64.345
 30
0.0
  0
POINT
  8
Default
 10
141.615
 20
64.345
 30
0.0
  0
POINT
  8
Default
 10
141.615
 20
66.885
 30
0.0
  0
POINT
  8
Default
 10
144.155
 20
66.885
 30
0.0
  0
POINT
  8
Default
 10
144.155
 20
64.345
 30
0.0
  0
POINT
  8
Default
 10
144.155
 20
69.425
 30
0.0
  0
POINT
  8
Default
 10
141.615
 20
69.425
 30
0.0
  0
POINT
  8
Default
 10
139.075
 20
69.425
 30
0.0
  0
POINT
  8
Default
 10
136.535
 20
69.425
 30
0.0
  0
POINT
  8
Default
 10
146.695
 20
74.505
 30
0.0
  0
POINT
  8
Default
 10
146.695
 20
77.045
 30
0.0
  0
POINT
  8
Default
 10
146.695
 20
79.585
 30
0.0
  0
POINT
  8
Default
 10
149.235
 20
79.585
 30
0.0
  0
POINT
  8
Default
 10
151.775
 20
79.585
 30
0.0
  0
POINT
  8
Default
 10
151.775
 20
77.045
 30
0.0
  0
POINT
  8
Default
 10
149.235
 20
77.045
 30
0.0
  0
POINT
  8
Default
 10
149.235
 20
74.505
 30
0.0
  0
POINT
  8
Default
 10
151.775
 20
74.505
 30
0.0
  0
POINT
  8
Default
 10
154.315
 20
74.505
 30
0.0
  0
POINT
  8
Default
 10
156.855
 20
74.505
 30
0.0
  0
POINT
  8
Default
 10
159.395
 20
74.505
 30
0.0
  0
POINT
  8
Default
 10
159.395
 20
77.045
 30
0.0
  0
POINT
  8
Default
 10
159.395
 20
79.585
 30
0.0
  0
POINT
  8
Default
 10
156.855
 20
79.585
 30
0.0
  0
POINT
  8
Default
 10
154.315
 20
79.585
 30
0.0
  0
POINT
  8
Default
 10
154.315
 20
77.045
 30
0.0
  0
POINT
  8
Default
 10
156.855
 20
77.045
 30
0.0
  0
POINT
  8
Default
 10
161.935
 20
77.045
 30
0.0
  0
POINT
  8
Default
 10
161.935
 20
79.585
 30
0.0
  0
POINT
  8
Default
 10
164.475
 20
79.585
 30
0.0
  0
POINT
  8
Default
 10
164.475
 20
77.045
 30
0.0
  0
POINT
  8
Default
 10
164.475
 20
74.505
 30
0.0
  0
POINT
  8
Default
 10
161.935
 20
74.505
 30
0.0
  0
POINT
  8
Default
 10
171.46
 20
75.14
 30
0.0
  0
POINT
  8
Default
 10
171.46
 20
77.68
 30
0.0
  0
POINT
  8
Default
 10
171.46
 20
80.22
 30
0.0
  0
POINT
  8
Default
 10
171.46
 20
82.76
 30
0.0
  0
POINT
  8
Default
 10
171.46
 20
72.6
 30
0.0
  0
POINT
  8
Default
 10
171.46
 20
70.06
 30
0.0
  0
POINT
  8
Default
 10
171.46
 20
67.52
 30
0.0
  0
POINT
  8
Default
 10
171.46
 20
64.98
 30
0.0
  0
POINT
  8
Default
 10
164.475
 20
92.285
 30
0.0
  0
POINT
  8
Default
 10
161.935
 20
92.285
 30
0.0
  0
POINT
  8
Default
 10
161.935
 20
94.825
 30
0.0
  0
POINT
  8
Default
 10
164.475
 20
94.825
 30
0.0
  0
POINT
  8
Default
 10
159.395
 20
94.825
 30
0.0
  0
POINT
  8
Default
 10
156.855
 20
94.825
 30
0.0
  0
POINT
  8
Default
 10
154.315
 20
94.825
 30
0.0
  0
POINT
  8
Default
 10
154.315
 20
92.285
 30
0.0
  0
POINT
  8
Default
 10
156.855
 20
92.285
 30
0.0
  0
POINT
  8
Default
 10
159.395
 20
92.285
 30
0.0
  0
POINT
  8
Default
 10
151.775
 20
92.285
 30
0.0
  0
POINT
  8
Default
 10
149.235
 20
92.285
 30
0.0
  0
POINT
  8
Default
 10
149.235
 20
94.825
 30
0.0
  0
POINT
  8
Default
 10
151.775
 20
94.825
 30
0.0
  0
POINT
  8
Default
 10
146.695
 20
94.825
 30
0.0
  0
POINT
  8
Default
 10
146.695
 20
92.285
 30
0.0
  0
POINT
  8
Default
 10
144.155
 20
82.125
 30
0.0
  0
POINT
  8
Default
 10
141.615
 20
82.125
 30
0.0
  0
POINT
  8
Default
 10
139.075
 20
82.125
 30
0.0
  0
POINT
  8
Default
 10
136.535
 20
82.125
 30
0.0
  0
POINT
  8
Default
 10
133.995
 20
82.125
 30
0.0
  0
POINT
  8
Default
 10
131.455
 20
82.125
 30
0.0
  0
POINT
  8
Default
 10
128.915
 20
82.125
 30
0.0
  0
POINT
  8
Default
 10
126.375
 20
82.125
 30
0.0
  0
POINT
  8
Default
 10
123.835
 20
71.965
 30
0.0
  0
POINT
  8
Default
 10
121.295
 20
71.965
 30
0.0
  0
POINT
  8
Default
 10
118.755
 20
71.965
 30
0.0
  0
POINT
  8
Default
 10
116.215
 20
71.965
 30
0.0
  0
POINT
  8
Default
 10
113.675
 20
71.965
 30
0.0
  0
POINT
  8
Default
 10
111.135
 20
71.965
 30
0.0
  0
POINT
  8
Default
 10
108.595
 20
71.965
 30
0.0
  0
POINT
  8
Default
 10
106.055
 20
71.965
 30
0.0
  0
ENDSEC
  0
EOF
