  0
SECTION
  2
HEADER
  9
$ACADVER
  1
AC1009
  9
$EXTMAX
 10
39.8779983520508
 20
22.6483325958252
 30
0.0
  9
$EXTMIN
 10
2.7939999103546
 20
2.6670000553131
 30
0.0
  9
$INSUNITS
 70
     4
  9
$LUNITS
 70
     2
  9
$LUPREC
 70
     4
  9
$MEASUREMENT
 70
     1
  0
ENDSEC
  0
SECTION
  2
TABLES
  0
TABLE
  2
LAYER
 70
     1
  0
LAYER
  2
0
 70
     0
 62
     7
  6
Continuous
  0
LAYER
  2
Default
 70
     0
 62
    70
  6
Continuous
  0
ENDTAB
  0
TABLE
  2
APPID
 70
     1
  0
APPID
  2
ACAD
 70
     0
  0
ENDTAB
  0
ENDSEC
  0
SECTION
  2
ENTITIES
  0
POLYLINE
  8
Default
 66
     1
 10
0.0
 20
0.0
 30
0.0
 70
     0
  0
VERTEX
  8
Default
 10
27.897667
 20
22.648333
 42
0.0
  0
VERTEX
  8
Default
 10
27.897667
 20
22.648333
 42
0.0
  0
VERTEX
  8
Default
 10
27.728333
 20
22.563667
 42
0.0
  0
VERTEX
  8
Default
 10
27.559
 20
22.352
 42
0.0
  0
VERTEX
  8
Default
 10
27.516667
 20
20.531667
 42
0.0
  0
VERTEX
  8
Default
 10
27.051
 20
20.066
 42
0.0
  0
VERTEX
  8
Default
 10
26.966333
 20
19.727333
 42
0.0
  0
VERTEX
  8
Default
 10
26.966333
 20
19.515667
 42
0.0
  0
VERTEX
  8
Default
 10
27.051
 20
19.177
 42
0.0
  0
VERTEX
  8
Default
 10
27.559
 20
18.669
 42
0.0
  0
VERTEX
  8
Default
 10
27.897667
 20
18.584333
 42
0.0
  0
VERTEX
  8
Default
 10
28.109333
 20
18.584333
 42
0.0
  0
VERTEX
  8
Default
 10
28.448
 20
18.669
 42
0.0
  0
VERTEX
  8
Default
 10
28.956
 20
19.177
 42
0.0
  0
VERTEX
  8
Default
 10
29.040667
 20
19.515667
 42
0.0
  0
VERTEX
  8
Default
 10
29.040667
 20
19.727333
 42
0.0
  0
VERTEX
  8
Default
 10
28.956
 20
20.066
 42
0.0
  0
VERTEX
  8
Default
 10
28.490333
 20
20.531667
 42
0.0
  0
VERTEX
  8
Default
 10
28.490333
 20
21.674667
 42
0.0
  0
VERTEX
  8
Default
 10
38.015333
 20
21.674667
 42
0.0
  0
VERTEX
  8
Default
 10
38.946667
 20
20.701
 42
0.0
  0
VERTEX
  8
Default
 10
38.946667
 20
12.149667
 42
0.0
  0
VERTEX
  8
Default
 10
37.380333
 20
10.625667
 42
0.0
  0
VERTEX
  8
Default
 10
36.406667
 20
10.625667
 42
0.0
  0
VERTEX
  8
Default
 10
33.274
 20
13.716
 42
0.0
  0
VERTEX
  8
Default
 10
32.723667
 20
13.758333
 42
0.0
  0
VERTEX
  8
Default
 10
32.258
 20
14.224
 42
0.0
  0
VERTEX
  8
Default
 10
31.919333
 20
14.308667
 42
0.0
  0
VERTEX
  8
Default
 10
31.707667
 20
14.308667
 42
0.0
  0
VERTEX
  8
Default
 10
31.369
 20
14.224
 42
0.0
  0
VERTEX
  8
Default
 10
30.861
 20
13.716
 42
0.0
  0
VERTEX
  8
Default
 10
30.776333
 20
13.377333
 42
0.0
  0
VERTEX
  8
Default
 10
30.776333
 20
13.165667
 42
0.0
  0
VERTEX
  8
Default
 10
30.861
 20
12.827
 42
0.0
  0
VERTEX
  8
Default
 10
31.369
 20
12.319
 42
0.0
  0
VERTEX
  8
Default
 10
31.707667
 20
12.234333
 42
0.0
  0
VERTEX
  8
Default
 10
31.919333
 20
12.234333
 42
0.0
  0
VERTEX
  8
Default
 10
32.258
 20
12.319
 42
0.0
  0
VERTEX
  8
Default
 10
32.723667
 20
12.784667
 42
0.0
  0
VERTEX
  8
Default
 10
32.935333
 20
12.784667
 42
0.0
  0
VERTEX
  8
Default
 10
35.729333
 20
9.948333
 42
0.0
  0
VERTEX
  8
Default
 10
35.729333
 20
8.297333
 42
0.0
  0
VERTEX
  8
Default
 10
38.057667
 20
8.297333
 42
0.0
  0
VERTEX
  8
Default
 10
38.057667
 20
9.948333
 42
0.0
  0
VERTEX
  8
Default
 10
39.878
 20
11.811
 42
0.0
  0
VERTEX
  8
Default
 10
39.878
 20
21.082
 42
0.0
  0
VERTEX
  8
Default
 10
38.354
 20
22.606
 42
0.0
  0
VERTEX
  8
Default
 10
27.897667
 20
22.648333
 42
0.0
  0
SEQEND
  0
POLYLINE
  8
Default
 66
     1
 10
0.0
 20
0.0
 30
0.0
 70
     0
  0
VERTEX
  8
Default
 10
8.720667
 20
22.436667
 42
0.0
  0
VERTEX
  8
Default
 10
8.720667
 20
22.436667
 42
0.0
  0
VERTEX
  8
Default
 10
8.382
 20
22.309667
 42
0.0
  0
VERTEX
  8
Default
 10
8.043333
 20
22.140333
 42
0.0
  0
VERTEX
  8
Default
 10
7.662333
 20
21.717
 42
0.0
  0
VERTEX
  8
Default
 10
7.450667
 20
21.251333
 42
0.0
  0
VERTEX
  8
Default
 10
7.450667
 20
20.531667
 42
0.0
  0
VERTEX
  8
Default
 10
7.662333
 20
20.023667
 42
0.0
  0
VERTEX
  8
Default
 10
8.128
 20
19.600333
 42
0.0
  0
VERTEX
  8
Default
 10
8.593667
 20
19.388667
 42
0.0
  0
VERTEX
  8
Default
 10
9.313333
 20
19.388667
 42
0.0
  0
VERTEX
  8
Default
 10
9.779
 20
19.600333
 42
0.0
  0
VERTEX
  8
Default
 10
10.244667
 20
20.023667
 42
0.0
  0
VERTEX
  8
Default
 10
10.456333
 20
20.531667
 42
0.0
  0
VERTEX
  8
Default
 10
10.456333
 20
21.251333
 42
0.0
  0
VERTEX
  8
Default
 10
10.244667
 20
21.759333
 42
0.0
  0
VERTEX
  8
Default
 10
9.779
 20
22.182667
 42
0.0
  0
VERTEX
  8
Default
 10
9.313333
 20
22.394333
 42
0.0
  0
VERTEX
  8
Default
 10
8.720667
 20
22.436667
 42
0.0
  0
SEQEND
  0
POLYLINE
  8
Default
 66
     1
 10
0.0
 20
0.0
 30
0.0
 70
     0
  0
VERTEX
  8
Default
 10
13.843
 20
21.971
 42
0.0
  0
VERTEX
  8
Default
 10
13.843
 20
21.971
 42
0.0
  0
VERTEX
  8
Default
 10
13.546667
 20
21.844
 42
0.0
  0
VERTEX
  8
Default
 10
13.250333
 20
21.59
 42
0.0
  0
VERTEX
  8
Default
 10
12.996333
 20
21.209
 42
0.0
  0
VERTEX
  8
Default
 10
12.954
 20
20.785667
 42
0.0
  0
VERTEX
  8
Default
 10
13.038667
 20
20.447
 42
0.0
  0
VERTEX
  8
Default
 10
13.335
 20
20.108333
 42
0.0
  0
VERTEX
  8
Default
 10
13.716
 20
19.854333
 42
0.0
  0
VERTEX
  8
Default
 10
14.139333
 20
19.812
 42
0.0
  0
VERTEX
  8
Default
 10
14.478
 20
19.896667
 42
0.0
  0
VERTEX
  8
Default
 10
14.816667
 20
20.193
 42
0.0
  0
VERTEX
  8
Default
 10
15.070667
 20
20.574
 42
0.0
  0
VERTEX
  8
Default
 10
15.113
 20
20.997333
 42
0.0
  0
VERTEX
  8
Default
 10
15.028333
 20
21.336
 42
0.0
  0
VERTEX
  8
Default
 10
14.732
 20
21.674667
 42
0.0
  0
VERTEX
  8
Default
 10
14.351
 20
21.928667
 42
0.0
  0
VERTEX
  8
Default
 10
13.843
 20
21.971
 42
0.0
  0
SEQEND
  0
POLYLINE
  8
Default
 66
     1
 10
0.0
 20
0.0
 30
0.0
 70
     0
  0
VERTEX
  8
Default
 10
16.467667
 20
21.378333
 42
0.0
  0
VERTEX
  8
Default
 10
16.467667
 20
21.378333
 42
0.0
  0
VERTEX
  8
Default
 10
16.298333
 20
21.293667
 42
0.0
  0
VERTEX
  8
Default
 10
13.589
 20
18.542
 42
0.0
  0
VERTEX
  8
Default
 10
13.546667
 20
14.224
 42
0.0
  0
VERTEX
  8
Default
 10
13.208
 20
13.97
 42
0.0
  0
VERTEX
  8
Default
 10
12.996333
 20
13.589
 42
0.0
  0
VERTEX
  8
Default
 10
12.996333
 20
12.954
 42
0.0
  0
VERTEX
  8
Default
 10
13.208
 20
12.573
 42
0.0
  0
VERTEX
  8
Default
 10
13.546667
 20
12.319
 42
0.0
  0
VERTEX
  8
Default
 10
13.546667
 20
10.879667
 42
0.0
  0
VERTEX
  8
Default
 10
9.652
 20
7.027333
 42
0.0
  0
VERTEX
  8
Default
 10
9.144
 20
7.196667
 42
0.0
  0
VERTEX
  8
Default
 10
8.763
 20
7.196667
 42
0.0
  0
VERTEX
  8
Default
 10
8.255
 20
7.027333
 42
0.0
  0
VERTEX
  8
Default
 10
4.910667
 20
10.329333
 42
0.0
  0
VERTEX
  8
Default
 10
4.910667
 20
11.049
 42
0.0
  0
VERTEX
  8
Default
 10
4.699
 20
11.43
 42
0.0
  0
VERTEX
  8
Default
 10
4.360333
 20
11.684
 42
0.0
  0
VERTEX
  8
Default
 10
4.360333
 20
14.859
 42
0.0
  0
VERTEX
  8
Default
 10
4.699
 20
15.113
 42
0.0
  0
VERTEX
  8
Default
 10
4.910667
 20
15.494
 42
0.0
  0
VERTEX
  8
Default
 10
4.953
 20
15.917333
 42
0.0
  0
VERTEX
  8
Default
 10
4.868333
 20
16.256
 42
0.0
  0
VERTEX
  8
Default
 10
4.572
 20
16.594667
 42
0.0
  0
VERTEX
  8
Default
 10
4.191
 20
16.848667
 42
0.0
  0
VERTEX
  8
Default
 10
3.556
 20
16.848667
 42
0.0
  0
VERTEX
  8
Default
 10
3.175
 20
16.594667
 42
0.0
  0
VERTEX
  8
Default
 10
2.878667
 20
16.256
 42
0.0
  0
VERTEX
  8
Default
 10
2.794
 20
15.917333
 42
0.0
  0
VERTEX
  8
Default
 10
2.836333
 20
15.494
 42
0.0
  0
VERTEX
  8
Default
 10
3.048
 20
15.113
 42
0.0
  0
VERTEX
  8
Default
 10
3.386667
 20
14.859
 42
0.0
  0
VERTEX
  8
Default
 10
3.386667
 20
11.684
 42
0.0
  0
VERTEX
  8
Default
 10
3.048
 20
11.43
 42
0.0
  0
VERTEX
  8
Default
 10
2.836333
 20
11.049
 42
0.0
  0
VERTEX
  8
Default
 10
2.794
 20
10.625667
 42
0.0
  0
VERTEX
  8
Default
 10
2.878667
 20
10.287
 42
0.0
  0
VERTEX
  8
Default
 10
3.175
 20
9.948333
 42
0.0
  0
VERTEX
  8
Default
 10
3.556
 20
9.694333
 42
0.0
  0
VERTEX
  8
Default
 10
4.275667
 20
9.652
 42
0.0
  0
VERTEX
  8
Default
 10
6.392333
 20
7.577667
 42
0.0
  0
VERTEX
  8
Default
 10
5.969
 20
7.112
 42
0.0
  0
VERTEX
  8
Default
 10
5.969
 20
2.921
 42
0.0
  0
VERTEX
  8
Default
 10
6.223
 20
2.667
 42
0.0
  0
VERTEX
  8
Default
 10
11.684
 20
2.667
 42
0.0
  0
VERTEX
  8
Default
 10
11.938
 20
2.921
 42
0.0
  0
VERTEX
  8
Default
 10
11.938
 20
7.112
 42
0.0
  0
VERTEX
  8
Default
 10
11.514667
 20
7.535333
 42
0.0
  0
VERTEX
  8
Default
 10
14.478
 20
10.541
 42
0.0
  0
VERTEX
  8
Default
 10
14.520333
 20
12.319
 42
0.0
  0
VERTEX
  8
Default
 10
14.859
 20
12.573
 42
0.0
  0
VERTEX
  8
Default
 10
15.070667
 20
12.954
 42
0.0
  0
VERTEX
  8
Default
 10
15.070667
 20
13.589
 42
0.0
  0
VERTEX
  8
Default
 10
14.859
 20
13.97
 42
0.0
  0
VERTEX
  8
Default
 10
14.520333
 20
14.224
 42
0.0
  0
VERTEX
  8
Default
 10
14.520333
 20
18.203333
 42
0.0
  0
VERTEX
  8
Default
 10
16.764
 20
20.404667
 42
0.0
  0
VERTEX
  8
Default
 10
20.193
 20
20.404667
 42
0.0
  0
VERTEX
  8
Default
 10
21.463
 20
19.177
 42
0.0
  0
VERTEX
  8
Default
 10
24.553333
 20
19.134667
 42
0.0
  0
VERTEX
  8
Default
 10
24.976667
 20
18.711333
 42
0.0
  0
VERTEX
  8
Default
 10
25.019
 20
18.161
 42
0.0
  0
VERTEX
  8
Default
 10
27.813
 20
15.367
 42
0.0
  0
VERTEX
  8
Default
 10
30.903333
 20
15.324667
 42
0.0
  0
VERTEX
  8
Default
 10
31.369
 20
14.859
 42
0.0
  0
VERTEX
  8
Default
 10
31.707667
 20
14.774333
 42
0.0
  0
VERTEX
  8
Default
 10
31.919333
 20
14.774333
 42
0.0
  0
VERTEX
  8
Default
 10
32.258
 20
14.859
 42
0.0
  0
VERTEX
  8
Default
 10
32.766
 20
15.367
 42
0.0
  0
VERTEX
  8
Default
 10
32.850667
 20
15.705667
 42
0.0
  0
VERTEX
  8
Default
 10
32.850667
 20
15.917333
 42
0.0
  0
VERTEX
  8
Default
 10
32.766
 20
16.256
 42
0.0
  0
VERTEX
  8
Default
 10
32.258
 20
16.764
 42
0.0
  0
VERTEX
  8
Default
 10
31.919333
 20
16.848667
 42
0.0
  0
VERTEX
  8
Default
 10
31.707667
 20
16.848667
 42
0.0
  0
VERTEX
  8
Default
 10
31.369
 20
16.764
 42
0.0
  0
VERTEX
  8
Default
 10
30.903333
 20
16.298333
 42
0.0
  0
VERTEX
  8
Default
 10
28.151667
 20
16.298333
 42
0.0
  0
VERTEX
  8
Default
 10
25.950333
 20
18.542
 42
0.0
  0
VERTEX
  8
Default
 10
25.950333
 20
18.711333
 42
0.0
  0
VERTEX
  8
Default
 10
26.416
 20
19.177
 42
0.0
  0
VERTEX
  8
Default
 10
26.500667
 20
19.515667
 42
0.0
  0
VERTEX
  8
Default
 10
26.500667
 20
19.727333
 42
0.0
  0
VERTEX
  8
Default
 10
26.416
 20
20.066
 42
0.0
  0
VERTEX
  8
Default
 10
25.908
 20
20.574
 42
0.0
  0
VERTEX
  8
Default
 10
25.569333
 20
20.658667
 42
0.0
  0
VERTEX
  8
Default
 10
25.357667
 20
20.658667
 42
0.0
  0
VERTEX
  8
Default
 10
25.019
 20
20.574
 42
0.0
  0
VERTEX
  8
Default
 10
24.553333
 20
20.108333
 42
0.0
  0
VERTEX
  8
Default
 10
21.844
 20
20.108333
 42
0.0
  0
VERTEX
  8
Default
 10
20.574
 20
21.336
 42
0.0
  0
VERTEX
  8
Default
 10
16.467667
 20
21.378333
 42
0.0
  0
SEQEND
  0
POLYLINE
  8
Default
 66
     1
 10
0.0
 20
0.0
 30
0.0
 70
     0
  0
VERTEX
  8
Default
 10
7.027333
 20
6.900333
 42
0.0
  0
VERTEX
  8
Default
 10
7.027333
 20
6.900333
 42
0.0
  0
VERTEX
  8
Default
 10
6.900333
 20
6.731
 42
0.0
  0
VERTEX
  8
Default
 10
6.900333
 20
3.598333
 42
0.0
  0
VERTEX
  8
Default
 10
11.006667
 20
3.598333
 42
0.0
  0
VERTEX
  8
Default
 10
11.006667
 20
6.773333
 42
0.0
  0
VERTEX
  8
Default
 10
10.837333
 20
6.900333
 42
0.0
  0
VERTEX
  8
Default
 10
10.329333
 20
6.35
 42
0.0
  0
VERTEX
  8
Default
 10
10.498667
 20
5.842
 42
0.0
  0
VERTEX
  8
Default
 10
10.456333
 20
5.291667
 42
0.0
  0
VERTEX
  8
Default
 10
10.244667
 20
4.783667
 42
0.0
  0
VERTEX
  8
Default
 10
9.779
 20
4.360333
 42
0.0
  0
VERTEX
  8
Default
 10
9.313333
 20
4.148667
 42
0.0
  0
VERTEX
  8
Default
 10
8.593667
 20
4.148667
 42
0.0
  0
VERTEX
  8
Default
 10
8.128
 20
4.360333
 42
0.0
  0
VERTEX
  8
Default
 10
7.662333
 20
4.783667
 42
0.0
  0
VERTEX
  8
Default
 10
7.450667
 20
5.291667
 42
0.0
  0
VERTEX
  8
Default
 10
7.408333
 20
5.842
 42
0.0
  0
VERTEX
  8
Default
 10
7.577667
 20
6.35
 42
0.0
  0
VERTEX
  8
Default
 10
7.027333
 20
6.900333
 42
0.0
  0
SEQEND
  0
POLYLINE
  8
Default
 66
     1
 10
0.0
 20
0.0
 30
0.0
 70
     0
  0
VERTEX
  8
Default
 10
36.703
 20
20.785667
 42
0.0
  0
VERTEX
  8
Default
 10
36.703
 20
20.785667
 42
0.0
  0
VERTEX
  8
Default
 10
36.406667
 20
20.658667
 42
0.0
  0
VERTEX
  8
Default
 10
36.068
 20
20.447
 42
0.0
  0
VERTEX
  8
Default
 10
35.856333
 20
20.108333
 42
0.0
  0
VERTEX
  8
Default
 10
31.623
 20
20.108333
 42
0.0
  0
VERTEX
  8
Default
 10
31.623
 20
20.701
 42
0.0
  0
VERTEX
  8
Default
 10
29.464
 20
20.701
 42
0.0
  0
VERTEX
  8
Default
 10
29.464
 20
18.542
 42
0.0
  0
VERTEX
  8
Default
 10
31.623
 20
18.542
 42
0.0
  0
VERTEX
  8
Default
 10
31.623
 20
19.134667
 42
0.0
  0
VERTEX
  8
Default
 10
35.856333
 20
19.134667
 42
0.0
  0
VERTEX
  8
Default
 10
36.152667
 20
18.753667
 42
0.0
  0
VERTEX
  8
Default
 10
36.576
 20
18.499667
 42
0.0
  0
VERTEX
  8
Default
 10
37.211
 20
18.499667
 42
0.0
  0
VERTEX
  8
Default
 10
37.549667
 20
18.669
 42
0.0
  0
VERTEX
  8
Default
 10
37.803667
 20
18.880667
 42
0.0
  0
VERTEX
  8
Default
 10
38.015333
 20
19.304
 42
0.0
  0
VERTEX
  8
Default
 10
38.015333
 20
19.939
 42
0.0
  0
VERTEX
  8
Default
 10
37.803667
 20
20.362333
 42
0.0
  0
VERTEX
  8
Default
 10
37.549667
 20
20.574
 42
0.0
  0
VERTEX
  8
Default
 10
37.211
 20
20.743333
 42
0.0
  0
VERTEX
  8
Default
 10
36.703
 20
20.785667
 42
0.0
  0
SEQEND
  0
POLYLINE
  8
Default
 66
     1
 10
0.0
 20
0.0
 30
0.0
 70
     0
  0
VERTEX
  8
Default
 10
16.383
 20
19.431
 42
0.0
  0
VERTEX
  8
Default
 10
16.383
 20
19.431
 42
0.0
  0
VERTEX
  8
Default
 10
16.086667
 20
19.304
 42
0.0
  0
VERTEX
  8
Default
 10
15.790333
 20
19.05
 42
0.0
  0
VERTEX
  8
Default
 10
15.536333
 20
18.669
 42
0.0
  0
VERTEX
  8
Default
 10
15.536333
 20
18.034
 42
0.0
  0
VERTEX
  8
Default
 10
15.748
 20
17.653
 42
0.0
  0
VERTEX
  8
Default
 10
16.086667
 20
17.399
 42
0.0
  0
VERTEX
  8
Default
 10
16.129
 20
13.081
 42
0.0
  0
VERTEX
  8
Default
 10
19.388667
 20
9.779
 42
0.0
  0
VERTEX
  8
Default
 10
19.346333
 20
9.398
 42
0.0
  0
VERTEX
  8
Default
 10
19.431
 20
9.017
 42
0.0
  0
VERTEX
  8
Default
 10
19.939
 20
8.509
 42
0.0
  0
VERTEX
  8
Default
 10
20.277667
 20
8.424333
 42
0.0
  0
VERTEX
  8
Default
 10
20.489333
 20
8.424333
 42
0.0
  0
VERTEX
  8
Default
 10
20.828
 20
8.509
 42
0.0
  0
VERTEX
  8
Default
 10
21.336
 20
9.017
 42
0.0
  0
VERTEX
  8
Default
 10
21.420667
 20
9.398
 42
0.0
  0
VERTEX
  8
Default
 10
21.378333
 20
9.779
 42
0.0
  0
VERTEX
  8
Default
 10
21.801667
 20
10.244667
 42
0.0
  0
VERTEX
  8
Default
 10
23.241
 20
10.244667
 42
0.0
  0
VERTEX
  8
Default
 10
23.241
 20
9.779
 42
0.0
  0
VERTEX
  8
Default
 10
25.146
 20
9.779
 42
0.0
  0
VERTEX
  8
Default
 10
25.146
 20
11.684
 42
0.0
  0
VERTEX
  8
Default
 10
23.241
 20
11.684
 42
0.0
  0
VERTEX
  8
Default
 10
23.241
 20
11.218333
 42
0.0
  0
VERTEX
  8
Default
 10
21.463
 20
11.176
 42
0.0
  0
VERTEX
  8
Default
 10
20.743333
 20
10.498667
 42
0.0
  0
VERTEX
  8
Default
 10
20.066
 20
10.456333
 42
0.0
  0
VERTEX
  8
Default
 10
17.060333
 20
13.419667
 42
0.0
  0
VERTEX
  8
Default
 10
17.060333
 20
17.399
 42
0.0
  0
VERTEX
  8
Default
 10
17.399
 20
17.653
 42
0.0
  0
VERTEX
  8
Default
 10
17.610667
 20
18.034
 42
0.0
  0
VERTEX
  8
Default
 10
17.653
 20
18.457333
 42
0.0
  0
VERTEX
  8
Default
 10
17.568333
 20
18.796
 42
0.0
  0
VERTEX
  8
Default
 10
17.272
 20
19.134667
 42
0.0
  0
VERTEX
  8
Default
 10
16.891
 20
19.388667
 42
0.0
  0
VERTEX
  8
Default
 10
16.383
 20
19.431
 42
0.0
  0
SEQEND
  0
POLYLINE
  8
Default
 66
     1
 10
0.0
 20
0.0
 30
0.0
 70
     0
  0
VERTEX
  8
Default
 10
19.304
 20
18.161
 42
0.0
  0
VERTEX
  8
Default
 10
19.304
 20
18.161
 42
0.0
  0
VERTEX
  8
Default
 10
19.304
 20
16.002
 42
0.0
  0
VERTEX
  8
Default
 10
20.828
 20
16.002
 42
0.0
  0
VERTEX
  8
Default
 10
23.198667
 20
13.589
 42
0.0
  0
VERTEX
  8
Default
 10
23.156333
 20
13.208
 42
0.0
  0
VERTEX
  8
Default
 10
23.241
 20
12.827
 42
0.0
  0
VERTEX
  8
Default
 10
23.749
 20
12.319
 42
0.0
  0
VERTEX
  8
Default
 10
24.087667
 20
12.234333
 42
0.0
  0
VERTEX
  8
Default
 10
24.299333
 20
12.234333
 42
0.0
  0
VERTEX
  8
Default
 10
24.638
 20
12.319
 42
0.0
  0
VERTEX
  8
Default
 10
25.103667
 20
12.784667
 42
0.0
  0
VERTEX
  8
Default
 10
25.315333
 20
12.784667
 42
0.0
  0
VERTEX
  8
Default
 10
26.246667
 20
11.811
 42
0.0
  0
VERTEX
  8
Default
 10
26.289
 20
10.541
 42
0.0
  0
VERTEX
  8
Default
 10
29.929667
 20
6.900333
 42
0.0
  0
VERTEX
  8
Default
 10
31.707667
 20
6.858
 42
0.0
  0
VERTEX
  8
Default
 10
31.707667
 20
6.180667
 42
0.0
  0
VERTEX
  8
Default
 10
33.993667
 20
6.180667
 42
0.0
  0
VERTEX
  8
Default
 10
33.993667
 20
8.509
 42
0.0
  0
VERTEX
  8
Default
 10
31.707667
 20
8.509
 42
0.0
  0
VERTEX
  8
Default
 10
31.707667
 20
7.831667
 42
0.0
  0
VERTEX
  8
Default
 10
30.268333
 20
7.831667
 42
0.0
  0
VERTEX
  8
Default
 10
27.220333
 20
10.922
 42
0.0
  0
VERTEX
  8
Default
 10
27.178
 20
12.192
 42
0.0
  0
VERTEX
  8
Default
 10
25.654
 20
13.716
 42
0.0
  0
VERTEX
  8
Default
 10
25.103667
 20
13.758333
 42
0.0
  0
VERTEX
  8
Default
 10
24.638
 20
14.224
 42
0.0
  0
VERTEX
  8
Default
 10
24.257
 20
14.308667
 42
0.0
  0
VERTEX
  8
Default
 10
23.876
 20
14.266333
 42
0.0
  0
VERTEX
  8
Default
 10
21.463
 20
16.637
 42
0.0
  0
VERTEX
  8
Default
 10
21.463
 20
18.161
 42
0.0
  0
VERTEX
  8
Default
 10
19.304
 20
18.161
 42
0.0
  0
SEQEND
  0
POLYLINE
  8
Default
 66
     1
 10
0.0
 20
0.0
 30
0.0
 70
     0
  0
VERTEX
  8
Default
 10
24.003
 20
16.848667
 42
0.0
  0
VERTEX
  8
Default
 10
24.003
 20
16.848667
 42
0.0
  0
VERTEX
  8
Default
 10
23.749
 20
16.764
 42
0.0
  0
VERTEX
  8
Default
 10
23.241
 20
16.256
 42
0.0
  0
VERTEX
  8
Default
 10
23.156333
 20
15.917333
 42
0.0
  0
VERTEX
  8
Default
 10
23.156333
 20
15.705667
 42
0.0
  0
VERTEX
  8
Default
 10
23.241
 20
15.367
 42
0.0
  0
VERTEX
  8
Default
 10
23.749
 20
14.859
 42
0.0
  0
VERTEX
  8
Default
 10
24.087667
 20
14.774333
 42
0.0
  0
VERTEX
  8
Default
 10
24.299333
 20
14.774333
 42
0.0
  0
VERTEX
  8
Default
 10
24.638
 20
14.859
 42
0.0
  0
VERTEX
  8
Default
 10
25.146
 20
15.367
 42
0.0
  0
VERTEX
  8
Default
 10
25.230667
 20
15.705667
 42
0.0
  0
VERTEX
  8
Default
 10
25.230667
 20
15.917333
 42
0.0
  0
VERTEX
  8
Default
 10
25.146
 20
16.256
 42
0.0
  0
VERTEX
  8
Default
 10
24.638
 20
16.764
 42
0.0
  0
VERTEX
  8
Default
 10
24.299333
 20
16.848667
 42
0.0
  0
VERTEX
  8
Default
 10
24.003
 20
16.848667
 42
0.0
  0
SEQEND
  0
POLYLINE
  8
Default
 66
     1
 10
0.0
 20
0.0
 30
0.0
 70
     0
  0
VERTEX
  8
Default
 10
31.623
 20
11.768667
 42
0.0
  0
VERTEX
  8
Default
 10
31.623
 20
11.768667
 42
0.0
  0
VERTEX
  8
Default
 10
31.369
 20
11.684
 42
0.0
  0
VERTEX
  8
Default
 10
30.861
 20
11.176
 42
0.0
  0
VERTEX
  8
Default
 10
30.776333
 20
10.837333
 42
0.0
  0
VERTEX
  8
Default
 10
30.776333
 20
10.625667
 42
0.0
  0
VERTEX
  8
Default
 10
30.861
 20
10.287
 42
0.0
  0
VERTEX
  8
Default
 10
31.369
 20
9.779
 42
0.0
  0
VERTEX
  8
Default
 10
31.707667
 20
9.694333
 42
0.0
  0
VERTEX
  8
Default
 10
31.919333
 20
9.694333
 42
0.0
  0
VERTEX
  8
Default
 10
32.258
 20
9.779
 42
0.0
  0
VERTEX
  8
Default
 10
32.766
 20
10.287
 42
0.0
  0
VERTEX
  8
Default
 10
32.850667
 20
10.625667
 42
0.0
  0
VERTEX
  8
Default
 10
32.850667
 20
10.837333
 42
0.0
  0
VERTEX
  8
Default
 10
32.766
 20
11.176
 42
0.0
  0
VERTEX
  8
Default
 10
32.258
 20
11.684
 42
0.0
  0
VERTEX
  8
Default
 10
31.919333
 20
11.768667
 42
0.0
  0
VERTEX
  8
Default
 10
31.623
 20
11.768667
 42
0.0
  0
SEQEND
  0
POLYLINE
  8
Default
 66
     1
 10
0.0
 20
0.0
 30
0.0
 70
     0
  0
VERTEX
  8
Default
 10
16.383
 20
9.271
 42
0.0
  0
VERTEX
  8
Default
 10
16.383
 20
9.271
 42
0.0
  0
VERTEX
  8
Default
 10
16.086667
 20
9.144
 42
0.0
  0
VERTEX
  8
Default
 10
15.790333
 20
8.89
 42
0.0
  0
VERTEX
  8
Default
 10
15.536333
 20
8.509
 42
0.0
  0
VERTEX
  8
Default
 10
15.494
 20
8.085667
 42
0.0
  0
VERTEX
  8
Default
 10
15.578667
 20
7.747
 42
0.0
  0
VERTEX
  8
Default
 10
15.875
 20
7.408333
 42
0.0
  0
VERTEX
  8
Default
 10
16.256
 20
7.154333
 42
0.0
  0
VERTEX
  8
Default
 10
16.975667
 20
7.112
 42
0.0
  0
VERTEX
  8
Default
 10
17.229667
 20
6.900333
 42
0.0
  0
VERTEX
  8
Default
 10
21.632333
 20
6.815667
 42
0.0
  0
VERTEX
  8
Default
 10
21.928667
 20
6.477
 42
0.0
  0
VERTEX
  8
Default
 10
22.352
 20
6.223
 42
0.0
  0
VERTEX
  8
Default
 10
22.987
 20
6.223
 42
0.0
  0
VERTEX
  8
Default
 10
23.325667
 20
6.392333
 42
0.0
  0
VERTEX
  8
Default
 10
23.579667
 20
6.604
 42
0.0
  0
VERTEX
  8
Default
 10
23.791333
 20
7.027333
 42
0.0
  0
VERTEX
  8
Default
 10
23.791333
 20
7.662333
 42
0.0
  0
VERTEX
  8
Default
 10
23.579667
 20
8.085667
 42
0.0
  0
VERTEX
  8
Default
 10
23.325667
 20
8.297333
 42
0.0
  0
VERTEX
  8
Default
 10
22.987
 20
8.466667
 42
0.0
  0
VERTEX
  8
Default
 10
22.352
 20
8.466667
 42
0.0
  0
VERTEX
  8
Default
 10
21.928667
 20
8.212667
 42
0.0
  0
VERTEX
  8
Default
 10
21.632333
 20
7.831667
 42
0.0
  0
VERTEX
  8
Default
 10
17.610667
 20
7.831667
 42
0.0
  0
VERTEX
  8
Default
 10
17.653
 20
8.297333
 42
0.0
  0
VERTEX
  8
Default
 10
17.568333
 20
8.636
 42
0.0
  0
VERTEX
  8
Default
 10
17.272
 20
8.974667
 42
0.0
  0
VERTEX
  8
Default
 10
16.891
 20
9.228667
 42
0.0
  0
VERTEX
  8
Default
 10
16.383
 20
9.271
 42
0.0
  0
SEQEND
  0
POLYLINE
  8
Default
 66
     1
 10
0.0
 20
0.0
 30
0.0
 70
     0
  0
VERTEX
  8
Default
 10
13.843
 20
6.731
 42
0.0
  0
VERTEX
  8
Default
 10
13.843
 20
6.731
 42
0.0
  0
VERTEX
  8
Default
 10
13.546667
 20
6.604
 42
0.0
  0
VERTEX
  8
Default
 10
13.250333
 20
6.35
 42
0.0
  0
VERTEX
  8
Default
 10
12.996333
 20
5.969
 42
0.0
  0
VERTEX
  8
Default
 10
12.954
 20
5.545667
 42
0.0
  0
VERTEX
  8
Default
 10
13.038667
 20
5.207
 42
0.0
  0
VERTEX
  8
Default
 10
13.335
 20
4.868333
 42
0.0
  0
VERTEX
  8
Default
 10
13.716
 20
4.614333
 42
0.0
  0
VERTEX
  8
Default
 10
14.139333
 20
4.572
 42
0.0
  0
VERTEX
  8
Default
 10
14.478
 20
4.656667
 42
0.0
  0
VERTEX
  8
Default
 10
14.816667
 20
4.953
 42
0.0
  0
VERTEX
  8
Default
 10
15.070667
 20
5.334
 42
0.0
  0
VERTEX
  8
Default
 10
15.113
 20
5.757333
 42
0.0
  0
VERTEX
  8
Default
 10
15.028333
 20
6.096
 42
0.0
  0
VERTEX
  8
Default
 10
14.732
 20
6.434667
 42
0.0
  0
VERTEX
  8
Default
 10
14.351
 20
6.688667
 42
0.0
  0
VERTEX
  8
Default
 10
13.843
 20
6.731
 42
0.0
  0
SEQEND
  0
ENDSEC
  0
EOF
