999
dxflib 3.3.4.0
  0
SECTION
  2
HEADER
  9
$ACADVER
  1
AC1015
  9
$HANDSEED
  5
FFFF
  9
$DIMADEC
 70
0
  9
$DIMASZ
 40
0.18
  9
$DIMAUNIT
 70
0
  9
$DIMAZIN
 70
0
  9
$DIMDEC
 70
4
  9
$DIMEXE
 40
0.18
  9
$DIMEXO
 40
0.0625
  9
$DIMGAP
 40
0.09
  9
$DIMLUNIT
 70
2
  9
$DIMSCALE
 40
1.0
  9
$DIMTSZ
 40
0.0
  9
$DIMTXT
 40
0.18
  9
$DIMZIN
 70
0
  9
$DWGCODEPAGE
  3
ANSI_1252
  9
$EXTMAX
 10
39.8779983520508026
 20
22.6483325958251989
 30
0.0
  9
$EXTMIN
 10
2.7939999103546
 20
2.6670000553131001
 30
0.0
  9
$INSUNITS
 70
4
  9
$LTSCALE
 40
1.0
  9
$LUNITS
 70
2
  9
$LUPREC
 70
4
  0
ENDSEC
  0
SECTION
  2
TABLES
  0
TABLE
  2
VPORT
  5
8
100
AcDbSymbolTable
 70
1
  0
VPORT
  5
30
100
AcDbSymbolTableRecord
100
AcDbViewportTableRecord
  2
*Active
 70
0
 10
0.0
 20
0.0
 11
1.0
 21
1.0
 12
286.3055555555554861
 22
148.5
 13
0.0
 23
0.0
 14
10.0
 24
10.0
 15
10.0
 25
10.0
 16
0.0
 26
0.0
 36
1.0
 17
0.0
 27
0.0
 37
0.0
 40
297.0
 41
1.92798353909465
 42
50.0
 43
0.0
 44
0.0
 50
0.0
 51
0.0
 71
0
 72
100
 73
1
 74
3
 75
1
 76
1
 77
0
 78
0
281
0
 65
1
110
0.0
120
0.0
130
0.0
111
1.0
121
0.0
131
0.0
112
0.0
122
1.0
132
0.0
 79
0
146
0.0
  0
ENDTAB
  0
TABLE
  2
LTYPE
  5
5
100
AcDbSymbolTable
 70
21
  0
LTYPE
  5
16
100
AcDbSymbolTableRecord
100
AcDbLinetypeTableRecord
  2
CONTINUOUS
 70
0
  3
Solid line
 72
65
 73
0
 40
0.0
  0
LTYPE
  5
31
100
AcDbSymbolTableRecord
100
AcDbLinetypeTableRecord
  2
CENTER2
 70
0
  3
Center (.5x) ___ _ ___ _ ___ _ ___ _ ___ _ ___
 72
65
 73
4
 40
28.5749999999999993
 49
19.0500000000000007
 74
0
 49
-3.1749999999999998
 74
0
 49
3.1749999999999998
 74
0
 49
-3.1749999999999998
 74
0
  0
LTYPE
  5
32
100
AcDbSymbolTableRecord
100
AcDbLinetypeTableRecord
  2
DIVIDEX2
 70
0
  3
Divide (2x) ________  .  .  ________  .  .  _
 72
65
 73
6
 40
63.5
 49
25.3999999999999986
 74
0
 49
-12.6999999999999993
 74
0
 49
0.0
 74
0
 49
-12.6999999999999993
 74
0
 49
0.0
 74
0
 49
-12.6999999999999993
 74
0
  0
LTYPE
  5
33
100
AcDbSymbolTableRecord
100
AcDbLinetypeTableRecord
  2
DOT2
 70
0
  3
Dot (.5x) .....................................
 72
65
 73
2
 40
3.1749999999999998
 49
0.0
 74
0
 49
-3.1749999999999998
 74
0
  0
LTYPE
  5
34
100
AcDbSymbolTableRecord
100
AcDbLinetypeTableRecord
  2
DASHDOT2
 70
0
  3
Dash dot (.5x) _._._._._._._._._._._._._._._.
 72
65
 73
4
 40
12.6999999999999993
 49
6.3499999999999996
 74
0
 49
-3.1749999999999998
 74
0
 49
0.0
 74
0
 49
-3.1749999999999998
 74
0
  0
LTYPE
  5
35
100
AcDbSymbolTableRecord
100
AcDbLinetypeTableRecord
  2
DIVIDE
 70
0
  3
Divide ____ . . ____ . . ____ . . ____ . . ____
 72
65
 73
6
 40
31.75
 49
12.6999999999999993
 74
0
 49
-6.3499999999999996
 74
0
 49
0.0
 74
0
 49
-6.3499999999999996
 74
0
 49
0.0
 74
0
 49
-6.3499999999999996
 74
0
  0
LTYPE
  5
36
100
AcDbSymbolTableRecord
100
AcDbLinetypeTableRecord
  2
DASHDOT
 70
0
  3
Dash dot __ . __ . __ . __ . __ . __ . __ . __
 72
65
 73
4
 40
25.3999999999999986
 49
12.6999999999999993
 74
0
 49
-6.3499999999999996
 74
0
 49
0.0
 74
0
 49
-6.3499999999999996
 74
0
  0
LTYPE
  5
37
100
AcDbSymbolTableRecord
100
AcDbLinetypeTableRecord
  2
BORDER
 70
0
  3
Border __ __ . __ __ . __ __ . __ __ . __ __ .
 72
65
 73
6
 40
44.4500000000000028
 49
12.6999999999999993
 74
0
 49
-6.3499999999999996
 74
0
 49
12.6999999999999993
 74
0
 49
-6.3499999999999996
 74
0
 49
0.0
 74
0
 49
-6.3499999999999996
 74
0
  0
LTYPE
  5
38
100
AcDbSymbolTableRecord
100
AcDbLinetypeTableRecord
  2
DASHDOTX2
 70
0
  3
Dash dot (2x) ____  .  ____  .  ____  .  ___
 72
65
 73
4
 40
50.7999999999999972
 49
25.3999999999999986
 74
0
 49
-12.6999999999999993
 74
0
 49
0.0
 74
0
 49
-12.6999999999999993
 74
0
  0
LTYPE
  5
39
100
AcDbSymbolTableRecord
100
AcDbLinetypeTableRecord
  2
CENTERX2
 70
0
  3
Center (2x) ________  __  ________  __  _____
 72
65
 73
4
 40
101.5999999999999943
 49
63.5
 74
0
 49
-12.6999999999999993
 74
0
 49
12.6999999999999993
 74
0
 49
-12.6999999999999993
 74
0
  0
LTYPE
  5
3A
100
AcDbSymbolTableRecord
100
AcDbLinetypeTableRecord
  2
BORDER2
 70
0
  3
Border (.5x) __.__.__.__.__.__.__.__.__.__.__.
 72
65
 73
6
 40
22.2250000000000014
 49
6.3499999999999996
 74
0
 49
-3.1749999999999998
 74
0
 49
6.3499999999999996
 74
0
 49
-3.1749999999999998
 74
0
 49
0.0
 74
0
 49
-3.1749999999999998
 74
0
  0
LTYPE
  5
3B
100
AcDbSymbolTableRecord
100
AcDbLinetypeTableRecord
  2
BORDERX2
 70
0
  3
Border (2x) ____  ____  .  ____  ____  .  ___
 72
65
 73
6
 40
88.9000000000000057
 49
25.3999999999999986
 74
0
 49
-12.6999999999999993
 74
0
 49
25.3999999999999986
 74
0
 49
-12.6999999999999993
 74
0
 49
0.0
 74
0
 49
-12.6999999999999993
 74
0
  0
LTYPE
  5
14
100
AcDbSymbolTableRecord
100
AcDbLinetypeTableRecord
  2
BYBLOCK
 70
0
  3

 72
65
 73
0
 40
0.0
  0
LTYPE
  5
15
100
AcDbSymbolTableRecord
100
AcDbLinetypeTableRecord
  2
BYLAYER
 70
0
  3

 72
65
 73
0
 40
0.0
  0
LTYPE
  5
3C
100
AcDbSymbolTableRecord
100
AcDbLinetypeTableRecord
  2
DASHED2
 70
0
  3
Dashed (.5x) _ _ _ _ _ _ _ _ _ _ _ _ _ _ _ _ _
 72
65
 73
2
 40
9.5250000000000004
 49
6.3499999999999996
 74
0
 49
-3.1749999999999998
 74
0
  0
LTYPE
  5
3D
100
AcDbSymbolTableRecord
100
AcDbLinetypeTableRecord
  2
CENTER
 70
0
  3
Center ____ _ ____ _ ____ _ ____ _ ____ _ ____
 72
65
 73
4
 40
50.7999999999999972
 49
31.75
 74
0
 49
-6.3499999999999996
 74
0
 49
6.3499999999999996
 74
0
 49
-6.3499999999999996
 74
0
  0
LTYPE
  5
3E
100
AcDbSymbolTableRecord
100
AcDbLinetypeTableRecord
  2
DIVIDE2
 70
0
  3
Divide (.5x) __..__..__..__..__..__..__..__.._
 72
65
 73
6
 40
15.875
 49
6.3499999999999996
 74
0
 49
-3.1749999999999998
 74
0
 49
0.0
 74
0
 49
-3.1749999999999998
 74
0
 49
0.0
 74
0
 49
-3.1749999999999998
 74
0
  0
LTYPE
  5
3F
100
AcDbSymbolTableRecord
100
AcDbLinetypeTableRecord
  2
DASHED
 70
0
  3
Dashed __ __ __ __ __ __ __ __ __ __ __ __ __ _
 72
65
 73
2
 40
19.0500000000000007
 49
12.6999999999999993
 74
0
 49
-6.3499999999999996
 74
0
  0
LTYPE
  5
40
100
AcDbSymbolTableRecord
100
AcDbLinetypeTableRecord
  2
DOTX2
 70
0
  3
Dot (2x) .  .  .  .  .  .  .  .  .  .  .  .  .
 72
65
 73
2
 40
12.6999999999999993
 49
0.0
 74
0
 49
-12.6999999999999993
 74
0
  0
LTYPE
  5
41
100
AcDbSymbolTableRecord
100
AcDbLinetypeTableRecord
  2
DASHEDX2
 70
0
  3
Dashed (2x) ____  ____  ____  ____  ____  ___
 72
65
 73
2
 40
38.1000000000000014
 49
25.3999999999999986
 74
0
 49
-12.6999999999999993
 74
0
  0
LTYPE
  5
42
100
AcDbSymbolTableRecord
100
AcDbLinetypeTableRecord
  2
DOT
 70
0
  3
Dot . . . . . . . . . . . . . . . . . . . . . .
 72
65
 73
2
 40
6.3499999999999996
 49
0.0
 74
0
 49
-6.3499999999999996
 74
0
  0
ENDTAB
  0
TABLE
  2
LAYER
  5
2
100
AcDbSymbolTable
 70
6
  0
LAYER
  5
43
100
AcDbSymbolTableRecord
100
AcDbLayerTableRecord
  2
rezanje
 70
1
 62
-5
420
255
  6
CONTINUOUS
370
200
390
F
  0
LAYER
  5
44
100
AcDbSymbolTableRecord
100
AcDbLayerTableRecord
  2
rezanje_ostavi
 70
0
 62
252
420
10526884
  6
CONTINUOUS
370
200
390
F
  0
LAYER
  5
45
100
AcDbSymbolTableRecord
100
AcDbLayerTableRecord
  2
plocica
 70
0
 62
7
420
0
  6
CONTINUOUS
370
25
390
F
  0
LAYER
  5
46
100
AcDbSymbolTableRecord
100
AcDbLayerTableRecord
  2
rupe
 70
0
 62
6
420
16711935
  6
CONTINUOUS
370
200
390
F
  0
LAYER
  5
47
100
AcDbSymbolTableRecord
100
AcDbLayerTableRecord
  2
bottom
 70
0
 62
1
420
16711680
  6
CONTINUOUS
370
25
390
F
  0
LAYER
  5
10
100
AcDbSymbolTableRecord
100
AcDbLayerTableRecord
  2
0
 70
0
 62
7
420
16777215
  6
CONTINUOUS
370
5
390
F
  0
ENDTAB
  0
TABLE
  2
STYLE
  5
3
100
AcDbSymbolTable
 70
4
  0
STYLE
  5
48
100
AcDbSymbolTableRecord
100
AcDbTextStyleTableRecord
  2
Standard
 70
0
 40
0.0
 41
1.0
 50
0.0
 71
0
 42
2.5
  3

  4

1001
ACAD
1000
txt
1071
0
  0
STYLE
  5
49
100
AcDbSymbolTableRecord
100
AcDbTextStyleTableRecord
  2
textstyle0
 70
0
 40
0.0
 41
1.0
 50
0.0
 71
0
 42
1.0
  3

  4

1001
ACAD
1000
Arial
1071
0
  0
STYLE
  5
4A
100
AcDbSymbolTableRecord
100
AcDbTextStyleTableRecord
  2
textstyle1
 70
0
 40
0.0
 41
1.0
 50
0.0
 71
0
 42
1.0
  3

  4

1001
ACAD
1000
Arial
1071
0
  0
STYLE
  5
4B
100
AcDbSymbolTableRecord
100
AcDbTextStyleTableRecord
  2
textstyle2
 70
0
 40
0.0
 41
1.0
 50
0.0
 71
0
 42
1.0
  3

  4

1001
ACAD
1000
Arial
1071
0
  0
ENDTAB
  0
TABLE
  2
VIEW
  5
6
100
AcDbSymbolTable
 70
0
  0
ENDTAB
  0
TABLE
  2
UCS
  5
7
100
AcDbSymbolTable
 70
0
  0
ENDTAB
  0
TABLE
  2
APPID
  5
9
100
AcDbSymbolTable
 70
1
  0
APPID
  5
12
100
AcDbSymbolTableRecord
100
AcDbRegAppTableRecord
  2
ACAD
 70
0
  0
APPID
  5
4C
100
AcDbSymbolTableRecord
100
AcDbRegAppTableRecord
  2
QCAD
 70
0
  0
ENDTAB
  0
TABLE
  2
DIMSTYLE
  5
A
100
AcDbSymbolTable
 70
1
100
AcDbDimStyleTable
 71
0
  0
DIMSTYLE
105
27
100
AcDbSymbolTableRecord
100
AcDbDimStyleTableRecord
  2
Standard
 41
0.18
 42
0.0625
 43
3.75
 44
0.18
 70
0
 73
0
 74
0
 77
1
 78
8
140
0.18
141
2.5
143
0.03937007874016
147
0.09
171
3
172
1
271
2
272
2
274
3
278
44
283
0
284
8
340
48
  0
ENDTAB
  0
TABLE
  2
BLOCK_RECORD
  5
1
100
AcDbSymbolTable
 70
1
  0
BLOCK_RECORD
  5
1F
100
AcDbSymbolTableRecord
100
AcDbBlockTableRecord
  2
*Model_Space
340
22
  0
BLOCK_RECORD
  5
1B
100
AcDbSymbolTableRecord
100
AcDbBlockTableRecord
  2
*Paper_Space
340
1E
  0
BLOCK_RECORD
  5
23
100
AcDbSymbolTableRecord
100
AcDbBlockTableRecord
  2
*Paper_Space0
340
26
  0
ENDTAB
  0
ENDSEC
  0
SECTION
  2
BLOCKS
  0
BLOCK
  5
20
100
AcDbEntity
  8
0
100
AcDbBlockBegin
  2
*Model_Space
 70
0
 10
0.0
 20
0.0
 30
0.0
  3
*Model_Space
  1

  0
ENDBLK
  5
21
100
AcDbEntity
  8
0
100
AcDbBlockEnd
  0
BLOCK
  5
1C
100
AcDbEntity
 67
1
  8
0
100
AcDbBlockBegin
  2
*Paper_Space
 70
0
 10
0.0
 20
0.0
 30
0.0
  3
*Paper_Space
  1

  0
ENDBLK
  5
1D
100
AcDbEntity
 67
1
  8
0
100
AcDbBlockEnd
  0
BLOCK
  5
24
100
AcDbEntity
  8
0
100
AcDbBlockBegin
  2
*Paper_Space0
 70
0
 10
0.0
 20
0.0
 30
0.0
  3
*Paper_Space0
  1

  0
ENDBLK
  5
25
100
AcDbEntity
  8
0
100
AcDbBlockEnd
  0
ENDSEC
  0
SECTION
  2
ENTITIES
  0
LWPOLYLINE
  5
4D
  8
bottom
 62
256
370
-1
  6
BYLAYER
100
AcDbEntity
100
AcDbPolyline
 90
48
 70
0
 10
29.8976669999999984
 20
24.6483330000000009
 30
0.0
 10
29.8976669999999984
 20
24.6483330000000009
 30
0.0
 10
29.7283329999999992
 20
24.5636669999999988
 30
0.0
 10
29.5590000000000011
 20
24.3520000000000003
 30
0.0
 10
29.5166670000000018
 20
22.5316669999999988
 30
0.0
 10
29.0509999999999984
 20
22.0659999999999989
 30
0.0
 10
28.9663329999999988
 20
21.7273330000000016
 30
0.0
 10
28.9663329999999988
 20
21.5156670000000005
 30
0.0
 10
29.0509999999999984
 20
21.1769999999999996
 30
0.0
 10
29.5590000000000011
 20
20.6690000000000005
 30
0.0
 10
29.8976669999999984
 20
20.5843330000000009
 30
0.0
 10
30.1093329999999995
 20
20.5843330000000009
 30
0.0
 10
30.4480000000000004
 20
20.6690000000000005
 30
0.0
 10
30.9559999999999995
 20
21.1769999999999996
 30
0.0
 10
31.0406669999999991
 20
21.5156670000000005
 30
0.0
 10
31.0406669999999991
 20
21.7273330000000016
 30
0.0
 10
30.9559999999999995
 20
22.0659999999999989
 30
0.0
 10
30.4903329999999997
 20
22.5316669999999988
 30
0.0
 10
30.4903329999999997
 20
23.6746669999999995
 30
0.0
 10
40.0153329999999983
 20
23.6746669999999995
 30
0.0
 10
40.9466669999999979
 20
22.7010000000000005
 30
0.0
 10
40.9466669999999979
 20
14.1496670000000009
 30
0.0
 10
39.3803330000000003
 20
12.625667
 30
0.0
 10
38.4066669999999988
 20
12.625667
 30
0.0
 10
35.2740000000000009
 20
15.7159999999999993
 30
0.0
 10
34.7236669999999989
 20
15.7583330000000004
 30
0.0
 10
34.2580000000000027
 20
16.2240000000000002
 30
0.0
 10
33.9193330000000017
 20
16.3086669999999998
 30
0.0
 10
33.7076670000000007
 20
16.3086669999999998
 30
0.0
 10
33.3689999999999998
 20
16.2240000000000002
 30
0.0
 10
32.8610000000000042
 20
15.7159999999999993
 30
0.0
 10
32.7763330000000011
 20
15.3773330000000001
 30
0.0
 10
32.7763330000000011
 20
15.1656669999999991
 30
0.0
 10
32.8610000000000042
 20
14.827
 30
0.0
 10
33.3689999999999998
 20
14.3190000000000008
 30
0.0
 10
33.7076670000000007
 20
14.2343329999999995
 30
0.0
 10
33.9193330000000017
 20
14.2343329999999995
 30
0.0
 10
34.2580000000000027
 20
14.3190000000000008
 30
0.0
 10
34.7236669999999989
 20
14.7846670000000007
 30
0.0
 10
34.935333
 20
14.7846670000000007
 30
0.0
 10
37.7293329999999969
 20
11.9483329999999999
 30
0.0
 10
37.7293329999999969
 20
10.2973330000000001
 30
0.0
 10
40.0576670000000021
 20
10.2973330000000001
 30
0.0
 10
40.0576670000000021
 20
11.9483329999999999
 30
0.0
 10
41.8780000000000001
 20
13.8109999999999999
 30
0.0
 10
41.8780000000000001
 20
23.0820000000000007
 30
0.0
 10
40.3539999999999992
 20
24.6060000000000016
 30
0.0
 10
29.8976669999999984
 20
24.6483330000000009
 30
0.0
  0
LWPOLYLINE
  5
4E
  8
bottom
 62
256
370
-1
  6
BYLAYER
100
AcDbEntity
100
AcDbPolyline
 90
19
 70
0
 10
10.7206670000000006
 20
24.4366669999999999
 30
0.0
 10
10.7206670000000006
 20
24.4366669999999999
 30
0.0
 10
10.3819999999999997
 20
24.309667000000001
 30
0.0
 10
10.0433330000000005
 20
24.1403329999999983
 30
0.0
 10
9.6623330000000003
 20
23.7169999999999987
 30
0.0
 10
9.4506669999999993
 20
23.2513329999999989
 30
0.0
 10
9.4506669999999993
 20
22.5316669999999988
 30
0.0
 10
9.6623330000000003
 20
22.0236669999999997
 30
0.0
 10
10.1280000000000001
 20
21.6003329999999991
 30
0.0
 10
10.5936669999999999
 20
21.3886670000000017
 30
0.0
 10
11.3133330000000001
 20
21.3886670000000017
 30
0.0
 10
11.7789999999999999
 20
21.6003329999999991
 30
0.0
 10
12.2446669999999997
 20
22.0236669999999997
 30
0.0
 10
12.4563330000000008
 20
22.5316669999999988
 30
0.0
 10
12.4563330000000008
 20
23.2513329999999989
 30
0.0
 10
12.2446669999999997
 20
23.7593330000000016
 30
0.0
 10
11.7789999999999999
 20
24.1826669999999986
 30
0.0
 10
11.3133330000000001
 20
24.3943329999999996
 30
0.0
 10
10.7206670000000006
 20
24.4366669999999999
 30
0.0
  0
LWPOLYLINE
  5
4F
  8
bottom
 62
256
370
-1
  6
BYLAYER
100
AcDbEntity
100
AcDbPolyline
 90
18
 70
0
 10
15.843
 20
23.9710000000000001
 30
0.0
 10
15.843
 20
23.9710000000000001
 30
0.0
 10
15.5466669999999993
 20
23.8440000000000012
 30
0.0
 10
15.2503329999999995
 20
23.5899999999999999
 30
0.0
 10
14.9963329999999999
 20
23.2089999999999996
 30
0.0
 10
14.9540000000000006
 20
22.7856670000000001
 30
0.0
 10
15.0386670000000002
 20
22.4469999999999992
 30
0.0
 10
15.3350000000000009
 20
22.1083329999999982
 30
0.0
 10
15.7159999999999993
 20
21.8543330000000005
 30
0.0
 10
16.1393330000000006
 20
21.8120000000000012
 30
0.0
 10
16.4780000000000015
 20
21.8966670000000008
 30
0.0
 10
16.8166670000000025
 20
22.1930000000000014
 30
0.0
 10
17.0706670000000003
 20
22.5740000000000016
 30
0.0
 10
17.1129999999999995
 20
22.9973330000000011
 30
0.0
 10
17.0283329999999999
 20
23.3359999999999985
 30
0.0
 10
16.7319999999999993
 20
23.6746669999999995
 30
0.0
 10
16.3509999999999991
 20
23.9286670000000008
 30
0.0
 10
15.843
 20
23.9710000000000001
 30
0.0
  0
LWPOLYLINE
  5
50
  8
bottom
 62
256
370
-1
  6
BYLAYER
100
AcDbEntity
100
AcDbPolyline
 90
93
 70
0
 10
18.4676669999999987
 20
23.3783330000000014
 30
0.0
 10
18.4676669999999987
 20
23.3783330000000014
 30
0.0
 10
18.2983329999999995
 20
23.2936669999999992
 30
0.0
 10
15.5890000000000004
 20
20.5420000000000016
 30
0.0
 10
15.5466669999999993
 20
16.2240000000000002
 30
0.0
 10
15.2080000000000002
 20
15.9700000000000006
 30
0.0
 10
14.9963329999999999
 20
15.5890000000000004
 30
0.0
 10
14.9963329999999999
 20
14.9540000000000006
 30
0.0
 10
15.2080000000000002
 20
14.5730000000000004
 30
0.0
 10
15.5466669999999993
 20
14.3190000000000008
 30
0.0
 10
15.5466669999999993
 20
12.8796669999999995
 30
0.0
 10
11.6519999999999992
 20
9.0273329999999987
 30
0.0
 10
11.1440000000000001
 20
9.1966669999999997
 30
0.0
 10
10.7629999999999999
 20
9.1966669999999997
 30
0.0
 10
10.2550000000000008
 20
9.0273329999999987
 30
0.0
 10
6.9106670000000001
 20
12.3293330000000001
 30
0.0
 10
6.9106670000000001
 20
13.0489999999999995
 30
0.0
 10
6.6989999999999998
 20
13.4299999999999997
 30
0.0
 10
6.3603329999999998
 20
13.6839999999999993
 30
0.0
 10
6.3603329999999998
 20
16.8590000000000018
 30
0.0
 10
6.6989999999999998
 20
17.1129999999999995
 30
0.0
 10
6.9106670000000001
 20
17.4939999999999998
 30
0.0
 10
6.9530000000000003
 20
17.9173329999999993
 30
0.0
 10
6.8683329999999998
 20
18.2560000000000002
 30
0.0
 10
6.5720000000000001
 20
18.5946670000000012
 30
0.0
 10
6.1909999999999998
 20
18.8486669999999989
 30
0.0
 10
5.556
 20
18.8486669999999989
 30
0.0
 10
5.1749999999999998
 20
18.5946670000000012
 30
0.0
 10
4.8786670000000001
 20
18.2560000000000002
 30
0.0
 10
4.7940000000000005
 20
17.9173329999999993
 30
0.0
 10
4.8363329999999998
 20
17.4939999999999998
 30
0.0
 10
5.048
 20
17.1129999999999995
 30
0.0
 10
5.3866670000000001
 20
16.8590000000000018
 30
0.0
 10
5.3866670000000001
 20
13.6839999999999993
 30
0.0
 10
5.048
 20
13.4299999999999997
 30
0.0
 10
4.8363329999999998
 20
13.0489999999999995
 30
0.0
 10
4.7940000000000005
 20
12.625667
 30
0.0
 10
4.8786670000000001
 20
12.2870000000000008
 30
0.0
 10
5.1749999999999998
 20
11.9483329999999999
 30
0.0
 10
5.556
 20
11.6943330000000003
 30
0.0
 10
6.2756670000000003
 20
11.6519999999999992
 30
0.0
 10
8.3923330000000007
 20
9.5776669999999999
 30
0.0
 10
7.9690000000000003
 20
9.1120000000000001
 30
0.0
 10
7.9690000000000003
 20
4.9209999999999994
 30
0.0
 10
8.222999999999999
 20
4.6669999999999998
 30
0.0
 10
13.6839999999999993
 20
4.6669999999999998
 30
0.0
 10
13.9380000000000006
 20
4.9209999999999994
 30
0.0
 10
13.9380000000000006
 20
9.1120000000000001
 30
0.0
 10
13.5146669999999993
 20
9.5353329999999996
 30
0.0
 10
16.4780000000000015
 20
12.5410000000000004
 30
0.0
 10
16.5203330000000008
 20
14.3190000000000008
 30
0.0
 10
16.8590000000000018
 20
14.5730000000000004
 30
0.0
 10
17.0706670000000003
 20
14.9540000000000006
 30
0.0
 10
17.0706670000000003
 20
15.5890000000000004
 30
0.0
 10
16.8590000000000018
 20
15.9700000000000006
 30
0.0
 10
16.5203330000000008
 20
16.2240000000000002
 30
0.0
 10
16.5203330000000008
 20
20.2033330000000007
 30
0.0
 10
18.7639999999999993
 20
22.4046669999999999
 30
0.0
 10
22.1930000000000014
 20
22.4046669999999999
 30
0.0
 10
23.463000000000001
 20
21.1769999999999996
 30
0.0
 10
26.5533329999999985
 20
21.1346670000000003
 30
0.0
 10
26.9766669999999991
 20
20.7113329999999998
 30
0.0
 10
27.0189999999999984
 20
20.1610000000000014
 30
0.0
 10
29.8129999999999988
 20
17.3670000000000009
 30
0.0
 10
32.9033330000000035
 20
17.324666999999998
 30
0.0
 10
33.3689999999999998
 20
16.8590000000000018
 30
0.0
 10
33.7076670000000007
 20
16.7743329999999986
 30
0.0
 10
33.9193330000000017
 20
16.7743329999999986
 30
0.0
 10
34.2580000000000027
 20
16.8590000000000018
 30
0.0
 10
34.7659999999999982
 20
17.3670000000000009
 30
0.0
 10
34.8506670000000014
 20
17.7056669999999983
 30
0.0
 10
34.8506670000000014
 20
17.9173329999999993
 30
0.0
 10
34.7659999999999982
 20
18.2560000000000002
 30
0.0
 10
34.2580000000000027
 20
18.7639999999999993
 30
0.0
 10
33.9193330000000017
 20
18.8486669999999989
 30
0.0
 10
33.7076670000000007
 20
18.8486669999999989
 30
0.0
 10
33.3689999999999998
 20
18.7639999999999993
 30
0.0
 10
32.9033330000000035
 20
18.2983329999999995
 30
0.0
 10
30.1516669999999998
 20
18.2983329999999995
 30
0.0
 10
27.9503330000000005
 20
20.5420000000000016
 30
0.0
 10
27.9503330000000005
 20
20.7113329999999998
 30
0.0
 10
28.4160000000000004
 20
21.1769999999999996
 30
0.0
 10
28.500667
 20
21.5156670000000005
 30
0.0
 10
28.500667
 20
21.7273330000000016
 30
0.0
 10
28.4160000000000004
 20
22.0659999999999989
 30
0.0
 10
27.9080000000000013
 20
22.5740000000000016
 30
0.0
 10
27.5693330000000003
 20
22.6586670000000012
 30
0.0
 10
27.3576669999999993
 20
22.6586670000000012
 30
0.0
 10
27.0189999999999984
 20
22.5740000000000016
 30
0.0
 10
26.5533329999999985
 20
22.1083329999999982
 30
0.0
 10
23.8440000000000012
 20
22.1083329999999982
 30
0.0
 10
22.5740000000000016
 20
23.3359999999999985
 30
0.0
 10
18.4676669999999987
 20
23.3783330000000014
 30
0.0
  0
LWPOLYLINE
  5
51
  8
bottom
 62
256
370
-1
  6
BYLAYER
100
AcDbEntity
100
AcDbPolyline
 90
20
 70
0
 10
9.0273329999999987
 20
8.9003329999999998
 30
0.0
 10
9.0273329999999987
 20
8.9003329999999998
 30
0.0
 10
8.9003329999999998
 20
8.7309999999999999
 30
0.0
 10
8.9003329999999998
 20
5.5983330000000002
 30
0.0
 10
13.0066670000000002
 20
5.5983330000000002
 30
0.0
 10
13.0066670000000002
 20
8.7733330000000009
 30
0.0
 10
12.8373329999999992
 20
8.9003329999999998
 30
0.0
 10
12.3293330000000001
 20
8.3499999999999996
 30
0.0
 10
12.4986669999999993
 20
7.8419999999999996
 30
0.0
 10
12.4563330000000008
 20
7.2916670000000003
 30
0.0
 10
12.2446669999999997
 20
6.7836670000000003
 30
0.0
 10
11.7789999999999999
 20
6.3603329999999998
 30
0.0
 10
11.3133330000000001
 20
6.1486669999999997
 30
0.0
 10
10.5936669999999999
 20
6.1486669999999997
 30
0.0
 10
10.1280000000000001
 20
6.3603329999999998
 30
0.0
 10
9.6623330000000003
 20
6.7836670000000003
 30
0.0
 10
9.4506669999999993
 20
7.2916670000000003
 30
0.0
 10
9.4083329999999989
 20
7.8419999999999996
 30
0.0
 10
9.5776669999999999
 20
8.3499999999999996
 30
0.0
 10
9.0273329999999987
 20
8.9003329999999998
 30
0.0
  0
LWPOLYLINE
  5
52
  8
bottom
 62
256
370
-1
  6
BYLAYER
100
AcDbEntity
100
AcDbPolyline
 90
23
 70
0
 10
38.703000000000003
 20
22.7856670000000001
 30
0.0
 10
38.703000000000003
 20
22.7856670000000001
 30
0.0
 10
38.4066669999999988
 20
22.6586670000000012
 30
0.0
 10
38.0679999999999978
 20
22.4469999999999992
 30
0.0
 10
37.8563329999999993
 20
22.1083329999999982
 30
0.0
 10
33.6230000000000047
 20
22.1083329999999982
 30
0.0
 10
33.6230000000000047
 20
22.7010000000000005
 30
0.0
 10
31.4639999999999986
 20
22.7010000000000005
 30
0.0
 10
31.4639999999999986
 20
20.5420000000000016
 30
0.0
 10
33.6230000000000047
 20
20.5420000000000016
 30
0.0
 10
33.6230000000000047
 20
21.1346670000000003
 30
0.0
 10
37.8563329999999993
 20
21.1346670000000003
 30
0.0
 10
38.152667000000001
 20
20.7536670000000001
 30
0.0
 10
38.5760000000000005
 20
20.4996669999999988
 30
0.0
 10
39.2109999999999985
 20
20.4996669999999988
 30
0.0
 10
39.5496669999999995
 20
20.6690000000000005
 30
0.0
 10
39.8036669999999972
 20
20.880666999999999
 30
0.0
 10
40.0153329999999983
 20
21.3039999999999985
 30
0.0
 10
40.0153329999999983
 20
21.9390000000000001
 30
0.0
 10
39.8036669999999972
 20
22.3623329999999996
 30
0.0
 10
39.5496669999999995
 20
22.5740000000000016
 30
0.0
 10
39.2109999999999985
 20
22.7433329999999998
 30
0.0
 10
38.703000000000003
 20
22.7856670000000001
 30
0.0
  0
LWPOLYLINE
  5
53
  8
bottom
 62
256
370
-1
  6
BYLAYER
100
AcDbEntity
100
AcDbPolyline
 90
38
 70
0
 10
18.3829999999999991
 20
21.4310000000000009
 30
0.0
 10
18.3829999999999991
 20
21.4310000000000009
 30
0.0
 10
18.0866669999999985
 20
21.3039999999999985
 30
0.0
 10
17.7903330000000004
 20
21.0500000000000007
 30
0.0
 10
17.5363329999999991
 20
20.6690000000000005
 30
0.0
 10
17.5363329999999991
 20
20.0339999999999989
 30
0.0
 10
17.7479999999999976
 20
19.6529999999999987
 30
0.0
 10
18.0866669999999985
 20
19.3990000000000009
 30
0.0
 10
18.1290000000000013
 20
15.0809999999999995
 30
0.0
 10
21.3886670000000017
 20
11.7789999999999999
 30
0.0
 10
21.3463330000000013
 20
11.3979999999999997
 30
0.0
 10
21.4310000000000009
 20
11.0169999999999995
 30
0.0
 10
21.9390000000000001
 20
10.5090000000000003
 30
0.0
 10
22.277667000000001
 20
10.4243330000000007
 30
0.0
 10
22.4893329999999985
 20
10.4243330000000007
 30
0.0
 10
22.8279999999999994
 20
10.5090000000000003
 30
0.0
 10
23.3359999999999985
 20
11.0169999999999995
 30
0.0
 10
23.4206670000000017
 20
11.3979999999999997
 30
0.0
 10
23.3783330000000014
 20
11.7789999999999999
 30
0.0
 10
23.8016669999999984
 20
12.2446669999999997
 30
0.0
 10
25.2409999999999997
 20
12.2446669999999997
 30
0.0
 10
25.2409999999999997
 20
11.7789999999999999
 30
0.0
 10
27.1460000000000008
 20
11.7789999999999999
 30
0.0
 10
27.1460000000000008
 20
13.6839999999999993
 30
0.0
 10
25.2409999999999997
 20
13.6839999999999993
 30
0.0
 10
25.2409999999999997
 20
13.2183329999999994
 30
0.0
 10
23.463000000000001
 20
13.1760000000000002
 30
0.0
 10
22.7433329999999998
 20
12.4986669999999993
 30
0.0
 10
22.0659999999999989
 20
12.4563330000000008
 30
0.0
 10
19.060333
 20
15.4196670000000005
 30
0.0
 10
19.060333
 20
19.3990000000000009
 30
0.0
 10
19.3990000000000009
 20
19.6529999999999987
 30
0.0
 10
19.6106669999999994
 20
20.0339999999999989
 30
0.0
 10
19.6529999999999987
 20
20.4573329999999984
 30
0.0
 10
19.5683329999999991
 20
20.7959999999999994
 30
0.0
 10
19.2719999999999985
 20
21.1346670000000003
 30
0.0
 10
18.8909999999999982
 20
21.3886670000000017
 30
0.0
 10
18.3829999999999991
 20
21.4310000000000009
 30
0.0
  0
LWPOLYLINE
  5
54
  8
bottom
 62
256
370
-1
  6
BYLAYER
100
AcDbEntity
100
AcDbPolyline
 90
33
 70
0
 10
21.3039999999999985
 20
20.1610000000000014
 30
0.0
 10
21.3039999999999985
 20
20.1610000000000014
 30
0.0
 10
21.3039999999999985
 20
18.0019999999999989
 30
0.0
 10
22.8279999999999994
 20
18.0019999999999989
 30
0.0
 10
25.1986670000000004
 20
15.5890000000000004
 30
0.0
 10
25.1563330000000001
 20
15.2080000000000002
 30
0.0
 10
25.2409999999999997
 20
14.827
 30
0.0
 10
25.7489999999999988
 20
14.3190000000000008
 30
0.0
 10
26.0876669999999997
 20
14.2343329999999995
 30
0.0
 10
26.2993330000000007
 20
14.2343329999999995
 30
0.0
 10
26.6380000000000017
 20
14.3190000000000008
 30
0.0
 10
27.1036670000000015
 20
14.7846670000000007
 30
0.0
 10
27.315332999999999
 20
14.7846670000000007
 30
0.0
 10
28.2466669999999986
 20
13.8109999999999999
 30
0.0
 10
28.2890000000000015
 20
12.5410000000000004
 30
0.0
 10
31.9296669999999985
 20
8.9003329999999998
 30
0.0
 10
33.7076670000000007
 20
8.8580000000000005
 30
0.0
 10
33.7076670000000007
 20
8.1806669999999997
 30
0.0
 10
35.9936670000000021
 20
8.1806669999999997
 30
0.0
 10
35.9936670000000021
 20
10.5090000000000003
 30
0.0
 10
33.7076670000000007
 20
10.5090000000000003
 30
0.0
 10
33.7076670000000007
 20
9.8316669999999995
 30
0.0
 10
32.2683329999999984
 20
9.8316669999999995
 30
0.0
 10
29.2203330000000001
 20
12.9220000000000006
 30
0.0
 10
29.1780000000000008
 20
14.1920000000000002
 30
0.0
 10
27.6539999999999999
 20
15.7159999999999993
 30
0.0
 10
27.1036670000000015
 20
15.7583330000000004
 30
0.0
 10
26.6380000000000017
 20
16.2240000000000002
 30
0.0
 10
26.2570000000000014
 20
16.3086669999999998
 30
0.0
 10
25.8760000000000012
 20
16.2663329999999995
 30
0.0
 10
23.463000000000001
 20
18.6370000000000005
 30
0.0
 10
23.463000000000001
 20
20.1610000000000014
 30
0.0
 10
21.3039999999999985
 20
20.1610000000000014
 30
0.0
  0
LWPOLYLINE
  5
55
  8
bottom
 62
256
370
-1
  6
BYLAYER
100
AcDbEntity
100
AcDbPolyline
 90
18
 70
0
 10
26.0030000000000001
 20
18.8486669999999989
 30
0.0
 10
26.0030000000000001
 20
18.8486669999999989
 30
0.0
 10
25.7489999999999988
 20
18.7639999999999993
 30
0.0
 10
25.2409999999999997
 20
18.2560000000000002
 30
0.0
 10
25.1563330000000001
 20
17.9173329999999993
 30
0.0
 10
25.1563330000000001
 20
17.7056669999999983
 30
0.0
 10
25.2409999999999997
 20
17.3670000000000009
 30
0.0
 10
25.7489999999999988
 20
16.8590000000000018
 30
0.0
 10
26.0876669999999997
 20
16.7743329999999986
 30
0.0
 10
26.2993330000000007
 20
16.7743329999999986
 30
0.0
 10
26.6380000000000017
 20
16.8590000000000018
 30
0.0
 10
27.1460000000000008
 20
17.3670000000000009
 30
0.0
 10
27.2306670000000004
 20
17.7056669999999983
 30
0.0
 10
27.2306670000000004
 20
17.9173329999999993
 30
0.0
 10
27.1460000000000008
 20
18.2560000000000002
 30
0.0
 10
26.6380000000000017
 20
18.7639999999999993
 30
0.0
 10
26.2993330000000007
 20
18.8486669999999989
 30
0.0
 10
26.0030000000000001
 20
18.8486669999999989
 30
0.0
  0
LWPOLYLINE
  5
56
  8
bottom
 62
256
370
-1
  6
BYLAYER
100
AcDbEntity
100
AcDbPolyline
 90
18
 70
0
 10
33.6230000000000047
 20
13.7686670000000007
 30
0.0
 10
33.6230000000000047
 20
13.7686670000000007
 30
0.0
 10
33.3689999999999998
 20
13.6839999999999993
 30
0.0
 10
32.8610000000000042
 20
13.1760000000000002
 30
0.0
 10
32.7763330000000011
 20
12.8373329999999992
 30
0.0
 10
32.7763330000000011
 20
12.625667
 30
0.0
 10
32.8610000000000042
 20
12.2870000000000008
 30
0.0
 10
33.3689999999999998
 20
11.7789999999999999
 30
0.0
 10
33.7076670000000007
 20
11.6943330000000003
 30
0.0
 10
33.9193330000000017
 20
11.6943330000000003
 30
0.0
 10
34.2580000000000027
 20
11.7789999999999999
 30
0.0
 10
34.7659999999999982
 20
12.2870000000000008
 30
0.0
 10
34.8506670000000014
 20
12.625667
 30
0.0
 10
34.8506670000000014
 20
12.8373329999999992
 30
0.0
 10
34.7659999999999982
 20
13.1760000000000002
 30
0.0
 10
34.2580000000000027
 20
13.6839999999999993
 30
0.0
 10
33.9193330000000017
 20
13.7686670000000007
 30
0.0
 10
33.6230000000000047
 20
13.7686670000000007
 30
0.0
  0
LWPOLYLINE
  5
57
  8
bottom
 62
256
370
-1
  6
BYLAYER
100
AcDbEntity
100
AcDbPolyline
 90
31
 70
0
 10
18.3829999999999991
 20
11.2710000000000008
 30
0.0
 10
18.3829999999999991
 20
11.2710000000000008
 30
0.0
 10
18.0866669999999985
 20
11.1440000000000001
 30
0.0
 10
17.7903330000000004
 20
10.8900000000000006
 30
0.0
 10
17.5363329999999991
 20
10.5090000000000003
 30
0.0
 10
17.4939999999999998
 20
10.0856670000000008
 30
0.0
 10
17.5786669999999994
 20
9.7469999999999999
 30
0.0
 10
17.875
 20
9.4083329999999989
 30
0.0
 10
18.2560000000000002
 20
9.1543330000000012
 30
0.0
 10
18.9756670000000014
 20
9.1120000000000001
 30
0.0
 10
19.2296669999999992
 20
8.9003329999999998
 30
0.0
 10
23.6323329999999991
 20
8.8156670000000013
 30
0.0
 10
23.9286670000000008
 20
8.4770000000000003
 30
0.0
 10
24.3520000000000003
 20
8.222999999999999
 30
0.0
 10
24.9869999999999983
 20
8.222999999999999
 30
0.0
 10
25.3256669999999993
 20
8.3923330000000007
 30
0.0
 10
25.5796670000000006
 20
8.6039999999999992
 30
0.0
 10
25.7913330000000016
 20
9.0273329999999987
 30
0.0
 10
25.7913330000000016
 20
9.6623330000000003
 30
0.0
 10
25.5796670000000006
 20
10.0856670000000008
 30
0.0
 10
25.3256669999999993
 20
10.2973330000000001
 30
0.0
 10
24.9869999999999983
 20
10.4666669999999993
 30
0.0
 10
24.3520000000000003
 20
10.4666669999999993
 30
0.0
 10
23.9286670000000008
 20
10.2126669999999997
 30
0.0
 10
23.6323329999999991
 20
9.8316669999999995
 30
0.0
 10
19.6106669999999994
 20
9.8316669999999995
 30
0.0
 10
19.6529999999999987
 20
10.2973330000000001
 30
0.0
 10
19.5683329999999991
 20
10.6359999999999992
 30
0.0
 10
19.2719999999999985
 20
10.9746670000000002
 30
0.0
 10
18.8909999999999982
 20
11.2286669999999997
 30
0.0
 10
18.3829999999999991
 20
11.2710000000000008
 30
0.0
  0
LWPOLYLINE
  5
58
  8
bottom
 62
256
370
-1
  6
BYLAYER
100
AcDbEntity
100
AcDbPolyline
 90
18
 70
0
 10
15.843
 20
8.7309999999999999
 30
0.0
 10
15.843
 20
8.7309999999999999
 30
0.0
 10
15.5466669999999993
 20
8.6039999999999992
 30
0.0
 10
15.2503329999999995
 20
8.3499999999999996
 30
0.0
 10
14.9963329999999999
 20
7.9690000000000003
 30
0.0
 10
14.9540000000000006
 20
7.5456669999999999
 30
0.0
 10
15.0386670000000002
 20
7.2069999999999999
 30
0.0
 10
15.3350000000000009
 20
6.8683329999999998
 30
0.0
 10
15.7159999999999993
 20
6.6143330000000002
 30
0.0
 10
16.1393330000000006
 20
6.5720000000000001
 30
0.0
 10
16.4780000000000015
 20
6.6566669999999997
 30
0.0
 10
16.8166670000000025
 20
6.9530000000000003
 30
0.0
 10
17.0706670000000003
 20
7.3339999999999996
 30
0.0
 10
17.1129999999999995
 20
7.757333
 30
0.0
 10
17.0283329999999999
 20
8.0960000000000001
 30
0.0
 10
16.7319999999999993
 20
8.434667000000001
 30
0.0
 10
16.3509999999999991
 20
8.6886669999999988
 30
0.0
 10
15.843
 20
8.7309999999999999
 30
0.0
  0
LINE
  5
59
100
AcDbEntity
100
AcDbLine
  8
plocica
 62
256
370
-1
  6
BYLAYER
 10
2.0
 20
2.0
 30
0.0
 11
45.0
 21
2.0
 31
0.0
  0
LINE
  5
5A
100
AcDbEntity
100
AcDbLine
  8
plocica
 62
256
370
-1
  6
BYLAYER
 10
2.0
 20
2.0
 30
0.0
 11
2.0000000000000018
 21
28.0
 31
0.0
  0
LINE
  5
5B
100
AcDbEntity
100
AcDbLine
  8
plocica
 62
256
370
-1
  6
BYLAYER
 10
45.0
 20
2.0
 30
0.0
 11
45.0
 21
28.0
 31
0.0
  0
LINE
  5
5C
100
AcDbEntity
100
AcDbLine
  8
plocica
 62
256
370
-1
  6
BYLAYER
 10
2.0000000000000018
 20
28.0
 30
0.0
 11
45.0
 21
28.0
 31
0.0
  0
POINT
  5
5D
100
AcDbEntity
100
AcDbPoint
  8
rupe
 62
256
370
-1
  6
BYLAYER
 10
16.1000000000000014
 20
7.7199999999999989
 30
0.0
  0
POINT
  5
5E
100
AcDbEntity
100
AcDbPoint
  8
rupe
 62
256
370
-1
  6
BYLAYER
 10
18.6400000000000006
 20
10.2599999999999998
 30
0.0
  0
POINT
  5
5F
100
AcDbEntity
100
AcDbPoint
  8
rupe
 62
256
370
-1
  6
BYLAYER
 10
22.4499999999999993
 20
11.5299999999999994
 30
0.0
  0
POINT
  5
60
100
AcDbEntity
100
AcDbPoint
  8
rupe
 62
256
370
-1
  6
BYLAYER
 10
24.7569090000000003
 20
9.3954950000000004
 30
0.0
  0
POINT
  5
61
100
AcDbEntity
100
AcDbPoint
  8
rupe
 62
256
370
-1
  6
BYLAYER
 10
26.259999999999998
 20
12.7999999999999989
 30
0.0
  0
POINT
  5
62
100
AcDbEntity
100
AcDbPoint
  8
rupe
 62
256
370
-1
  6
BYLAYER
 10
26.259999999999998
 20
15.3399999999999999
 30
0.0
  0
POINT
  5
63
100
AcDbEntity
100
AcDbPoint
  8
rupe
 62
256
370
-1
  6
BYLAYER
 10
26.259999999999998
 20
17.879999999999999
 30
0.0
  0
POINT
  5
64
100
AcDbEntity
100
AcDbPoint
  8
rupe
 62
256
370
-1
  6
BYLAYER
 10
27.5299999999999976
 20
21.6899999999999977
 30
0.0
  0
POINT
  5
65
100
AcDbEntity
100
AcDbPoint
  8
rupe
 62
256
370
-1
  6
BYLAYER
 10
30.0700000000000003
 20
21.6899999999999977
 30
0.0
  0
POINT
  5
66
100
AcDbEntity
100
AcDbPoint
  8
rupe
 62
256
370
-1
  6
BYLAYER
 10
32.6099999999999994
 20
21.6899999999999977
 30
0.0
  0
POINT
  5
67
100
AcDbEntity
100
AcDbPoint
  8
rupe
 62
256
370
-1
  6
BYLAYER
 10
33.8799999999999955
 20
17.879999999999999
 30
0.0
  0
POINT
  5
68
100
AcDbEntity
100
AcDbPoint
  8
rupe
 62
256
370
-1
  6
BYLAYER
 10
33.8799999999999955
 20
15.3399999999999999
 30
0.0
  0
POINT
  5
69
100
AcDbEntity
100
AcDbPoint
  8
rupe
 62
256
370
-1
  6
BYLAYER
 10
33.8799999999999955
 20
12.7999999999999989
 30
0.0
  0
POINT
  5
6A
100
AcDbEntity
100
AcDbPoint
  8
rupe
 62
256
370
-1
  6
BYLAYER
 10
34.9169089999999969
 20
9.3954950000000004
 30
0.0
  0
POINT
  5
6B
100
AcDbEntity
100
AcDbPoint
  8
rupe
 62
256
370
-1
  6
BYLAYER
 10
38.9600000000000009
 20
11.5299999999999994
 30
0.0
  0
POINT
  5
6C
100
AcDbEntity
100
AcDbPoint
  8
rupe
 62
256
370
-1
  6
BYLAYER
 10
38.9600000000000009
 20
21.6899999999999977
 30
0.0
  0
POINT
  5
6D
100
AcDbEntity
100
AcDbPoint
  8
rupe
 62
256
370
-1
  6
BYLAYER
 10
22.4499999999999993
 20
19.1499999999999986
 30
0.0
  0
POINT
  5
6E
100
AcDbEntity
100
AcDbPoint
  8
rupe
 62
256
370
-1
  6
BYLAYER
 10
18.6400000000000006
 20
20.4199999999999982
 30
0.0
  0
POINT
  5
6F
100
AcDbEntity
100
AcDbPoint
  8
rupe
 62
256
370
-1
  6
BYLAYER
 10
16.1000000000000014
 20
22.9600000000000009
 30
0.0
  0
POINT
  5
70
100
AcDbEntity
100
AcDbPoint
  8
rupe
 62
256
370
-1
  6
BYLAYER
 10
11.0199999999999996
 20
22.9600000000000009
 30
0.0
  0
POINT
  5
71
100
AcDbEntity
100
AcDbPoint
  8
rupe
 62
256
370
-1
  6
BYLAYER
 10
5.9399999999999995
 20
17.879999999999999
 30
0.0
  0
POINT
  5
72
100
AcDbEntity
100
AcDbPoint
  8
rupe
 62
256
370
-1
  6
BYLAYER
 10
5.9399999999999995
 20
12.7999999999999989
 30
0.0
  0
POINT
  5
73
100
AcDbEntity
100
AcDbPoint
  8
rupe
 62
256
370
-1
  6
BYLAYER
 10
16.1000000000000014
 20
15.3399999999999999
 30
0.0
  0
POINT
  5
74
100
AcDbEntity
100
AcDbPoint
  8
rupe
 62
256
370
-1
  6
BYLAYER
 10
11.0199999999999996
 20
7.7199999999999989
 30
0.0
  0
MTEXT
  5
75
100
AcDbEntity
100
AcDbMText
  8
rupe
 62
256
370
-1
  6
BYLAYER
 10
25.0
 20
6.0
 30
0.0
 40
1.0
 41
0.0
 71
1
 72
1
  1
\fMonospace|b0|i0|c0|p0;\H2;midiout@he
  7
textstyle0
 50
0.0
 73
2
 44
1.0
  0
POINT
  5
76
100
AcDbEntity
100
AcDbPoint
  8
rupe
 62
256
370
-1
  6
BYLAYER
 10
11.0199999999999996
 20
35.7199999999999989
 30
0.0
  0
MTEXT
  5
77
100
AcDbEntity
100
AcDbMText
  8
rupe
 62
256
370
-1
  6
BYLAYER
 10
25.0
 20
34.0
 30
0.0
 40
1.0
 41
0.0
 71
1
 72
1
  1
\fMonospace|b0|i0|c0|p0;\H2;midiout@he
  7
textstyle1
 50
0.0
 73
2
 44
1.0
  0
LWPOLYLINE
  5
78
  8
bottom
 62
256
370
-1
  6
BYLAYER
100
AcDbEntity
100
AcDbPolyline
 90
48
 70
0
 10
29.8976669999999984
 20
52.6483330000000009
 30
0.0
 10
29.8976669999999984
 20
52.6483330000000009
 30
0.0
 10
29.7283329999999992
 20
52.5636669999999953
 30
0.0
 10
29.5590000000000011
 20
52.3520000000000039
 30
0.0
 10
29.5166670000000018
 20
50.5316669999999988
 30
0.0
 10
29.0509999999999984
 20
50.0660000000000025
 30
0.0
 10
28.9663329999999988
 20
49.7273330000000016
 30
0.0
 10
28.9663329999999988
 20
49.5156670000000005
 30
0.0
 10
29.0509999999999984
 20
49.1769999999999996
 30
0.0
 10
29.5590000000000011
 20
48.6689999999999969
 30
0.0
 10
29.8976669999999984
 20
48.5843330000000009
 30
0.0
 10
30.1093329999999995
 20
48.5843330000000009
 30
0.0
 10
30.4480000000000004
 20
48.6689999999999969
 30
0.0
 10
30.9559999999999995
 20
49.1769999999999996
 30
0.0
 10
31.0406669999999991
 20
49.5156670000000005
 30
0.0
 10
31.0406669999999991
 20
49.7273330000000016
 30
0.0
 10
30.9559999999999995
 20
50.0660000000000025
 30
0.0
 10
30.4903329999999997
 20
50.5316669999999988
 30
0.0
 10
30.4903329999999997
 20
51.6746669999999995
 30
0.0
 10
40.0153329999999983
 20
51.6746669999999995
 30
0.0
 10
40.9466669999999979
 20
50.7010000000000005
 30
0.0
 10
40.9466669999999979
 20
42.1496670000000009
 30
0.0
 10
39.3803330000000003
 20
40.625667
 30
0.0
 10
38.4066669999999988
 20
40.625667
 30
0.0
 10
35.2740000000000009
 20
43.7160000000000011
 30
0.0
 10
34.7236669999999989
 20
43.7583330000000004
 30
0.0
 10
34.2580000000000027
 20
44.2240000000000038
 30
0.0
 10
33.9193330000000017
 20
44.3086669999999998
 30
0.0
 10
33.7076670000000007
 20
44.3086669999999998
 30
0.0
 10
33.3689999999999998
 20
44.2240000000000038
 30
0.0
 10
32.8610000000000042
 20
43.7160000000000011
 30
0.0
 10
32.7763330000000011
 20
43.3773330000000001
 30
0.0
 10
32.7763330000000011
 20
43.1656669999999991
 30
0.0
 10
32.8610000000000042
 20
42.8269999999999982
 30
0.0
 10
33.3689999999999998
 20
42.3190000000000026
 30
0.0
 10
33.7076670000000007
 20
42.2343329999999995
 30
0.0
 10
33.9193330000000017
 20
42.2343329999999995
 30
0.0
 10
34.2580000000000027
 20
42.3190000000000026
 30
0.0
 10
34.7236669999999989
 20
42.7846669999999989
 30
0.0
 10
34.935333
 20
42.7846669999999989
 30
0.0
 10
37.7293329999999969
 20
39.9483329999999981
 30
0.0
 10
37.7293329999999969
 20
38.2973330000000018
 30
0.0
 10
40.0576670000000021
 20
38.2973330000000018
 30
0.0
 10
40.0576670000000021
 20
39.9483329999999981
 30
0.0
 10
41.8780000000000001
 20
41.8109999999999999
 30
0.0
 10
41.8780000000000001
 20
51.0820000000000007
 30
0.0
 10
40.3539999999999992
 20
52.6060000000000016
 30
0.0
 10
29.8976669999999984
 20
52.6483330000000009
 30
0.0
  0
LWPOLYLINE
  5
79
  8
bottom
 62
256
370
-1
  6
BYLAYER
100
AcDbEntity
100
AcDbPolyline
 90
19
 70
0
 10
10.7206670000000006
 20
52.4366669999999999
 30
0.0
 10
10.7206670000000006
 20
52.4366669999999999
 30
0.0
 10
10.3819999999999997
 20
52.3096670000000046
 30
0.0
 10
10.0433330000000005
 20
52.1403329999999983
 30
0.0
 10
9.6623330000000003
 20
51.7169999999999987
 30
0.0
 10
9.4506669999999993
 20
51.2513330000000025
 30
0.0
 10
9.4506669999999993
 20
50.5316669999999988
 30
0.0
 10
9.6623330000000003
 20
50.0236670000000032
 30
0.0
 10
10.1280000000000001
 20
49.6003329999999991
 30
0.0
 10
10.5936669999999999
 20
49.3886669999999981
 30
0.0
 10
11.3133330000000001
 20
49.3886669999999981
 30
0.0
 10
11.7789999999999999
 20
49.6003329999999991
 30
0.0
 10
12.2446669999999997
 20
50.0236670000000032
 30
0.0
 10
12.4563330000000008
 20
50.5316669999999988
 30
0.0
 10
12.4563330000000008
 20
51.2513330000000025
 30
0.0
 10
12.2446669999999997
 20
51.759332999999998
 30
0.0
 10
11.7789999999999999
 20
52.182666999999995
 30
0.0
 10
11.3133330000000001
 20
52.3943330000000032
 30
0.0
 10
10.7206670000000006
 20
52.4366669999999999
 30
0.0
  0
LWPOLYLINE
  5
7A
  8
bottom
 62
256
370
-1
  6
BYLAYER
100
AcDbEntity
100
AcDbPolyline
 90
18
 70
0
 10
15.843
 20
51.9710000000000036
 30
0.0
 10
15.843
 20
51.9710000000000036
 30
0.0
 10
15.5466669999999993
 20
51.8440000000000012
 30
0.0
 10
15.2503329999999995
 20
51.5900000000000034
 30
0.0
 10
14.9963329999999999
 20
51.2090000000000032
 30
0.0
 10
14.9540000000000006
 20
50.7856670000000037
 30
0.0
 10
15.0386670000000002
 20
50.4470000000000027
 30
0.0
 10
15.3350000000000009
 20
50.1083330000000018
 30
0.0
 10
15.7159999999999993
 20
49.8543329999999969
 30
0.0
 10
16.1393330000000006
 20
49.8119999999999976
 30
0.0
 10
16.4780000000000015
 20
49.8966670000000008
 30
0.0
 10
16.8166670000000025
 20
50.1929999999999978
 30
0.0
 10
17.0706670000000003
 20
50.5739999999999981
 30
0.0
 10
17.1129999999999995
 20
50.9973329999999976
 30
0.0
 10
17.0283329999999999
 20
51.3359999999999985
 30
0.0
 10
16.7319999999999993
 20
51.6746669999999995
 30
0.0
 10
16.3509999999999991
 20
51.9286670000000044
 30
0.0
 10
15.843
 20
51.9710000000000036
 30
0.0
  0
LWPOLYLINE
  5
7B
  8
bottom
 62
256
370
-1
  6
BYLAYER
100
AcDbEntity
100
AcDbPolyline
 90
93
 70
0
 10
18.4676669999999987
 20
51.3783329999999978
 30
0.0
 10
18.4676669999999987
 20
51.3783329999999978
 30
0.0
 10
18.2983329999999995
 20
51.2936669999999992
 30
0.0
 10
15.5890000000000004
 20
48.5420000000000016
 30
0.0
 10
15.5466669999999993
 20
44.2240000000000038
 30
0.0
 10
15.2080000000000002
 20
43.9699999999999989
 30
0.0
 10
14.9963329999999999
 20
43.5889999999999986
 30
0.0
 10
14.9963329999999999
 20
42.9540000000000006
 30
0.0
 10
15.2080000000000002
 20
42.5730000000000004
 30
0.0
 10
15.5466669999999993
 20
42.3190000000000026
 30
0.0
 10
15.5466669999999993
 20
40.8796669999999978
 30
0.0
 10
11.6519999999999992
 20
37.0273329999999987
 30
0.0
 10
11.1440000000000001
 20
37.1966669999999979
 30
0.0
 10
10.7629999999999999
 20
37.1966669999999979
 30
0.0
 10
10.2550000000000008
 20
37.0273329999999987
 30
0.0
 10
6.9106670000000001
 20
40.3293329999999983
 30
0.0
 10
6.9106670000000001
 20
41.0489999999999995
 30
0.0
 10
6.6989999999999998
 20
41.4299999999999997
 30
0.0
 10
6.3603329999999998
 20
41.6839999999999975
 30
0.0
 10
6.3603329999999998
 20
44.8590000000000018
 30
0.0
 10
6.6989999999999998
 20
45.1129999999999995
 30
0.0
 10
6.9106670000000001
 20
45.4939999999999998
 30
0.0
 10
6.9530000000000003
 20
45.9173329999999993
 30
0.0
 10
6.8683329999999998
 20
46.2560000000000002
 30
0.0
 10
6.5720000000000001
 20
46.5946670000000012
 30
0.0
 10
6.1909999999999998
 20
46.8486669999999989
 30
0.0
 10
5.556
 20
46.8486669999999989
 30
0.0
 10
5.1749999999999998
 20
46.5946670000000012
 30
0.0
 10
4.8786670000000001
 20
46.2560000000000002
 30
0.0
 10
4.7940000000000005
 20
45.9173329999999993
 30
0.0
 10
4.8363329999999998
 20
45.4939999999999998
 30
0.0
 10
5.048
 20
45.1129999999999995
 30
0.0
 10
5.3866670000000001
 20
44.8590000000000018
 30
0.0
 10
5.3866670000000001
 20
41.6839999999999975
 30
0.0
 10
5.048
 20
41.4299999999999997
 30
0.0
 10
4.8363329999999998
 20
41.0489999999999995
 30
0.0
 10
4.7940000000000005
 20
40.625667
 30
0.0
 10
4.8786670000000001
 20
40.286999999999999
 30
0.0
 10
5.1749999999999998
 20
39.9483329999999981
 30
0.0
 10
5.556
 20
39.6943330000000003
 30
0.0
 10
6.2756670000000003
 20
39.652000000000001
 30
0.0
 10
8.3923330000000007
 20
37.5776669999999982
 30
0.0
 10
7.9690000000000003
 20
37.1120000000000019
 30
0.0
 10
7.9690000000000003
 20
32.9209999999999994
 30
0.0
 10
8.222999999999999
 20
32.6670000000000016
 30
0.0
 10
13.6839999999999993
 20
32.6670000000000016
 30
0.0
 10
13.9380000000000006
 20
32.9209999999999994
 30
0.0
 10
13.9380000000000006
 20
37.1120000000000019
 30
0.0
 10
13.5146669999999993
 20
37.5353330000000014
 30
0.0
 10
16.4780000000000015
 20
40.5409999999999968
 30
0.0
 10
16.5203330000000008
 20
42.3190000000000026
 30
0.0
 10
16.8590000000000018
 20
42.5730000000000004
 30
0.0
 10
17.0706670000000003
 20
42.9540000000000006
 30
0.0
 10
17.0706670000000003
 20
43.5889999999999986
 30
0.0
 10
16.8590000000000018
 20
43.9699999999999989
 30
0.0
 10
16.5203330000000008
 20
44.2240000000000038
 30
0.0
 10
16.5203330000000008
 20
48.2033330000000007
 30
0.0
 10
18.7639999999999993
 20
50.4046670000000034
 30
0.0
 10
22.1930000000000014
 20
50.4046670000000034
 30
0.0
 10
23.463000000000001
 20
49.1769999999999996
 30
0.0
 10
26.5533329999999985
 20
49.1346670000000003
 30
0.0
 10
26.9766669999999991
 20
48.7113329999999962
 30
0.0
 10
27.0189999999999984
 20
48.1610000000000014
 30
0.0
 10
29.8129999999999988
 20
45.3670000000000044
 30
0.0
 10
32.9033330000000035
 20
45.324666999999998
 30
0.0
 10
33.3689999999999998
 20
44.8590000000000018
 30
0.0
 10
33.7076670000000007
 20
44.7743329999999986
 30
0.0
 10
33.9193330000000017
 20
44.7743329999999986
 30
0.0
 10
34.2580000000000027
 20
44.8590000000000018
 30
0.0
 10
34.7659999999999982
 20
45.3670000000000044
 30
0.0
 10
34.8506670000000014
 20
45.7056669999999983
 30
0.0
 10
34.8506670000000014
 20
45.9173329999999993
 30
0.0
 10
34.7659999999999982
 20
46.2560000000000002
 30
0.0
 10
34.2580000000000027
 20
46.7639999999999958
 30
0.0
 10
33.9193330000000017
 20
46.8486669999999989
 30
0.0
 10
33.7076670000000007
 20
46.8486669999999989
 30
0.0
 10
33.3689999999999998
 20
46.7639999999999958
 30
0.0
 10
32.9033330000000035
 20
46.2983329999999995
 30
0.0
 10
30.1516669999999998
 20
46.2983329999999995
 30
0.0
 10
27.9503330000000005
 20
48.5420000000000016
 30
0.0
 10
27.9503330000000005
 20
48.7113329999999962
 30
0.0
 10
28.4160000000000004
 20
49.1769999999999996
 30
0.0
 10
28.500667
 20
49.5156670000000005
 30
0.0
 10
28.500667
 20
49.7273330000000016
 30
0.0
 10
28.4160000000000004
 20
50.0660000000000025
 30
0.0
 10
27.9080000000000013
 20
50.5739999999999981
 30
0.0
 10
27.5693330000000003
 20
50.6586670000000012
 30
0.0
 10
27.3576669999999993
 20
50.6586670000000012
 30
0.0
 10
27.0189999999999984
 20
50.5739999999999981
 30
0.0
 10
26.5533329999999985
 20
50.1083330000000018
 30
0.0
 10
23.8440000000000012
 20
50.1083330000000018
 30
0.0
 10
22.5740000000000016
 20
51.3359999999999985
 30
0.0
 10
18.4676669999999987
 20
51.3783329999999978
 30
0.0
  0
LWPOLYLINE
  5
7C
  8
bottom
 62
256
370
-1
  6
BYLAYER
100
AcDbEntity
100
AcDbPolyline
 90
20
 70
0
 10
9.0273329999999987
 20
36.9003330000000034
 30
0.0
 10
9.0273329999999987
 20
36.9003330000000034
 30
0.0
 10
8.9003329999999998
 20
36.7310000000000016
 30
0.0
 10
8.9003329999999998
 20
33.5983329999999967
 30
0.0
 10
13.0066670000000002
 20
33.5983329999999967
 30
0.0
 10
13.0066670000000002
 20
36.7733330000000009
 30
0.0
 10
12.8373329999999992
 20
36.9003330000000034
 30
0.0
 10
12.3293330000000001
 20
36.3500000000000014
 30
0.0
 10
12.4986669999999993
 20
35.8419999999999987
 30
0.0
 10
12.4563330000000008
 20
35.2916670000000039
 30
0.0
 10
12.2446669999999997
 20
34.7836670000000012
 30
0.0
 10
11.7789999999999999
 20
34.3603329999999971
 30
0.0
 10
11.3133330000000001
 20
34.1486670000000032
 30
0.0
 10
10.5936669999999999
 20
34.1486670000000032
 30
0.0
 10
10.1280000000000001
 20
34.3603329999999971
 30
0.0
 10
9.6623330000000003
 20
34.7836670000000012
 30
0.0
 10
9.4506669999999993
 20
35.2916670000000039
 30
0.0
 10
9.4083329999999989
 20
35.8419999999999987
 30
0.0
 10
9.5776669999999999
 20
36.3500000000000014
 30
0.0
 10
9.0273329999999987
 20
36.9003330000000034
 30
0.0
  0
LWPOLYLINE
  5
7D
  8
bottom
 62
256
370
-1
  6
BYLAYER
100
AcDbEntity
100
AcDbPolyline
 90
23
 70
0
 10
38.703000000000003
 20
50.7856670000000037
 30
0.0
 10
38.703000000000003
 20
50.7856670000000037
 30
0.0
 10
38.4066669999999988
 20
50.6586670000000012
 30
0.0
 10
38.0679999999999978
 20
50.4470000000000027
 30
0.0
 10
37.8563329999999993
 20
50.1083330000000018
 30
0.0
 10
33.6230000000000047
 20
50.1083330000000018
 30
0.0
 10
33.6230000000000047
 20
50.7010000000000005
 30
0.0
 10
31.4639999999999986
 20
50.7010000000000005
 30
0.0
 10
31.4639999999999986
 20
48.5420000000000016
 30
0.0
 10
33.6230000000000047
 20
48.5420000000000016
 30
0.0
 10
33.6230000000000047
 20
49.1346670000000003
 30
0.0
 10
37.8563329999999993
 20
49.1346670000000003
 30
0.0
 10
38.152667000000001
 20
48.7536670000000001
 30
0.0
 10
38.5760000000000005
 20
48.4996670000000023
 30
0.0
 10
39.2109999999999985
 20
48.4996670000000023
 30
0.0
 10
39.5496669999999995
 20
48.6689999999999969
 30
0.0
 10
39.8036669999999972
 20
48.8806670000000025
 30
0.0
 10
40.0153329999999983
 20
49.304000000000002
 30
0.0
 10
40.0153329999999983
 20
49.9390000000000001
 30
0.0
 10
39.8036669999999972
 20
50.3623329999999996
 30
0.0
 10
39.5496669999999995
 20
50.5739999999999981
 30
0.0
 10
39.2109999999999985
 20
50.7433329999999998
 30
0.0
 10
38.703000000000003
 20
50.7856670000000037
 30
0.0
  0
LWPOLYLINE
  5
7E
  8
bottom
 62
256
370
-1
  6
BYLAYER
100
AcDbEntity
100
AcDbPolyline
 90
38
 70
0
 10
18.3829999999999991
 20
49.4309999999999974
 30
0.0
 10
18.3829999999999991
 20
49.4309999999999974
 30
0.0
 10
18.0866669999999985
 20
49.304000000000002
 30
0.0
 10
17.7903330000000004
 20
49.0499999999999972
 30
0.0
 10
17.5363329999999991
 20
48.6689999999999969
 30
0.0
 10
17.5363329999999991
 20
48.0339999999999989
 30
0.0
 10
17.7479999999999976
 20
47.6529999999999987
 30
0.0
 10
18.0866669999999985
 20
47.3990000000000009
 30
0.0
 10
18.1290000000000013
 20
43.0810000000000031
 30
0.0
 10
21.3886670000000017
 20
39.7789999999999964
 30
0.0
 10
21.3463330000000013
 20
39.3979999999999961
 30
0.0
 10
21.4310000000000009
 20
39.0169999999999959
 30
0.0
 10
21.9390000000000001
 20
38.5090000000000003
 30
0.0
 10
22.277667000000001
 20
38.4243330000000043
 30
0.0
 10
22.4893329999999985
 20
38.4243330000000043
 30
0.0
 10
22.8279999999999994
 20
38.5090000000000003
 30
0.0
 10
23.3359999999999985
 20
39.0169999999999959
 30
0.0
 10
23.4206670000000017
 20
39.3979999999999961
 30
0.0
 10
23.3783330000000014
 20
39.7789999999999964
 30
0.0
 10
23.8016669999999984
 20
40.2446669999999997
 30
0.0
 10
25.2409999999999997
 20
40.2446669999999997
 30
0.0
 10
25.2409999999999997
 20
39.7789999999999964
 30
0.0
 10
27.1460000000000008
 20
39.7789999999999964
 30
0.0
 10
27.1460000000000008
 20
41.6839999999999975
 30
0.0
 10
25.2409999999999997
 20
41.6839999999999975
 30
0.0
 10
25.2409999999999997
 20
41.2183330000000012
 30
0.0
 10
23.463000000000001
 20
41.1760000000000019
 30
0.0
 10
22.7433329999999998
 20
40.4986669999999975
 30
0.0
 10
22.0659999999999989
 20
40.4563330000000008
 30
0.0
 10
19.060333
 20
43.419667000000004
 30
0.0
 10
19.060333
 20
47.3990000000000009
 30
0.0
 10
19.3990000000000009
 20
47.6529999999999987
 30
0.0
 10
19.6106669999999994
 20
48.0339999999999989
 30
0.0
 10
19.6529999999999987
 20
48.4573329999999984
 30
0.0
 10
19.5683329999999991
 20
48.7959999999999994
 30
0.0
 10
19.2719999999999985
 20
49.1346670000000003
 30
0.0
 10
18.8909999999999982
 20
49.3886669999999981
 30
0.0
 10
18.3829999999999991
 20
49.4309999999999974
 30
0.0
  0
LWPOLYLINE
  5
7F
  8
bottom
 62
256
370
-1
  6
BYLAYER
100
AcDbEntity
100
AcDbPolyline
 90
33
 70
0
 10
21.3039999999999985
 20
48.1610000000000014
 30
0.0
 10
21.3039999999999985
 20
48.1610000000000014
 30
0.0
 10
21.3039999999999985
 20
46.0019999999999953
 30
0.0
 10
22.8279999999999994
 20
46.0019999999999953
 30
0.0
 10
25.1986670000000004
 20
43.5889999999999986
 30
0.0
 10
25.1563330000000001
 20
43.2079999999999984
 30
0.0
 10
25.2409999999999997
 20
42.8269999999999982
 30
0.0
 10
25.7489999999999988
 20
42.3190000000000026
 30
0.0
 10
26.0876669999999997
 20
42.2343329999999995
 30
0.0
 10
26.2993330000000007
 20
42.2343329999999995
 30
0.0
 10
26.6380000000000017
 20
42.3190000000000026
 30
0.0
 10
27.1036670000000015
 20
42.7846669999999989
 30
0.0
 10
27.315332999999999
 20
42.7846669999999989
 30
0.0
 10
28.2466669999999986
 20
41.8109999999999999
 30
0.0
 10
28.2890000000000015
 20
40.5409999999999968
 30
0.0
 10
31.9296669999999985
 20
36.9003330000000034
 30
0.0
 10
33.7076670000000007
 20
36.8580000000000041
 30
0.0
 10
33.7076670000000007
 20
36.1806669999999997
 30
0.0
 10
35.9936670000000021
 20
36.1806669999999997
 30
0.0
 10
35.9936670000000021
 20
38.5090000000000003
 30
0.0
 10
33.7076670000000007
 20
38.5090000000000003
 30
0.0
 10
33.7076670000000007
 20
37.8316669999999959
 30
0.0
 10
32.2683329999999984
 20
37.8316669999999959
 30
0.0
 10
29.2203330000000001
 20
40.921999999999997
 30
0.0
 10
29.1780000000000008
 20
42.1920000000000002
 30
0.0
 10
27.6539999999999999
 20
43.7160000000000011
 30
0.0
 10
27.1036670000000015
 20
43.7583330000000004
 30
0.0
 10
26.6380000000000017
 20
44.2240000000000038
 30
0.0
 10
26.2570000000000014
 20
44.3086669999999998
 30
0.0
 10
25.8760000000000012
 20
44.266333000000003
 30
0.0
 10
23.463000000000001
 20
46.6370000000000005
 30
0.0
 10
23.463000000000001
 20
48.1610000000000014
 30
0.0
 10
21.3039999999999985
 20
48.1610000000000014
 30
0.0
  0
LWPOLYLINE
  5
80
  8
bottom
 62
256
370
-1
  6
BYLAYER
100
AcDbEntity
100
AcDbPolyline
 90
18
 70
0
 10
26.0030000000000001
 20
46.8486669999999989
 30
0.0
 10
26.0030000000000001
 20
46.8486669999999989
 30
0.0
 10
25.7489999999999988
 20
46.7639999999999958
 30
0.0
 10
25.2409999999999997
 20
46.2560000000000002
 30
0.0
 10
25.1563330000000001
 20
45.9173329999999993
 30
0.0
 10
25.1563330000000001
 20
45.7056669999999983
 30
0.0
 10
25.2409999999999997
 20
45.3670000000000044
 30
0.0
 10
25.7489999999999988
 20
44.8590000000000018
 30
0.0
 10
26.0876669999999997
 20
44.7743329999999986
 30
0.0
 10
26.2993330000000007
 20
44.7743329999999986
 30
0.0
 10
26.6380000000000017
 20
44.8590000000000018
 30
0.0
 10
27.1460000000000008
 20
45.3670000000000044
 30
0.0
 10
27.2306670000000004
 20
45.7056669999999983
 30
0.0
 10
27.2306670000000004
 20
45.9173329999999993
 30
0.0
 10
27.1460000000000008
 20
46.2560000000000002
 30
0.0
 10
26.6380000000000017
 20
46.7639999999999958
 30
0.0
 10
26.2993330000000007
 20
46.8486669999999989
 30
0.0
 10
26.0030000000000001
 20
46.8486669999999989
 30
0.0
  0
LWPOLYLINE
  5
81
  8
bottom
 62
256
370
-1
  6
BYLAYER
100
AcDbEntity
100
AcDbPolyline
 90
18
 70
0
 10
33.6230000000000047
 20
41.7686670000000007
 30
0.0
 10
33.6230000000000047
 20
41.7686670000000007
 30
0.0
 10
33.3689999999999998
 20
41.6839999999999975
 30
0.0
 10
32.8610000000000042
 20
41.1760000000000019
 30
0.0
 10
32.7763330000000011
 20
40.837333000000001
 30
0.0
 10
32.7763330000000011
 20
40.625667
 30
0.0
 10
32.8610000000000042
 20
40.286999999999999
 30
0.0
 10
33.3689999999999998
 20
39.7789999999999964
 30
0.0
 10
33.7076670000000007
 20
39.6943330000000003
 30
0.0
 10
33.9193330000000017
 20
39.6943330000000003
 30
0.0
 10
34.2580000000000027
 20
39.7789999999999964
 30
0.0
 10
34.7659999999999982
 20
40.286999999999999
 30
0.0
 10
34.8506670000000014
 20
40.625667
 30
0.0
 10
34.8506670000000014
 20
40.837333000000001
 30
0.0
 10
34.7659999999999982
 20
41.1760000000000019
 30
0.0
 10
34.2580000000000027
 20
41.6839999999999975
 30
0.0
 10
33.9193330000000017
 20
41.7686670000000007
 30
0.0
 10
33.6230000000000047
 20
41.7686670000000007
 30
0.0
  0
LWPOLYLINE
  5
82
  8
bottom
 62
256
370
-1
  6
BYLAYER
100
AcDbEntity
100
AcDbPolyline
 90
31
 70
0
 10
18.3829999999999991
 20
39.2710000000000008
 30
0.0
 10
18.3829999999999991
 20
39.2710000000000008
 30
0.0
 10
18.0866669999999985
 20
39.1439999999999984
 30
0.0
 10
17.7903330000000004
 20
38.8900000000000006
 30
0.0
 10
17.5363329999999991
 20
38.5090000000000003
 30
0.0
 10
17.4939999999999998
 20
38.0856670000000008
 30
0.0
 10
17.5786669999999994
 20
37.7469999999999999
 30
0.0
 10
17.875
 20
37.4083329999999989
 30
0.0
 10
18.2560000000000002
 20
37.1543330000000012
 30
0.0
 10
18.9756670000000014
 20
37.1120000000000019
 30
0.0
 10
19.2296669999999992
 20
36.9003330000000034
 30
0.0
 10
23.6323329999999991
 20
36.8156670000000048
 30
0.0
 10
23.9286670000000008
 20
36.4770000000000039
 30
0.0
 10
24.3520000000000003
 20
36.222999999999999
 30
0.0
 10
24.9869999999999983
 20
36.222999999999999
 30
0.0
 10
25.3256669999999993
 20
36.3923330000000007
 30
0.0
 10
25.5796670000000006
 20
36.6039999999999992
 30
0.0
 10
25.7913330000000016
 20
37.0273329999999987
 30
0.0
 10
25.7913330000000016
 20
37.6623330000000038
 30
0.0
 10
25.5796670000000006
 20
38.0856670000000008
 30
0.0
 10
25.3256669999999993
 20
38.2973330000000018
 30
0.0
 10
24.9869999999999983
 20
38.4666670000000011
 30
0.0
 10
24.3520000000000003
 20
38.4666670000000011
 30
0.0
 10
23.9286670000000008
 20
38.2126669999999962
 30
0.0
 10
23.6323329999999991
 20
37.8316669999999959
 30
0.0
 10
19.6106669999999994
 20
37.8316669999999959
 30
0.0
 10
19.6529999999999987
 20
38.2973330000000018
 30
0.0
 10
19.5683329999999991
 20
38.6359999999999957
 30
0.0
 10
19.2719999999999985
 20
38.9746669999999966
 30
0.0
 10
18.8909999999999982
 20
39.2286670000000015
 30
0.0
 10
18.3829999999999991
 20
39.2710000000000008
 30
0.0
  0
LWPOLYLINE
  5
83
  8
bottom
 62
256
370
-1
  6
BYLAYER
100
AcDbEntity
100
AcDbPolyline
 90
18
 70
0
 10
15.843
 20
36.7310000000000016
 30
0.0
 10
15.843
 20
36.7310000000000016
 30
0.0
 10
15.5466669999999993
 20
36.6039999999999992
 30
0.0
 10
15.2503329999999995
 20
36.3500000000000014
 30
0.0
 10
14.9963329999999999
 20
35.9690000000000012
 30
0.0
 10
14.9540000000000006
 20
35.5456670000000017
 30
0.0
 10
15.0386670000000002
 20
35.2070000000000007
 30
0.0
 10
15.3350000000000009
 20
34.8683329999999998
 30
0.0
 10
15.7159999999999993
 20
34.614333000000002
 30
0.0
 10
16.1393330000000006
 20
34.5720000000000027
 30
0.0
 10
16.4780000000000015
 20
34.6566669999999988
 30
0.0
 10
16.8166670000000025
 20
34.953000000000003
 30
0.0
 10
17.0706670000000003
 20
35.3340000000000032
 30
0.0
 10
17.1129999999999995
 20
35.7573330000000027
 30
0.0
 10
17.0283329999999999
 20
36.0960000000000036
 30
0.0
 10
16.7319999999999993
 20
36.4346670000000046
 30
0.0
 10
16.3509999999999991
 20
36.6886669999999953
 30
0.0
 10
15.843
 20
36.7310000000000016
 30
0.0
  0
LINE
  5
84
100
AcDbEntity
100
AcDbLine
  8
plocica
 62
256
370
-1
  6
BYLAYER
 10
2.0
 20
30.0
 30
0.0
 11
45.0
 21
30.0
 31
0.0
  0
LINE
  5
85
100
AcDbEntity
100
AcDbLine
  8
plocica
 62
256
370
-1
  6
BYLAYER
 10
2.0
 20
30.0
 30
0.0
 11
2.0000000000000018
 21
56.0
 31
0.0
  0
LINE
  5
86
100
AcDbEntity
100
AcDbLine
  8
plocica
 62
256
370
-1
  6
BYLAYER
 10
45.0
 20
30.0
 30
0.0
 11
45.0
 21
56.0
 31
0.0
  0
LINE
  5
87
100
AcDbEntity
100
AcDbLine
  8
plocica
 62
256
370
-1
  6
BYLAYER
 10
2.0000000000000018
 20
56.0
 30
0.0
 11
45.0
 21
56.0
 31
0.0
  0
POINT
  5
88
100
AcDbEntity
100
AcDbPoint
  8
rupe
 62
256
370
-1
  6
BYLAYER
 10
16.1000000000000014
 20
35.7199999999999989
 30
0.0
  0
POINT
  5
89
100
AcDbEntity
100
AcDbPoint
  8
rupe
 62
256
370
-1
  6
BYLAYER
 10
18.6400000000000006
 20
38.259999999999998
 30
0.0
  0
POINT
  5
8A
100
AcDbEntity
100
AcDbPoint
  8
rupe
 62
256
370
-1
  6
BYLAYER
 10
22.4499999999999993
 20
39.5300000000000011
 30
0.0
  0
POINT
  5
8B
100
AcDbEntity
100
AcDbPoint
  8
rupe
 62
256
370
-1
  6
BYLAYER
 10
24.7569090000000003
 20
37.3954949999999968
 30
0.0
  0
POINT
  5
8C
100
AcDbEntity
100
AcDbPoint
  8
rupe
 62
256
370
-1
  6
BYLAYER
 10
26.259999999999998
 20
40.7999999999999972
 30
0.0
  0
POINT
  5
8D
100
AcDbEntity
100
AcDbPoint
  8
rupe
 62
256
370
-1
  6
BYLAYER
 10
26.259999999999998
 20
43.3400000000000034
 30
0.0
  0
POINT
  5
8E
100
AcDbEntity
100
AcDbPoint
  8
rupe
 62
256
370
-1
  6
BYLAYER
 10
26.259999999999998
 20
45.8799999999999955
 30
0.0
  0
POINT
  5
8F
100
AcDbEntity
100
AcDbPoint
  8
rupe
 62
256
370
-1
  6
BYLAYER
 10
27.5299999999999976
 20
49.6899999999999977
 30
0.0
  0
POINT
  5
90
100
AcDbEntity
100
AcDbPoint
  8
rupe
 62
256
370
-1
  6
BYLAYER
 10
30.0700000000000003
 20
49.6899999999999977
 30
0.0
  0
POINT
  5
91
100
AcDbEntity
100
AcDbPoint
  8
rupe
 62
256
370
-1
  6
BYLAYER
 10
32.6099999999999994
 20
49.6899999999999977
 30
0.0
  0
POINT
  5
92
100
AcDbEntity
100
AcDbPoint
  8
rupe
 62
256
370
-1
  6
BYLAYER
 10
33.8799999999999955
 20
45.8799999999999955
 30
0.0
  0
POINT
  5
93
100
AcDbEntity
100
AcDbPoint
  8
rupe
 62
256
370
-1
  6
BYLAYER
 10
33.8799999999999955
 20
43.3400000000000034
 30
0.0
  0
POINT
  5
94
100
AcDbEntity
100
AcDbPoint
  8
rupe
 62
256
370
-1
  6
BYLAYER
 10
33.8799999999999955
 20
40.7999999999999972
 30
0.0
  0
POINT
  5
95
100
AcDbEntity
100
AcDbPoint
  8
rupe
 62
256
370
-1
  6
BYLAYER
 10
34.9169089999999969
 20
37.3954949999999968
 30
0.0
  0
POINT
  5
96
100
AcDbEntity
100
AcDbPoint
  8
rupe
 62
256
370
-1
  6
BYLAYER
 10
38.9600000000000009
 20
39.5300000000000011
 30
0.0
  0
POINT
  5
97
100
AcDbEntity
100
AcDbPoint
  8
rupe
 62
256
370
-1
  6
BYLAYER
 10
38.9600000000000009
 20
49.6899999999999977
 30
0.0
  0
POINT
  5
98
100
AcDbEntity
100
AcDbPoint
  8
rupe
 62
256
370
-1
  6
BYLAYER
 10
22.4499999999999993
 20
47.1499999999999986
 30
0.0
  0
POINT
  5
99
100
AcDbEntity
100
AcDbPoint
  8
rupe
 62
256
370
-1
  6
BYLAYER
 10
18.6400000000000006
 20
48.4200000000000017
 30
0.0
  0
POINT
  5
9A
100
AcDbEntity
100
AcDbPoint
  8
rupe
 62
256
370
-1
  6
BYLAYER
 10
16.1000000000000014
 20
50.9600000000000009
 30
0.0
  0
POINT
  5
9B
100
AcDbEntity
100
AcDbPoint
  8
rupe
 62
256
370
-1
  6
BYLAYER
 10
11.0199999999999996
 20
50.9600000000000009
 30
0.0
  0
POINT
  5
9C
100
AcDbEntity
100
AcDbPoint
  8
rupe
 62
256
370
-1
  6
BYLAYER
 10
5.9399999999999995
 20
45.8799999999999955
 30
0.0
  0
POINT
  5
9D
100
AcDbEntity
100
AcDbPoint
  8
rupe
 62
256
370
-1
  6
BYLAYER
 10
5.9399999999999995
 20
40.7999999999999972
 30
0.0
  0
POINT
  5
9E
100
AcDbEntity
100
AcDbPoint
  8
rupe
 62
256
370
-1
  6
BYLAYER
 10
16.1000000000000014
 20
43.3400000000000034
 30
0.0
  0
POINT
  5
9F
100
AcDbEntity
100
AcDbPoint
  8
rupe
 62
256
370
-1
  6
BYLAYER
 10
11.0199999999999996
 20
63.7199999999999989
 30
0.0
  0
MTEXT
  5
A0
100
AcDbEntity
100
AcDbMText
  8
rupe
 62
256
370
-1
  6
BYLAYER
 10
25.0
 20
62.0
 30
0.0
 40
1.0
 41
0.0
 71
1
 72
1
  1
\fMonospace|b0|i0|c0|p0;\H2;midiout@he
  7
textstyle2
 50
0.0
 73
2
 44
1.0
  0
LWPOLYLINE
  5
A1
  8
bottom
 62
256
370
-1
  6
BYLAYER
100
AcDbEntity
100
AcDbPolyline
 90
48
 70
0
 10
29.8976669999999984
 20
80.648333000000008
 30
0.0
 10
29.8976669999999984
 20
80.648333000000008
 30
0.0
 10
29.7283329999999992
 20
80.5636669999999953
 30
0.0
 10
29.5590000000000011
 20
80.3520000000000039
 30
0.0
 10
29.5166670000000018
 20
78.5316669999999988
 30
0.0
 10
29.0509999999999984
 20
78.0660000000000025
 30
0.0
 10
28.9663329999999988
 20
77.7273330000000016
 30
0.0
 10
28.9663329999999988
 20
77.5156670000000076
 30
0.0
 10
29.0509999999999984
 20
77.1769999999999925
 30
0.0
 10
29.5590000000000011
 20
76.6689999999999969
 30
0.0
 10
29.8976669999999984
 20
76.5843330000000009
 30
0.0
 10
30.1093329999999995
 20
76.5843330000000009
 30
0.0
 10
30.4480000000000004
 20
76.6689999999999969
 30
0.0
 10
30.9559999999999995
 20
77.1769999999999925
 30
0.0
 10
31.0406669999999991
 20
77.5156670000000076
 30
0.0
 10
31.0406669999999991
 20
77.7273330000000016
 30
0.0
 10
30.9559999999999995
 20
78.0660000000000025
 30
0.0
 10
30.4903329999999997
 20
78.5316669999999988
 30
0.0
 10
30.4903329999999997
 20
79.6746669999999995
 30
0.0
 10
40.0153329999999983
 20
79.6746669999999995
 30
0.0
 10
40.9466669999999979
 20
78.7009999999999934
 30
0.0
 10
40.9466669999999979
 20
70.1496669999999938
 30
0.0
 10
39.3803330000000003
 20
68.6256669999999929
 30
0.0
 10
38.4066669999999988
 20
68.6256669999999929
 30
0.0
 10
35.2740000000000009
 20
71.7160000000000082
 30
0.0
 10
34.7236669999999989
 20
71.7583329999999933
 30
0.0
 10
34.2580000000000027
 20
72.2240000000000038
 30
0.0
 10
33.9193330000000017
 20
72.3086669999999998
 30
0.0
 10
33.7076670000000007
 20
72.3086669999999998
 30
0.0
 10
33.3689999999999998
 20
72.2240000000000038
 30
0.0
 10
32.8610000000000042
 20
71.7160000000000082
 30
0.0
 10
32.7763330000000011
 20
71.377332999999993
 30
0.0
 10
32.7763330000000011
 20
71.1656669999999991
 30
0.0
 10
32.8610000000000042
 20
70.8269999999999982
 30
0.0
 10
33.3689999999999998
 20
70.3190000000000026
 30
0.0
 10
33.7076670000000007
 20
70.2343329999999924
 30
0.0
 10
33.9193330000000017
 20
70.2343329999999924
 30
0.0
 10
34.2580000000000027
 20
70.3190000000000026
 30
0.0
 10
34.7236669999999989
 20
70.7846669999999989
 30
0.0
 10
34.935333
 20
70.7846669999999989
 30
0.0
 10
37.7293329999999969
 20
67.948332999999991
 30
0.0
 10
37.7293329999999969
 20
66.297333000000009
 30
0.0
 10
40.0576670000000021
 20
66.297333000000009
 30
0.0
 10
40.0576670000000021
 20
67.948332999999991
 30
0.0
 10
41.8780000000000001
 20
69.811000000000007
 30
0.0
 10
41.8780000000000001
 20
79.0819999999999936
 30
0.0
 10
40.3539999999999992
 20
80.6059999999999945
 30
0.0
 10
29.8976669999999984
 20
80.648333000000008
 30
0.0
  0
LWPOLYLINE
  5
A2
  8
bottom
 62
256
370
-1
  6
BYLAYER
100
AcDbEntity
100
AcDbPolyline
 90
19
 70
0
 10
10.7206670000000006
 20
80.4366669999999999
 30
0.0
 10
10.7206670000000006
 20
80.4366669999999999
 30
0.0
 10
10.3819999999999997
 20
80.3096670000000046
 30
0.0
 10
10.0433330000000005
 20
80.1403329999999983
 30
0.0
 10
9.6623330000000003
 20
79.7169999999999987
 30
0.0
 10
9.4506669999999993
 20
79.2513330000000025
 30
0.0
 10
9.4506669999999993
 20
78.5316669999999988
 30
0.0
 10
9.6623330000000003
 20
78.0236670000000032
 30
0.0
 10
10.1280000000000001
 20
77.6003330000000062
 30
0.0
 10
10.5936669999999999
 20
77.3886669999999981
 30
0.0
 10
11.3133330000000001
 20
77.3886669999999981
 30
0.0
 10
11.7789999999999999
 20
77.6003330000000062
 30
0.0
 10
12.2446669999999997
 20
78.0236670000000032
 30
0.0
 10
12.4563330000000008
 20
78.5316669999999988
 30
0.0
 10
12.4563330000000008
 20
79.2513330000000025
 30
0.0
 10
12.2446669999999997
 20
79.759332999999998
 30
0.0
 10
11.7789999999999999
 20
80.182666999999995
 30
0.0
 10
11.3133330000000001
 20
80.3943330000000032
 30
0.0
 10
10.7206670000000006
 20
80.4366669999999999
 30
0.0
  0
LWPOLYLINE
  5
A3
  8
bottom
 62
256
370
-1
  6
BYLAYER
100
AcDbEntity
100
AcDbPolyline
 90
18
 70
0
 10
15.843
 20
79.9710000000000036
 30
0.0
 10
15.843
 20
79.9710000000000036
 30
0.0
 10
15.5466669999999993
 20
79.8439999999999941
 30
0.0
 10
15.2503329999999995
 20
79.5900000000000034
 30
0.0
 10
14.9963329999999999
 20
79.2090000000000032
 30
0.0
 10
14.9540000000000006
 20
78.7856670000000037
 30
0.0
 10
15.0386670000000002
 20
78.4470000000000027
 30
0.0
 10
15.3350000000000009
 20
78.1083330000000018
 30
0.0
 10
15.7159999999999993
 20
77.8543329999999969
 30
0.0
 10
16.1393330000000006
 20
77.8119999999999976
 30
0.0
 10
16.4780000000000015
 20
77.8966670000000079
 30
0.0
 10
16.8166670000000025
 20
78.1929999999999978
 30
0.0
 10
17.0706670000000003
 20
78.5739999999999981
 30
0.0
 10
17.1129999999999995
 20
78.9973329999999976
 30
0.0
 10
17.0283329999999999
 20
79.3359999999999985
 30
0.0
 10
16.7319999999999993
 20
79.6746669999999995
 30
0.0
 10
16.3509999999999991
 20
79.9286670000000044
 30
0.0
 10
15.843
 20
79.9710000000000036
 30
0.0
  0
LWPOLYLINE
  5
A4
  8
bottom
 62
256
370
-1
  6
BYLAYER
100
AcDbEntity
100
AcDbPolyline
 90
93
 70
0
 10
18.4676669999999987
 20
79.3783329999999978
 30
0.0
 10
18.4676669999999987
 20
79.3783329999999978
 30
0.0
 10
18.2983329999999995
 20
79.2936669999999992
 30
0.0
 10
15.5890000000000004
 20
76.5420000000000016
 30
0.0
 10
15.5466669999999993
 20
72.2240000000000038
 30
0.0
 10
15.2080000000000002
 20
71.9699999999999989
 30
0.0
 10
14.9963329999999999
 20
71.5889999999999986
 30
0.0
 10
14.9963329999999999
 20
70.9540000000000077
 30
0.0
 10
15.2080000000000002
 20
70.5730000000000075
 30
0.0
 10
15.5466669999999993
 20
70.3190000000000026
 30
0.0
 10
15.5466669999999993
 20
68.8796669999999978
 30
0.0
 10
11.6519999999999992
 20
65.0273329999999987
 30
0.0
 10
11.1440000000000001
 20
65.1966669999999908
 30
0.0
 10
10.7629999999999999
 20
65.1966669999999908
 30
0.0
 10
10.2550000000000008
 20
65.0273329999999987
 30
0.0
 10
6.9106670000000001
 20
68.3293329999999912
 30
0.0
 10
6.9106670000000001
 20
69.0490000000000066
 30
0.0
 10
6.6989999999999998
 20
69.4300000000000068
 30
0.0
 10
6.3603329999999998
 20
69.6839999999999975
 30
0.0
 10
6.3603329999999998
 20
72.8590000000000089
 30
0.0
 10
6.6989999999999998
 20
73.1129999999999995
 30
0.0
 10
6.9106670000000001
 20
73.4939999999999998
 30
0.0
 10
6.9530000000000003
 20
73.9173329999999993
 30
0.0
 10
6.8683329999999998
 20
74.2560000000000002
 30
0.0
 10
6.5720000000000001
 20
74.5946670000000012
 30
0.0
 10
6.1909999999999998
 20
74.8486670000000061
 30
0.0
 10
5.556
 20
74.8486670000000061
 30
0.0
 10
5.1749999999999998
 20
74.5946670000000012
 30
0.0
 10
4.8786670000000001
 20
74.2560000000000002
 30
0.0
 10
4.7940000000000005
 20
73.9173329999999993
 30
0.0
 10
4.8363329999999998
 20
73.4939999999999998
 30
0.0
 10
5.048
 20
73.1129999999999995
 30
0.0
 10
5.3866670000000001
 20
72.8590000000000089
 30
0.0
 10
5.3866670000000001
 20
69.6839999999999975
 30
0.0
 10
5.048
 20
69.4300000000000068
 30
0.0
 10
4.8363329999999998
 20
69.0490000000000066
 30
0.0
 10
4.7940000000000005
 20
68.6256669999999929
 30
0.0
 10
4.8786670000000001
 20
68.2870000000000061
 30
0.0
 10
5.1749999999999998
 20
67.948332999999991
 30
0.0
 10
5.556
 20
67.6943330000000003
 30
0.0
 10
6.2756670000000003
 20
67.652000000000001
 30
0.0
 10
8.3923330000000007
 20
65.577666999999991
 30
0.0
 10
7.9690000000000003
 20
65.1119999999999948
 30
0.0
 10
7.9690000000000003
 20
60.9209999999999994
 30
0.0
 10
8.222999999999999
 20
60.6670000000000016
 30
0.0
 10
13.6839999999999993
 20
60.6670000000000016
 30
0.0
 10
13.9380000000000006
 20
60.9209999999999994
 30
0.0
 10
13.9380000000000006
 20
65.1119999999999948
 30
0.0
 10
13.5146669999999993
 20
65.5353330000000085
 30
0.0
 10
16.4780000000000015
 20
68.5409999999999968
 30
0.0
 10
16.5203330000000008
 20
70.3190000000000026
 30
0.0
 10
16.8590000000000018
 20
70.5730000000000075
 30
0.0
 10
17.0706670000000003
 20
70.9540000000000077
 30
0.0
 10
17.0706670000000003
 20
71.5889999999999986
 30
0.0
 10
16.8590000000000018
 20
71.9699999999999989
 30
0.0
 10
16.5203330000000008
 20
72.2240000000000038
 30
0.0
 10
16.5203330000000008
 20
76.2033330000000007
 30
0.0
 10
18.7639999999999993
 20
78.4046670000000034
 30
0.0
 10
22.1930000000000014
 20
78.4046670000000034
 30
0.0
 10
23.463000000000001
 20
77.1769999999999925
 30
0.0
 10
26.5533329999999985
 20
77.1346670000000074
 30
0.0
 10
26.9766669999999991
 20
76.7113329999999962
 30
0.0
 10
27.0189999999999984
 20
76.1610000000000014
 30
0.0
 10
29.8129999999999988
 20
73.3670000000000044
 30
0.0
 10
32.9033330000000035
 20
73.3246670000000051
 30
0.0
 10
33.3689999999999998
 20
72.8590000000000089
 30
0.0
 10
33.7076670000000007
 20
72.7743329999999986
 30
0.0
 10
33.9193330000000017
 20
72.7743329999999986
 30
0.0
 10
34.2580000000000027
 20
72.8590000000000089
 30
0.0
 10
34.7659999999999982
 20
73.3670000000000044
 30
0.0
 10
34.8506670000000014
 20
73.7056670000000054
 30
0.0
 10
34.8506670000000014
 20
73.9173329999999993
 30
0.0
 10
34.7659999999999982
 20
74.2560000000000002
 30
0.0
 10
34.2580000000000027
 20
74.7639999999999958
 30
0.0
 10
33.9193330000000017
 20
74.8486670000000061
 30
0.0
 10
33.7076670000000007
 20
74.8486670000000061
 30
0.0
 10
33.3689999999999998
 20
74.7639999999999958
 30
0.0
 10
32.9033330000000035
 20
74.2983329999999995
 30
0.0
 10
30.1516669999999998
 20
74.2983329999999995
 30
0.0
 10
27.9503330000000005
 20
76.5420000000000016
 30
0.0
 10
27.9503330000000005
 20
76.7113329999999962
 30
0.0
 10
28.4160000000000004
 20
77.1769999999999925
 30
0.0
 10
28.500667
 20
77.5156670000000076
 30
0.0
 10
28.500667
 20
77.7273330000000016
 30
0.0
 10
28.4160000000000004
 20
78.0660000000000025
 30
0.0
 10
27.9080000000000013
 20
78.5739999999999981
 30
0.0
 10
27.5693330000000003
 20
78.6586670000000083
 30
0.0
 10
27.3576669999999993
 20
78.6586670000000083
 30
0.0
 10
27.0189999999999984
 20
78.5739999999999981
 30
0.0
 10
26.5533329999999985
 20
78.1083330000000018
 30
0.0
 10
23.8440000000000012
 20
78.1083330000000018
 30
0.0
 10
22.5740000000000016
 20
79.3359999999999985
 30
0.0
 10
18.4676669999999987
 20
79.3783329999999978
 30
0.0
  0
LWPOLYLINE
  5
A5
  8
bottom
 62
256
370
-1
  6
BYLAYER
100
AcDbEntity
100
AcDbPolyline
 90
20
 70
0
 10
9.0273329999999987
 20
64.9003330000000034
 30
0.0
 10
9.0273329999999987
 20
64.9003330000000034
 30
0.0
 10
8.9003329999999998
 20
64.7309999999999945
 30
0.0
 10
8.9003329999999998
 20
61.5983329999999967
 30
0.0
 10
13.0066670000000002
 20
61.5983329999999967
 30
0.0
 10
13.0066670000000002
 20
64.773333000000008
 30
0.0
 10
12.8373329999999992
 20
64.9003330000000034
 30
0.0
 10
12.3293330000000001
 20
64.3499999999999943
 30
0.0
 10
12.4986669999999993
 20
63.8419999999999987
 30
0.0
 10
12.4563330000000008
 20
63.2916670000000039
 30
0.0
 10
12.2446669999999997
 20
62.7836670000000012
 30
0.0
 10
11.7789999999999999
 20
62.3603329999999971
 30
0.0
 10
11.3133330000000001
 20
62.1486670000000032
 30
0.0
 10
10.5936669999999999
 20
62.1486670000000032
 30
0.0
 10
10.1280000000000001
 20
62.3603329999999971
 30
0.0
 10
9.6623330000000003
 20
62.7836670000000012
 30
0.0
 10
9.4506669999999993
 20
63.2916670000000039
 30
0.0
 10
9.4083329999999989
 20
63.8419999999999987
 30
0.0
 10
9.5776669999999999
 20
64.3499999999999943
 30
0.0
 10
9.0273329999999987
 20
64.9003330000000034
 30
0.0
  0
LWPOLYLINE
  5
A6
  8
bottom
 62
256
370
-1
  6
BYLAYER
100
AcDbEntity
100
AcDbPolyline
 90
23
 70
0
 10
38.703000000000003
 20
78.7856670000000037
 30
0.0
 10
38.703000000000003
 20
78.7856670000000037
 30
0.0
 10
38.4066669999999988
 20
78.6586670000000083
 30
0.0
 10
38.0679999999999978
 20
78.4470000000000027
 30
0.0
 10
37.8563329999999993
 20
78.1083330000000018
 30
0.0
 10
33.6230000000000047
 20
78.1083330000000018
 30
0.0
 10
33.6230000000000047
 20
78.7009999999999934
 30
0.0
 10
31.4639999999999986
 20
78.7009999999999934
 30
0.0
 10
31.4639999999999986
 20
76.5420000000000016
 30
0.0
 10
33.6230000000000047
 20
76.5420000000000016
 30
0.0
 10
33.6230000000000047
 20
77.1346670000000074
 30
0.0
 10
37.8563329999999993
 20
77.1346670000000074
 30
0.0
 10
38.152667000000001
 20
76.7536670000000072
 30
0.0
 10
38.5760000000000005
 20
76.4996670000000023
 30
0.0
 10
39.2109999999999985
 20
76.4996670000000023
 30
0.0
 10
39.5496669999999995
 20
76.6689999999999969
 30
0.0
 10
39.8036669999999972
 20
76.8806670000000025
 30
0.0
 10
40.0153329999999983
 20
77.304000000000002
 30
0.0
 10
40.0153329999999983
 20
77.938999999999993
 30
0.0
 10
39.8036669999999972
 20
78.3623330000000067
 30
0.0
 10
39.5496669999999995
 20
78.5739999999999981
 30
0.0
 10
39.2109999999999985
 20
78.7433330000000069
 30
0.0
 10
38.703000000000003
 20
78.7856670000000037
 30
0.0
  0
LWPOLYLINE
  5
A7
  8
bottom
 62
256
370
-1
  6
BYLAYER
100
AcDbEntity
100
AcDbPolyline
 90
38
 70
0
 10
18.3829999999999991
 20
77.4309999999999974
 30
0.0
 10
18.3829999999999991
 20
77.4309999999999974
 30
0.0
 10
18.0866669999999985
 20
77.304000000000002
 30
0.0
 10
17.7903330000000004
 20
77.0499999999999972
 30
0.0
 10
17.5363329999999991
 20
76.6689999999999969
 30
0.0
 10
17.5363329999999991
 20
76.0339999999999918
 30
0.0
 10
17.7479999999999976
 20
75.6529999999999916
 30
0.0
 10
18.0866669999999985
 20
75.3990000000000009
 30
0.0
 10
18.1290000000000013
 20
71.0810000000000031
 30
0.0
 10
21.3886670000000017
 20
67.7789999999999964
 30
0.0
 10
21.3463330000000013
 20
67.3979999999999961
 30
0.0
 10
21.4310000000000009
 20
67.0169999999999959
 30
0.0
 10
21.9390000000000001
 20
66.5090000000000003
 30
0.0
 10
22.277667000000001
 20
66.4243330000000043
 30
0.0
 10
22.4893329999999985
 20
66.4243330000000043
 30
0.0
 10
22.8279999999999994
 20
66.5090000000000003
 30
0.0
 10
23.3359999999999985
 20
67.0169999999999959
 30
0.0
 10
23.4206670000000017
 20
67.3979999999999961
 30
0.0
 10
23.3783330000000014
 20
67.7789999999999964
 30
0.0
 10
23.8016669999999984
 20
68.2446669999999926
 30
0.0
 10
25.2409999999999997
 20
68.2446669999999926
 30
0.0
 10
25.2409999999999997
 20
67.7789999999999964
 30
0.0
 10
27.1460000000000008
 20
67.7789999999999964
 30
0.0
 10
27.1460000000000008
 20
69.6839999999999975
 30
0.0
 10
25.2409999999999997
 20
69.6839999999999975
 30
0.0
 10
25.2409999999999997
 20
69.2183330000000012
 30
0.0
 10
23.463000000000001
 20
69.1760000000000019
 30
0.0
 10
22.7433329999999998
 20
68.4986669999999975
 30
0.0
 10
22.0659999999999989
 20
68.4563330000000008
 30
0.0
 10
19.060333
 20
71.419667000000004
 30
0.0
 10
19.060333
 20
75.3990000000000009
 30
0.0
 10
19.3990000000000009
 20
75.6529999999999916
 30
0.0
 10
19.6106669999999994
 20
76.0339999999999918
 30
0.0
 10
19.6529999999999987
 20
76.4573330000000055
 30
0.0
 10
19.5683329999999991
 20
76.7959999999999923
 30
0.0
 10
19.2719999999999985
 20
77.1346670000000074
 30
0.0
 10
18.8909999999999982
 20
77.3886669999999981
 30
0.0
 10
18.3829999999999991
 20
77.4309999999999974
 30
0.0
  0
LWPOLYLINE
  5
A8
  8
bottom
 62
256
370
-1
  6
BYLAYER
100
AcDbEntity
100
AcDbPolyline
 90
33
 70
0
 10
21.3039999999999985
 20
76.1610000000000014
 30
0.0
 10
21.3039999999999985
 20
76.1610000000000014
 30
0.0
 10
21.3039999999999985
 20
74.0019999999999953
 30
0.0
 10
22.8279999999999994
 20
74.0019999999999953
 30
0.0
 10
25.1986670000000004
 20
71.5889999999999986
 30
0.0
 10
25.1563330000000001
 20
71.2079999999999984
 30
0.0
 10
25.2409999999999997
 20
70.8269999999999982
 30
0.0
 10
25.7489999999999988
 20
70.3190000000000026
 30
0.0
 10
26.0876669999999997
 20
70.2343329999999924
 30
0.0
 10
26.2993330000000007
 20
70.2343329999999924
 30
0.0
 10
26.6380000000000017
 20
70.3190000000000026
 30
0.0
 10
27.1036670000000015
 20
70.7846669999999989
 30
0.0
 10
27.315332999999999
 20
70.7846669999999989
 30
0.0
 10
28.2466669999999986
 20
69.811000000000007
 30
0.0
 10
28.2890000000000015
 20
68.5409999999999968
 30
0.0
 10
31.9296669999999985
 20
64.9003330000000034
 30
0.0
 10
33.7076670000000007
 20
64.8580000000000041
 30
0.0
 10
33.7076670000000007
 20
64.1806669999999997
 30
0.0
 10
35.9936670000000021
 20
64.1806669999999997
 30
0.0
 10
35.9936670000000021
 20
66.5090000000000003
 30
0.0
 10
33.7076670000000007
 20
66.5090000000000003
 30
0.0
 10
33.7076670000000007
 20
65.8316669999999959
 30
0.0
 10
32.2683329999999984
 20
65.8316669999999959
 30
0.0
 10
29.2203330000000001
 20
68.921999999999997
 30
0.0
 10
29.1780000000000008
 20
70.1920000000000073
 30
0.0
 10
27.6539999999999999
 20
71.7160000000000082
 30
0.0
 10
27.1036670000000015
 20
71.7583329999999933
 30
0.0
 10
26.6380000000000017
 20
72.2240000000000038
 30
0.0
 10
26.2570000000000014
 20
72.3086669999999998
 30
0.0
 10
25.8760000000000012
 20
72.266333000000003
 30
0.0
 10
23.463000000000001
 20
74.6370000000000005
 30
0.0
 10
23.463000000000001
 20
76.1610000000000014
 30
0.0
 10
21.3039999999999985
 20
76.1610000000000014
 30
0.0
  0
LWPOLYLINE
  5
A9
  8
bottom
 62
256
370
-1
  6
BYLAYER
100
AcDbEntity
100
AcDbPolyline
 90
18
 70
0
 10
26.0030000000000001
 20
74.8486670000000061
 30
0.0
 10
26.0030000000000001
 20
74.8486670000000061
 30
0.0
 10
25.7489999999999988
 20
74.7639999999999958
 30
0.0
 10
25.2409999999999997
 20
74.2560000000000002
 30
0.0
 10
25.1563330000000001
 20
73.9173329999999993
 30
0.0
 10
25.1563330000000001
 20
73.7056670000000054
 30
0.0
 10
25.2409999999999997
 20
73.3670000000000044
 30
0.0
 10
25.7489999999999988
 20
72.8590000000000089
 30
0.0
 10
26.0876669999999997
 20
72.7743329999999986
 30
0.0
 10
26.2993330000000007
 20
72.7743329999999986
 30
0.0
 10
26.6380000000000017
 20
72.8590000000000089
 30
0.0
 10
27.1460000000000008
 20
73.3670000000000044
 30
0.0
 10
27.2306670000000004
 20
73.7056670000000054
 30
0.0
 10
27.2306670000000004
 20
73.9173329999999993
 30
0.0
 10
27.1460000000000008
 20
74.2560000000000002
 30
0.0
 10
26.6380000000000017
 20
74.7639999999999958
 30
0.0
 10
26.2993330000000007
 20
74.8486670000000061
 30
0.0
 10
26.0030000000000001
 20
74.8486670000000061
 30
0.0
  0
LWPOLYLINE
  5
AA
  8
bottom
 62
256
370
-1
  6
BYLAYER
100
AcDbEntity
100
AcDbPolyline
 90
18
 70
0
 10
33.6230000000000047
 20
69.7686669999999935
 30
0.0
 10
33.6230000000000047
 20
69.7686669999999935
 30
0.0
 10
33.3689999999999998
 20
69.6839999999999975
 30
0.0
 10
32.8610000000000042
 20
69.1760000000000019
 30
0.0
 10
32.7763330000000011
 20
68.837333000000001
 30
0.0
 10
32.7763330000000011
 20
68.6256669999999929
 30
0.0
 10
32.8610000000000042
 20
68.2870000000000061
 30
0.0
 10
33.3689999999999998
 20
67.7789999999999964
 30
0.0
 10
33.7076670000000007
 20
67.6943330000000003
 30
0.0
 10
33.9193330000000017
 20
67.6943330000000003
 30
0.0
 10
34.2580000000000027
 20
67.7789999999999964
 30
0.0
 10
34.7659999999999982
 20
68.2870000000000061
 30
0.0
 10
34.8506670000000014
 20
68.6256669999999929
 30
0.0
 10
34.8506670000000014
 20
68.837333000000001
 30
0.0
 10
34.7659999999999982
 20
69.1760000000000019
 30
0.0
 10
34.2580000000000027
 20
69.6839999999999975
 30
0.0
 10
33.9193330000000017
 20
69.7686669999999935
 30
0.0
 10
33.6230000000000047
 20
69.7686669999999935
 30
0.0
  0
LWPOLYLINE
  5
AB
  8
bottom
 62
256
370
-1
  6
BYLAYER
100
AcDbEntity
100
AcDbPolyline
 90
31
 70
0
 10
18.3829999999999991
 20
67.2710000000000008
 30
0.0
 10
18.3829999999999991
 20
67.2710000000000008
 30
0.0
 10
18.0866669999999985
 20
67.1440000000000055
 30
0.0
 10
17.7903330000000004
 20
66.8900000000000006
 30
0.0
 10
17.5363329999999991
 20
66.5090000000000003
 30
0.0
 10
17.4939999999999998
 20
66.0856670000000008
 30
0.0
 10
17.5786669999999994
 20
65.7469999999999999
 30
0.0
 10
17.875
 20
65.4083329999999989
 30
0.0
 10
18.2560000000000002
 20
65.1543330000000083
 30
0.0
 10
18.9756670000000014
 20
65.1119999999999948
 30
0.0
 10
19.2296669999999992
 20
64.9003330000000034
 30
0.0
 10
23.6323329999999991
 20
64.8156670000000048
 30
0.0
 10
23.9286670000000008
 20
64.4770000000000039
 30
0.0
 10
24.3520000000000003
 20
64.222999999999999
 30
0.0
 10
24.9869999999999983
 20
64.222999999999999
 30
0.0
 10
25.3256669999999993
 20
64.3923330000000078
 30
0.0
 10
25.5796670000000006
 20
64.6039999999999992
 30
0.0
 10
25.7913330000000016
 20
65.0273329999999987
 30
0.0
 10
25.7913330000000016
 20
65.6623330000000038
 30
0.0
 10
25.5796670000000006
 20
66.0856670000000008
 30
0.0
 10
25.3256669999999993
 20
66.297333000000009
 30
0.0
 10
24.9869999999999983
 20
66.4666670000000011
 30
0.0
 10
24.3520000000000003
 20
66.4666670000000011
 30
0.0
 10
23.9286670000000008
 20
66.2126669999999962
 30
0.0
 10
23.6323329999999991
 20
65.8316669999999959
 30
0.0
 10
19.6106669999999994
 20
65.8316669999999959
 30
0.0
 10
19.6529999999999987
 20
66.297333000000009
 30
0.0
 10
19.5683329999999991
 20
66.6359999999999957
 30
0.0
 10
19.2719999999999985
 20
66.9746669999999966
 30
0.0
 10
18.8909999999999982
 20
67.2286670000000015
 30
0.0
 10
18.3829999999999991
 20
67.2710000000000008
 30
0.0
  0
LWPOLYLINE
  5
AC
  8
bottom
 62
256
370
-1
  6
BYLAYER
100
AcDbEntity
100
AcDbPolyline
 90
18
 70
0
 10
15.843
 20
64.7309999999999945
 30
0.0
 10
15.843
 20
64.7309999999999945
 30
0.0
 10
15.5466669999999993
 20
64.6039999999999992
 30
0.0
 10
15.2503329999999995
 20
64.3499999999999943
 30
0.0
 10
14.9963329999999999
 20
63.9690000000000012
 30
0.0
 10
14.9540000000000006
 20
63.5456670000000017
 30
0.0
 10
15.0386670000000002
 20
63.2070000000000007
 30
0.0
 10
15.3350000000000009
 20
62.8683329999999998
 30
0.0
 10
15.7159999999999993
 20
62.614333000000002
 30
0.0
 10
16.1393330000000006
 20
62.5720000000000027
 30
0.0
 10
16.4780000000000015
 20
62.6566669999999988
 30
0.0
 10
16.8166670000000025
 20
62.953000000000003
 30
0.0
 10
17.0706670000000003
 20
63.3340000000000032
 30
0.0
 10
17.1129999999999995
 20
63.7573330000000027
 30
0.0
 10
17.0283329999999999
 20
64.0960000000000036
 30
0.0
 10
16.7319999999999993
 20
64.4346670000000046
 30
0.0
 10
16.3509999999999991
 20
64.6886669999999953
 30
0.0
 10
15.843
 20
64.7309999999999945
 30
0.0
  0
LINE
  5
AD
100
AcDbEntity
100
AcDbLine
  8
plocica
 62
256
370
-1
  6
BYLAYER
 10
2.0
 20
58.0
 30
0.0
 11
45.0
 21
58.0
 31
0.0
  0
LINE
  5
AE
100
AcDbEntity
100
AcDbLine
  8
plocica
 62
256
370
-1
  6
BYLAYER
 10
2.0
 20
58.0
 30
0.0
 11
2.0000000000000018
 21
84.0
 31
0.0
  0
LINE
  5
AF
100
AcDbEntity
100
AcDbLine
  8
plocica
 62
256
370
-1
  6
BYLAYER
 10
45.0
 20
58.0
 30
0.0
 11
45.0
 21
84.0
 31
0.0
  0
LINE
  5
B0
100
AcDbEntity
100
AcDbLine
  8
plocica
 62
256
370
-1
  6
BYLAYER
 10
2.0000000000000018
 20
84.0
 30
0.0
 11
45.0
 21
84.0
 31
0.0
  0
POINT
  5
B1
100
AcDbEntity
100
AcDbPoint
  8
rupe
 62
256
370
-1
  6
BYLAYER
 10
16.1000000000000014
 20
63.7199999999999989
 30
0.0
  0
POINT
  5
B2
100
AcDbEntity
100
AcDbPoint
  8
rupe
 62
256
370
-1
  6
BYLAYER
 10
18.6400000000000006
 20
66.2599999999999909
 30
0.0
  0
POINT
  5
B3
100
AcDbEntity
100
AcDbPoint
  8
rupe
 62
256
370
-1
  6
BYLAYER
 10
22.4499999999999993
 20
67.5300000000000011
 30
0.0
  0
POINT
  5
B4
100
AcDbEntity
100
AcDbPoint
  8
rupe
 62
256
370
-1
  6
BYLAYER
 10
24.7569090000000003
 20
65.3954949999999968
 30
0.0
  0
POINT
  5
B5
100
AcDbEntity
100
AcDbPoint
  8
rupe
 62
256
370
-1
  6
BYLAYER
 10
26.259999999999998
 20
68.7999999999999972
 30
0.0
  0
POINT
  5
B6
100
AcDbEntity
100
AcDbPoint
  8
rupe
 62
256
370
-1
  6
BYLAYER
 10
26.259999999999998
 20
71.3400000000000034
 30
0.0
  0
POINT
  5
B7
100
AcDbEntity
100
AcDbPoint
  8
rupe
 62
256
370
-1
  6
BYLAYER
 10
26.259999999999998
 20
73.8799999999999955
 30
0.0
  0
POINT
  5
B8
100
AcDbEntity
100
AcDbPoint
  8
rupe
 62
256
370
-1
  6
BYLAYER
 10
27.5299999999999976
 20
77.6899999999999977
 30
0.0
  0
POINT
  5
B9
100
AcDbEntity
100
AcDbPoint
  8
rupe
 62
256
370
-1
  6
BYLAYER
 10
30.0700000000000003
 20
77.6899999999999977
 30
0.0
  0
POINT
  5
BA
100
AcDbEntity
100
AcDbPoint
  8
rupe
 62
256
370
-1
  6
BYLAYER
 10
32.6099999999999994
 20
77.6899999999999977
 30
0.0
  0
POINT
  5
BB
100
AcDbEntity
100
AcDbPoint
  8
rupe
 62
256
370
-1
  6
BYLAYER
 10
33.8799999999999955
 20
73.8799999999999955
 30
0.0
  0
POINT
  5
BC
100
AcDbEntity
100
AcDbPoint
  8
rupe
 62
256
370
-1
  6
BYLAYER
 10
33.8799999999999955
 20
71.3400000000000034
 30
0.0
  0
POINT
  5
BD
100
AcDbEntity
100
AcDbPoint
  8
rupe
 62
256
370
-1
  6
BYLAYER
 10
33.8799999999999955
 20
68.7999999999999972
 30
0.0
  0
POINT
  5
BE
100
AcDbEntity
100
AcDbPoint
  8
rupe
 62
256
370
-1
  6
BYLAYER
 10
34.9169089999999969
 20
65.3954949999999968
 30
0.0
  0
POINT
  5
BF
100
AcDbEntity
100
AcDbPoint
  8
rupe
 62
256
370
-1
  6
BYLAYER
 10
38.9600000000000009
 20
67.5300000000000011
 30
0.0
  0
POINT
  5
C0
100
AcDbEntity
100
AcDbPoint
  8
rupe
 62
256
370
-1
  6
BYLAYER
 10
38.9600000000000009
 20
77.6899999999999977
 30
0.0
  0
POINT
  5
C1
100
AcDbEntity
100
AcDbPoint
  8
rupe
 62
256
370
-1
  6
BYLAYER
 10
22.4499999999999993
 20
75.1500000000000057
 30
0.0
  0
POINT
  5
C2
100
AcDbEntity
100
AcDbPoint
  8
rupe
 62
256
370
-1
  6
BYLAYER
 10
18.6400000000000006
 20
76.4200000000000017
 30
0.0
  0
POINT
  5
C3
100
AcDbEntity
100
AcDbPoint
  8
rupe
 62
256
370
-1
  6
BYLAYER
 10
16.1000000000000014
 20
78.960000000000008
 30
0.0
  0
POINT
  5
C4
100
AcDbEntity
100
AcDbPoint
  8
rupe
 62
256
370
-1
  6
BYLAYER
 10
11.0199999999999996
 20
78.960000000000008
 30
0.0
  0
POINT
  5
C5
100
AcDbEntity
100
AcDbPoint
  8
rupe
 62
256
370
-1
  6
BYLAYER
 10
5.9399999999999995
 20
73.8799999999999955
 30
0.0
  0
POINT
  5
C6
100
AcDbEntity
100
AcDbPoint
  8
rupe
 62
256
370
-1
  6
BYLAYER
 10
5.9399999999999995
 20
68.7999999999999972
 30
0.0
  0
POINT
  5
C7
100
AcDbEntity
100
AcDbPoint
  8
rupe
 62
256
370
-1
  6
BYLAYER
 10
16.1000000000000014
 20
71.3400000000000034
 30
0.0
  0
LINE
  5
C8
100
AcDbEntity
100
AcDbLine
  8
rezanje
 62
256
370
-1
  6
BYLAYER
 10
1.0
 20
1.0
 30
0.0
 11
46.0
 21
1.0
 31
0.0
  0
LINE
  5
C9
100
AcDbEntity
100
AcDbLine
  8
rezanje
 62
256
370
-1
  6
BYLAYER
 10
46.0
 20
1.0
 30
0.0
 11
46.0
 21
29.0
 31
0.0
  0
LINE
  5
CA
100
AcDbEntity
100
AcDbLine
  8
rezanje
 62
256
370
-1
  6
BYLAYER
 10
46.0
 20
29.0
 30
0.0
 11
1.0
 21
29.0
 31
0.0
  0
LINE
  5
CB
100
AcDbEntity
100
AcDbLine
  8
rezanje
 62
256
370
-1
  6
BYLAYER
 10
1.0
 20
29.0
 30
0.0
 11
1.0
 21
1.0
 31
0.0
  0
LINE
  5
CC
100
AcDbEntity
100
AcDbLine
  8
rezanje
 62
256
370
-1
  6
BYLAYER
 10
1.0
 20
85.0
 30
0.0
 11
46.0
 21
85.0
 31
0.0
  0
LINE
  5
CD
100
AcDbEntity
100
AcDbLine
  8
rezanje
 62
256
370
-1
  6
BYLAYER
 10
46.0
 20
85.0
 30
0.0
 11
46.0
 21
57.0
 31
0.0
  0
LINE
  5
CE
100
AcDbEntity
100
AcDbLine
  8
rezanje
 62
256
370
-1
  6
BYLAYER
 10
46.0
 20
57.0
 30
0.0
 11
1.0
 21
57.0
 31
0.0
  0
LINE
  5
CF
100
AcDbEntity
100
AcDbLine
  8
rezanje
 62
256
370
-1
  6
BYLAYER
 10
1.0
 20
57.0
 30
0.0
 11
1.0
 21
85.0
 31
0.0
  0
LINE
  5
D0
100
AcDbEntity
100
AcDbLine
  8
rezanje
 62
256
370
-1
  6
BYLAYER
 10
1.0
 20
29.0
 30
0.0
 11
1.0
 21
57.0
 31
0.0
  0
LINE
  5
D1
100
AcDbEntity
100
AcDbLine
  8
rezanje
 62
256
370
-1
  6
BYLAYER
 10
46.0
 20
29.0
 30
0.0
 11
46.0
 21
57.0
 31
0.0
  0
LINE
  5
D2
100
AcDbEntity
100
AcDbLine
  8
rezanje_ostavi
 62
256
370
-1
  6
BYLAYER
 10
1.0
 20
85.0
 30
0.0
 11
46.0
 21
85.0
 31
0.0
  0
LINE
  5
D3
100
AcDbEntity
100
AcDbLine
  8
rezanje_ostavi
 62
256
370
-1
  6
BYLAYER
 10
46.0
 20
85.0
 30
0.0
 11
46.0
 21
73.0
 31
0.0
  0
LINE
  5
D4
100
AcDbEntity
100
AcDbLine
  8
rezanje_ostavi
 62
256
370
-1
  6
BYLAYER
 10
46.0
 20
70.0
 30
0.0
 11
46.0
 21
45.0
 31
0.0
  0
LINE
  5
D5
100
AcDbEntity
100
AcDbLine
  8
rezanje_ostavi
 62
256
370
-1
  6
BYLAYER
 10
46.0
 20
42.0
 30
0.0
 11
46.0
 21
20.0
 31
0.0
  0
LINE
  5
D6
100
AcDbEntity
100
AcDbLine
  8
rezanje_ostavi
 62
256
370
-1
  6
BYLAYER
 10
46.0
 20
17.0
 30
0.0
 11
46.0
 21
1.0
 31
0.0
  0
LINE
  5
D7
100
AcDbEntity
100
AcDbLine
  8
rezanje_ostavi
 62
256
370
-1
  6
BYLAYER
 10
46.0
 20
1.0
 30
0.0
 11
1.0
 21
1.0
 31
0.0
  0
LINE
  5
D8
100
AcDbEntity
100
AcDbLine
  8
rezanje_ostavi
 62
256
370
-1
  6
BYLAYER
 10
1.0
 20
1.0
 30
0.0
 11
1.0
 21
17.0
 31
0.0
  0
LINE
  5
D9
100
AcDbEntity
100
AcDbLine
  8
rezanje_ostavi
 62
256
370
-1
  6
BYLAYER
 10
1.0
 20
20.0
 30
0.0
 11
1.0
 21
29.0
 31
0.0
  0
LINE
  5
DA
100
AcDbEntity
100
AcDbLine
  8
rezanje_ostavi
 62
256
370
-1
  6
BYLAYER
 10
1.0
 20
29.0
 30
0.0
 11
46.0
 21
29.0
 31
0.0
  0
LINE
  5
DB
100
AcDbEntity
100
AcDbLine
  8
rezanje_ostavi
 62
256
370
-1
  6
BYLAYER
 10
1.0
 20
29.0
 30
0.0
 11
1.0
 21
42.0
 31
0.0
  0
LINE
  5
DC
100
AcDbEntity
100
AcDbLine
  8
rezanje_ostavi
 62
256
370
-1
  6
BYLAYER
 10
1.0
 20
45.0
 30
0.0
 11
1.0
 21
57.0
 31
0.0
  0
LINE
  5
DD
100
AcDbEntity
100
AcDbLine
  8
rezanje_ostavi
 62
256
370
-1
  6
BYLAYER
 10
1.0
 20
57.0
 30
0.0
 11
46.0
 21
57.0
 31
0.0
  0
LINE
  5
DE
100
AcDbEntity
100
AcDbLine
  8
rezanje_ostavi
 62
256
370
-1
  6
BYLAYER
 10
1.0
 20
57.0
 30
0.0
 11
1.0
 21
70.0
 31
0.0
  0
LINE
  5
DF
100
AcDbEntity
100
AcDbLine
  8
rezanje_ostavi
 62
256
370
-1
  6
BYLAYER
 10
1.0
 20
73.0
 30
0.0
 11
1.0
 21
85.0
 31
0.0
  0
ENDSEC
  0
SECTION
  2
OBJECTS
  0
DICTIONARY
  5
C
100
AcDbDictionary
280
0
281
1
  3
ACAD_GROUP
350
D
  3
ACAD_LAYOUT
350
1A
  3
ACAD_MLINESTYLE
350
17
  3
ACAD_PLOTSETTINGS
350
19
  3
ACAD_PLOTSTYLENAME
350
E
  3
AcDbVariableDictionary
350
E0
  3
QCAD_OBJECTS
350
E1
  0
DICTIONARY
  5
D
100
AcDbDictionary
280
0
281
1
  0
ACDBDICTIONARYWDFLT
  5
E
100
AcDbDictionary
281
1
  3
Normal
350
F
100
AcDbDictionaryWithDefault
340
F
  0
ACDBPLACEHOLDER
  5
F
  0
DICTIONARY
  5
17
100
AcDbDictionary
280
0
281
1
  3
Standard
350
18
  0
MLINESTYLE
  5
18
100
AcDbMlineStyle
  2
STANDARD
 70
0
  3

 62
256
 51
90.0
 52
90.0
 71
2
 49
0.5
 62
256
  6
BYLAYER
 49
-0.5
 62
256
  6
BYLAYER
  0
DICTIONARY
  5
19
100
AcDbDictionary
280
0
281
1
  0
DICTIONARY
  5
1A
100
AcDbDictionary
281
1
  3
Layout1
350
1E
  3
Layout2
350
26
  3
Model
350
22
  0
LAYOUT
  5
1E
100
AcDbPlotSettings
  1

  2
none_device
  4

  6

 40
0.0
 41
0.0
 42
0.0
 43
0.0
 44
0.0
 45
0.0
 46
0.0
 47
0.0
 48
0.0
 49
0.0
140
0.0
141
0.0
142
1.0
143
1.0
 70
688
 72
0
 73
0
 74
5
  7

 75
16
147
1.0
148
0.0
149
0.0
100
AcDbLayout
  1
Layout1
 70
1
 71
1
 10
0.0
 20
0.0
 11
420.0
 21
297.0
 12
0.0
 22
0.0
 32
0.0
 14
100000000000000000000.0
 24
100000000000000000000.0
 34
100000000000000000000.0
 15
-100000000000000000000.0
 25
-100000000000000000000.0
 35
-100000000000000000000.0
146
0.0
 13
0.0
 23
0.0
 33
0.0
 16
1.0
 26
0.0
 36
0.0
 17
0.0
 27
1.0
 37
0.0
 76
0
330
1B
  0
LAYOUT
  5
22
100
AcDbPlotSettings
  1

  2
none_device
  4

  6

 40
0.0
 41
0.0
 42
0.0
 43
0.0
 44
0.0
 45
0.0
 46
0.0
 47
0.0
 48
0.0
 49
0.0
140
0.0
141
0.0
142
1.0
143
1.0
 70
1712
 72
0
 73
0
 74
0
  7

 75
0
147
1.0
148
0.0
149
0.0
100
AcDbLayout
  1
Model
 70
1
 71
0
 10
0.0
 20
0.0
 11
12.0
 21
9.0
 12
0.0
 22
0.0
 32
0.0
 14
0.0
 24
0.0
 34
0.0
 15
0.0
 25
0.0
 35
0.0
146
0.0
 13
0.0
 23
0.0
 33
0.0
 16
1.0
 26
0.0
 36
0.0
 17
0.0
 27
1.0
 37
0.0
 76
0
330
1F
  0
LAYOUT
  5
26
100
AcDbPlotSettings
  1

  2
none_device
  4

  6

 40
0.0
 41
0.0
 42
0.0
 43
0.0
 44
0.0
 45
0.0
 46
0.0
 47
0.0
 48
0.0
 49
0.0
140
0.0
141
0.0
142
1.0
143
1.0
 70
688
 72
0
 73
0
 74
5
  7

 75
16
147
1.0
148
0.0
149
0.0
100
AcDbLayout
  1
Layout2
 70
1
 71
2
 10
0.0
 20
0.0
 11
12.0
 21
9.0
 12
0.0
 22
0.0
 32
0.0
 14
0.0
 24
0.0
 34
0.0
 15
0.0
 25
0.0
 35
0.0
146
0.0
 13
0.0
 23
0.0
 33
0.0
 16
1.0
 26
0.0
 36
0.0
 17
0.0
 27
1.0
 37
0.0
 76
0
330
23
  0
DICTIONARY
  5
E0
100
AcDbDictionary
281
1
  3
DIMASSOC
350
E3
  3
HIDETEXT
350
E2
  0
DICTIONARYVAR
  5
E2
100
DictionaryVariables
280
0
  1
2
  0
DICTIONARYVAR
  5
E3
100
DictionaryVariables
280
0
  1
1
  0
DICTIONARY
  5
E1
100
AcDbDictionary
281
1
  3
Grid/DisplayGrid00
350
E4
  3
Grid/DisplayGrid01
350
E5
  3
Grid/DisplayGrid02
350
E6
  3
Grid/DisplayGrid03
350
E7
  3
Grid/GridSpacingX00
350
E8
  3
Grid/GridSpacingX01
350
E9
  3
Grid/GridSpacingX02
350
EA
  3
Grid/GridSpacingX03
350
EB
  3
Grid/GridSpacingY00
350
EC
  3
Grid/GridSpacingY01
350
ED
  3
Grid/GridSpacingY02
350
EE
  3
Grid/GridSpacingY03
350
EF
  3
Grid/IsometricGrid00
350
F0
  3
Grid/IsometricGrid01
350
F1
  3
Grid/IsometricGrid02
350
F2
  3
Grid/IsometricGrid03
350
F3
  3
Grid/IsometricProjection00
350
F4
  3
Grid/IsometricProjection01
350
F5
  3
Grid/IsometricProjection02
350
F6
  3
Grid/IsometricProjection03
350
F7
  3
Grid/MetaGridSpacingX00
350
F8
  3
Grid/MetaGridSpacingX01
350
F9
  3
Grid/MetaGridSpacingX02
350
FA
  3
Grid/MetaGridSpacingX03
350
FB
  3
Grid/MetaGridSpacingY00
350
FC
  3
Grid/MetaGridSpacingY01
350
FD
  3
Grid/MetaGridSpacingY02
350
FE
  3
Grid/MetaGridSpacingY03
350
FF
  3
MultiPageSettings/Columns
350
100
  3
MultiPageSettings/GlueMarginsBottom
350
101
  3
MultiPageSettings/GlueMarginsLeft
350
102
  3
MultiPageSettings/GlueMarginsRight
350
103
  3
MultiPageSettings/GlueMarginsTop
350
104
  3
MultiPageSettings/PrintCropMarks
350
105
  3
MultiPageSettings/Rows
350
106
  3
PageSettings/OffsetX
350
107
  3
PageSettings/OffsetY
350
108
  3
PageSettings/PageOrientation
350
109
  3
PageSettings/PaperHeight
350
10A
  3
PageSettings/PaperWidth
350
10B
  3
PageSettings/Scale
350
10C
  3
PageSettings/ShowPaperBorders
350
10D
  3
UnitSettings/PaperUnit
350
10E
  0
XRECORD
  5
E4
330
E1
100
AcDbXrecord
280
1
290
1
  0
XRECORD
  5
E5
330
E1
100
AcDbXrecord
280
1
290
1
  0
XRECORD
  5
E6
330
E1
100
AcDbXrecord
280
1
290
1
  0
XRECORD
  5
E7
330
E1
100
AcDbXrecord
280
1
290
1
  0
XRECORD
  5
E8
330
E1
100
AcDbXrecord
280
1
1000
auto
  0
XRECORD
  5
E9
330
E1
100
AcDbXrecord
280
1
1000
auto
  0
XRECORD
  5
EA
330
E1
100
AcDbXrecord
280
1
1000
auto
  0
XRECORD
  5
EB
330
E1
100
AcDbXrecord
280
1
1000
auto
  0
XRECORD
  5
EC
330
E1
100
AcDbXrecord
280
1
1000
auto
  0
XRECORD
  5
ED
330
E1
100
AcDbXrecord
280
1
1000
auto
  0
XRECORD
  5
EE
330
E1
100
AcDbXrecord
280
1
1000
auto
  0
XRECORD
  5
EF
330
E1
100
AcDbXrecord
280
1
1000
auto
  0
XRECORD
  5
F0
330
E1
100
AcDbXrecord
280
1
290
0
  0
XRECORD
  5
F1
330
E1
100
AcDbXrecord
280
1
290
0
  0
XRECORD
  5
F2
330
E1
100
AcDbXrecord
280
1
290
0
  0
XRECORD
  5
F3
330
E1
100
AcDbXrecord
280
1
290
0
  0
XRECORD
  5
F4
330
E1
100
AcDbXrecord
280
1
 90
0
  0
XRECORD
  5
F5
330
E1
100
AcDbXrecord
280
1
 90
0
  0
XRECORD
  5
F6
330
E1
100
AcDbXrecord
280
1
 90
0
  0
XRECORD
  5
F7
330
E1
100
AcDbXrecord
280
1
 90
0
  0
XRECORD
  5
F8
330
E1
100
AcDbXrecord
280
1
1000
auto
  0
XRECORD
  5
F9
330
E1
100
AcDbXrecord
280
1
1000
auto
  0
XRECORD
  5
FA
330
E1
100
AcDbXrecord
280
1
1000
auto
  0
XRECORD
  5
FB
330
E1
100
AcDbXrecord
280
1
1000
auto
  0
XRECORD
  5
FC
330
E1
100
AcDbXrecord
280
1
1000
auto
  0
XRECORD
  5
FD
330
E1
100
AcDbXrecord
280
1
1000
auto
  0
XRECORD
  5
FE
330
E1
100
AcDbXrecord
280
1
1000
auto
  0
XRECORD
  5
FF
330
E1
100
AcDbXrecord
280
1
1000
auto
  0
XRECORD
  5
100
330
E1
100
AcDbXrecord
280
1
 90
1
  0
XRECORD
  5
101
330
E1
100
AcDbXrecord
280
1
 40
10.0
  0
XRECORD
  5
102
330
E1
100
AcDbXrecord
280
1
 40
10.0
  0
XRECORD
  5
103
330
E1
100
AcDbXrecord
280
1
 40
10.0
  0
XRECORD
  5
104
330
E1
100
AcDbXrecord
280
1
 40
10.0
  0
XRECORD
  5
105
330
E1
100
AcDbXrecord
280
1
290
0
  0
XRECORD
  5
106
330
E1
100
AcDbXrecord
280
1
 90
1
  0
XRECORD
  5
107
330
E1
100
AcDbXrecord
280
1
 40
0.0
  0
XRECORD
  5
108
330
E1
100
AcDbXrecord
280
1
 40
0.0
  0
XRECORD
  5
109
330
E1
100
AcDbXrecord
280
1
1000
Portrait
  0
XRECORD
  5
10A
330
E1
100
AcDbXrecord
280
1
 40
297.0
  0
XRECORD
  5
10B
330
E1
100
AcDbXrecord
280
1
 40
210.0
  0
XRECORD
  5
10C
330
E1
100
AcDbXrecord
280
1
1000
1:1
  0
XRECORD
  5
10D
330
E1
100
AcDbXrecord
280
1
290
1
  0
XRECORD
  5
10E
330
E1
100
AcDbXrecord
280
1
 90
4
  0
ENDSEC
  0
EOF
